<?xml version="1.0" encoding="utf-8"?>
<!-- Generator: Adobe Illustrator 25.3.1, SVG Export Plug-In . SVG Version: 6.00 Build 0)  -->
<svg version="1.1" id="Layer_1" xmlns="http://www.w3.org/2000/svg" xmlns:xlink="http://www.w3.org/1999/xlink" x="0px" y="0px"
	 viewBox="0 0 300 300" style="enable-background:new 0 0 300 300;" xml:space="preserve">
<path d="M257.7,261c-2.2-13.7-4.4-27.4-6.6-41.2c-2.2-13.7-4.4-27.4-6.6-41.2c-2.3-14.4-4.6-28.8-6.9-43.2
	c-2.2-13.7-4.4-27.3-6.6-41c-1.9-12.1-3.8-24.1-5.8-36.2c-1.9-12.1-3.9-24.1-5.8-36.2c-1.1-6.8-2.1-13.5-3.2-20.3
	c-21.6,0-43.3,0-64.9,0c-0.7,4.4-1.5,8.8-2.2,13.3c-1.9,12-3.9,24-5.8,36c-1.9,12.1-3.9,24.2-5.8,36.4c-2.1,13-4.2,26-6.3,38.9
	c-0.7,4.1-1.4,8.2-1.9,12.4c-0.2,1.1-0.6,1.4-1.6,1.5c-20,2.7-37.7,10.6-53,23.7c-14.6,12.5-25,27.7-30.2,46.3
	c-1.4,5.1-2,10.4-3,15.6c-0.1,0.6-0.2,1.2-0.3,1.8c0,3.9,0,7.8,0,11.6c0.9,4.8,1.3,9.8,2.7,14.5c6,19.6,18,34.2,37.6,41.3
	c26.7,9.7,55.8-3.1,67.7-29.4c4.3-9.5,6.6-19.4,8.3-29.6c2-12.4,3.8-24.9,5.6-37.4c0.6-4.1,1-8.2,1.5-12.5c1.5,0.4,2.9,0.8,4.2,1.2
	c12.4,4.3,21.5,12.6,28.6,23.4c7.4,11.3,11.7,23.8,13.9,37c1.2,7.2,2.1,14.4,3.1,21.8c14.9,0,29.8,0,45,0
	C258.6,266.6,258.1,263.8,257.7,261z M119,202.8c-1.6,10-3.1,20.1-4.9,30.1c-0.8,4.6-2.2,9.1-3.8,13.5c-1.5,4.2-4.2,7.7-9.1,8.6
	c-4.3,0.8-7.8-0.8-10.8-3.8c-5.5-5.6-7.1-12.5-6.6-20c1.4-18.4,11.6-31.1,26.8-40.4c3.4-2.1,7-3.6,11-5.5
	C120.7,191.5,119.9,197.2,119,202.8z M170,143c4.3-32.9,8.6-65.8,12.8-98.6c1.4-0.7,1.6,0.1,1.8,1.2c0.7,5.1,1.3,10.3,2,15.4
	c1.2,9.1,2.4,18.2,3.6,27.3c1.2,9.1,2.4,18.2,3.5,27.3c1.2,9.2,2.4,18.3,3.6,27.5c0.5,3.6,0.9,7.3,1.5,11.4
	C189.4,149.4,180,145.6,170,143z"/>
</svg>
