<?xml version="1.0" encoding="utf-8"?>
<!-- Generator: Adobe Illustrator 25.3.1, SVG Export Plug-In . SVG Version: 6.00 Build 0)  -->
<svg version="1.1" id="Layer_1" xmlns="http://www.w3.org/2000/svg" xmlns:xlink="http://www.w3.org/1999/xlink" x="0px" y="0px"
	 viewBox="0 0 284 93" style="enable-background:new 0 0 284 93;" xml:space="preserve">
<style type="text/css">
	.st0{fill:#D1D3D4;}
	.st1{fill:#FFFFFF;}
	.st2{fill:#231F20;}
	.st3{fill:#F15F58;}
</style>
<polygon class="st0" points="284,0 0,0 0,93 284,93 284,0 "/>
<polyline class="st1" points="283,1 283,92 1,92 1,1 283,1 "/>
<g>
	<path class="st2" d="M61.7,14.9h1.1V20h3.2v1h-4.2V14.9z"/>
	<path class="st2" d="M69.6,14.9h4.5v0.9h-3.4v1.6h3v0.9h-3V20h3.4V21h-4.5V14.9z"/>
	<path class="st2" d="M80.1,14.9h1l2.6,6.1h-1.1L82,19.5h-2.8L78.5,21h-1.1L80.1,14.9z M81.6,18.6l-1-2.4l-1,2.4H81.6z"/>
	<path class="st2" d="M85.9,14.9h1.2l1.8,4.6l1.8-4.6h1.1L89.4,21h-0.9L85.9,14.9z"/>
	<path class="st2" d="M95.5,14.9h4.5v0.9h-3.4v1.6h3v0.9h-3V20h3.4V21h-4.5V14.9z"/>
	<path class="st2" d="M110.7,18.6l-2.4-3.6h1.2l1.7,2.7l1.7-2.7h1.2l-2.4,3.6V21h-1.1V18.6z"/>
	<path class="st2" d="M116.9,17.9c0-1.7,1.3-3.1,3.2-3.1s3.1,1.4,3.1,3.1c0,1.7-1.3,3.1-3.2,3.1C118.2,21.1,116.9,19.7,116.9,17.9z
		 M122.1,17.9c0-1.2-0.9-2.1-2-2.1c-1.2,0-2,1-2,2.1c0,1.2,0.9,2.1,2,2.1C121.2,20.1,122.1,19.1,122.1,17.9z"/>
	<path class="st2" d="M127,18.4v-3.5h1.1v3.4c0,1.1,0.6,1.7,1.5,1.7c0.9,0,1.5-0.6,1.5-1.7v-3.5h1.1v3.4c0,1.8-1,2.7-2.6,2.7
		C127.9,21,127,20.1,127,18.4z"/>
	<path class="st2" d="M136.1,14.9h2.7c1.4,0,2.2,0.8,2.2,1.9c0,1-0.6,1.6-1.4,1.8l1.6,2.3H140l-1.5-2.1h-1.3V21h-1.1V14.9z
		 M138.7,17.9c0.8,0,1.2-0.4,1.2-1c0-0.6-0.5-1-1.2-1h-1.5v2H138.7z"/>
	<path class="st2" d="M150.1,14.9h2.7c1.4,0,2.2,0.8,2.2,1.9c0,1-0.6,1.6-1.4,1.8l1.6,2.3h-1.2l-1.5-2.1h-1.3V21h-1.1V14.9z
		 M152.7,17.9c0.8,0,1.2-0.4,1.2-1c0-0.6-0.5-1-1.2-1h-1.5v2H152.7z"/>
	<path class="st2" d="M158.9,14.9h4.5v0.9h-3.4v1.6h3v0.9h-3V20h3.4V21h-4.5V14.9z"/>
	<path class="st2" d="M166.7,14.9h1.2l1.8,4.6l1.8-4.6h1.1l-2.5,6.1h-0.9L166.7,14.9z"/>
	<path class="st2" d="M176.3,14.9h1.1v6h-1.1V14.9z"/>
	<path class="st2" d="M181.5,14.9h4.5v0.9h-3.4v1.6h3v0.9h-3V20h3.4V21h-4.5V14.9z"/>
	<path class="st2" d="M189.4,14.9h1.1l1.4,4.5l1.5-4.5h0.9l1.5,4.5l1.4-4.5h1.1l-2.1,6.1h-0.9l-1.5-4.3l-1.5,4.3h-0.9L189.4,14.9z"
		/>
	<path class="st2" d="M206.9,17.9c0-1.7,1.3-3.1,3.2-3.1c1.8,0,3.1,1.4,3.1,3.1c0,1.7-1.3,3.1-3.2,3.1S206.9,19.7,206.9,17.9z
		 M212.1,17.9c0-1.2-0.9-2.1-2-2.1s-2,1-2,2.1c0,1.2,0.9,2.1,2,2.1C211.3,20.1,212.1,19.1,212.1,17.9z"/>
	<path class="st2" d="M217.1,14.9h1l3.2,4.2v-4.2h1v6h-0.9l-3.3-4.3V21h-1V14.9z"/>
</g>
<path class="st3" d="M122.6,26.3c0.2,1.1,0.3,2.2,0.5,3.3c0.3,2.1,0.7,4.1,1,6.2c0.4,2.4,0.8,4.7,1.1,7.1c0.4,2.2,0.7,4.4,1.1,6.7
	c0.4,2.2,0.7,4.4,1.1,6.6c0.3,2.1,0.7,4.1,1,6.2c0.4,2.2,0.7,4.4,1.1,6.6c0.3,2.1,0.7,4.1,1,6.2c0,0,0,0.1,0,0.2c-2.7,0-5.5,0-8.2,0
	c-0.1-0.9-0.2-1.7-0.3-2.6c-0.4-3.1-1.2-6-3-8.6c-1.3-1.9-3.1-3.3-5.4-4c-0.1,0-0.2,0-0.3-0.1c-0.1,0.7-0.2,1.4-0.3,2
	c-0.3,2-0.6,4-0.9,6.1c-0.3,1.8-0.6,3.5-1.2,5.2c-0.9,2.4-2.3,4.5-4.5,5.8c-4.1,2.4-9.2,1.6-12.5-1.9c-1.9-2-3-4.4-3.2-7.2
	c0-0.1,0-0.2-0.1-0.3c0-0.7,0-1.4,0-2.1c0-0.1,0-0.2,0.1-0.3c0.2-1,0.3-1.9,0.5-2.9c1-3.4,2.9-6.2,5.5-8.5c2.8-2.4,6.1-3.8,9.7-4.3
	c0.2,0,0.3-0.1,0.3-0.3c0.1-0.8,0.2-1.5,0.4-2.3c0.4-2.4,0.8-4.8,1.1-7.1c0.4-2.2,0.7-4.4,1.1-6.7c0.4-2.2,0.7-4.4,1.1-6.6
	c0.1-0.8,0.3-1.6,0.4-2.4C114.6,26.3,118.6,26.3,122.6,26.3z M105.3,59.9c-0.3,0.1-0.5,0.2-0.7,0.3c-0.4,0.2-0.9,0.4-1.3,0.7
	c-2.8,1.7-4.6,4-4.9,7.4c-0.1,1.4,0.2,2.6,1.2,3.6c0.6,0.6,1.2,0.9,2,0.7c0.9-0.2,1.4-0.8,1.6-1.6c0.3-0.8,0.5-1.6,0.7-2.5
	c0.3-1.7,0.6-3.4,0.8-5C104.9,62.4,105.1,61.2,105.3,59.9z M116.5,34.1c-0.8,6-1.6,12-2.4,18.1c1.8,0.5,3.5,1.2,5.3,2.1
	c-0.1-0.8-0.2-1.4-0.3-2.1c-0.2-1.7-0.4-3.4-0.7-5c-0.2-1.7-0.4-3.3-0.6-5c-0.2-1.7-0.4-3.3-0.7-5c-0.1-0.9-0.2-1.9-0.4-2.8
	C116.8,34.1,116.7,33.9,116.5,34.1z M167.9,87.5c-0.9-0.1-1.8-0.2-2.7-0.4c-3.6-0.8-6-3.3-6.5-7c-0.1-0.7-0.1-1.3-0.2-2
	c2.8,0,5.6,0,8.3,0c0.1,0.4,0.1,0.8,0.2,1.2c0.3,1.1,1.2,1.8,2.4,1.8c1.7,0.1,2.6-0.7,2.9-2.5c0.1-0.8,0.2-1.6,0.2-2.4
	c0-1.9,0-3.8,0-5.7c0-0.1,0-0.1,0-0.3c-0.2,0.3-0.3,0.5-0.4,0.8c-0.9,1.9-2.4,3-4.5,3.3c-1.4,0.2-2.8,0.2-4.2-0.3
	c-2.1-0.7-3.3-2.1-4-4.1c-0.6-1.5-0.8-3.1-0.8-4.6c0-0.6,0-1.2,0-1.9c0-4.5,0-9,0-13.5c0-2.1,0.2-4.1,1-6.1c1.3-3,3.5-4.4,6.7-4.5
	c1.1,0,2.2,0,3.3,0.4c1.4,0.5,2.5,1.5,3,2.9c0.1,0.2,0.2,0.5,0.3,0.7c0,0,0,0,0.1,0.1c0-0.2,0.1-0.4,0.1-0.6c0-1.1,0.5-1.8,1.4-2.3
	c0.7-0.5,1.5-0.7,2.3-0.7c1.4,0,2.7,0,4.2,0c0,0.5,0,1,0,1.5c0,0.3,0,0.7,0,1c0,4.9,0,9.8,0,14.7c0,5.7,0,11.5-0.1,17.2
	c0,2.3-0.2,4.6-0.8,6.8c-1,3.4-3.2,5.3-6.6,6c-0.8,0.2-1.7,0.2-2.5,0.4c-0.1,0-0.2,0-0.4,0.1C169.6,87.5,168.8,87.5,167.9,87.5z
	 M166.8,56.9C166.8,56.9,166.8,56.9,166.8,56.9c0,2.1,0,4.2,0,6.3c0,0.6,0,1.2,0.1,1.8c0.3,1.5,1,2.5,2.8,2.4c1-0.1,1.8-0.5,2.2-1.5
	c0.4-0.9,0.4-1.8,0.4-2.8c0-4.1,0-8.2,0-12.3c0-0.6-0.1-1.3-0.1-1.9c-0.1-0.8-0.3-1.5-1-2c-1.3-1-3.4-0.5-4.1,1.1
	c-0.2,0.6-0.4,1.3-0.4,2C166.8,52.3,166.8,54.6,166.8,56.9z M193.5,31.5c0-0.1-0.1-0.2-0.1-0.3c-0.4-2.2-2.5-4-5.1-3.6
	c-2.6,0.4-4.2,2.7-3.8,5.3c0.3,2,1.8,3.4,3.9,3.7c1.9,0.2,3.7-0.7,4.6-2.4c0.2-0.4,0.3-0.9,0.5-1.4C193.5,32.4,193.5,32,193.5,31.5z
	 M132.9,75.3c2.8,0,5.5,0,8.3,0c0-0.2,0-0.3,0-0.5c0-7.9,0-15.7,0-23.6c0-0.8,0.1-1.6,0.2-2.4c0.2-1.4,0.9-2.2,2.2-2.4
	c1.5-0.2,2.6,0.3,3,1.9c0.1,0.6,0.2,1.1,0.2,1.7c0,8.2,0,16.5,0,24.7c0,0.1,0,0.3,0,0.4c2.8,0,5.5,0,8.2,0c0-0.1,0-0.2,0-0.3
	c0-8.9,0-17.8,0-26.6c0-1.4-0.1-2.9-0.6-4.3c-0.6-2-1.8-3.6-3.9-4.3c-1.5-0.5-3.1-0.5-4.7-0.2c-2,0.4-3.5,1.6-4.5,3.3
	c-0.1,0.2-0.2,0.3-0.3,0.5c-0.1-0.4-0.1-0.8-0.2-1.2c-0.5-1.4-1.7-2.2-3.2-2.3c-1.6-0.1-3.3,0-4.9,0
	C132.9,51.7,132.9,63.5,132.9,75.3z M193.1,39.9c-2.7,0-5.5,0-8.2,0c0,11.8,0,23.6,0,35.3c2.7,0,5.4,0,8.2,0
	C193.1,63.5,193.1,51.7,193.1,39.9z"/>
</svg>
