<?xml version="1.0" encoding="utf-8"?>
<!-- Generator: Adobe Illustrator 25.3.1, SVG Export Plug-In . SVG Version: 6.00 Build 0)  -->
<svg version="1.1" id="Layer_1" xmlns="http://www.w3.org/2000/svg" xmlns:xlink="http://www.w3.org/1999/xlink" x="0px" y="0px"
	 viewBox="0 0 284 93" style="enable-background:new 0 0 284 93;" xml:space="preserve">
<style type="text/css">
	.st0{fill:#D1D3D4;}
	.st1{fill:#FFFFFF;}
	.st2{fill:#231F20;}
	.st3{fill:#1B5287;}
</style>
<polygon class="st0" points="284,0 0,0 0,93 284,93 284,0 "/>
<polyline class="st1" points="283,1 283,92 1,92 1,1 283,1 "/>
<g>
	<path class="st2" d="M61.7,14.9h1.1V20h3.2v1h-4.2V14.9z"/>
	<path class="st2" d="M69.6,14.9h4.5v0.9h-3.4v1.6h3v0.9h-3V20h3.4V21h-4.5V14.9z"/>
	<path class="st2" d="M80.1,14.9h1l2.6,6.1h-1.1L82,19.5h-2.8L78.5,21h-1.1L80.1,14.9z M81.6,18.6l-1-2.4l-1,2.4H81.6z"/>
	<path class="st2" d="M85.9,14.9h1.2l1.8,4.6l1.8-4.6h1.1L89.4,21h-0.9L85.9,14.9z"/>
	<path class="st2" d="M95.5,14.9h4.5v0.9h-3.4v1.6h3v0.9h-3V20h3.4V21h-4.5V14.9z"/>
	<path class="st2" d="M110.7,18.6l-2.4-3.6h1.2l1.7,2.7l1.7-2.7h1.2l-2.4,3.6V21h-1.1V18.6z"/>
	<path class="st2" d="M116.9,17.9c0-1.7,1.3-3.1,3.2-3.1s3.1,1.4,3.1,3.1c0,1.7-1.3,3.1-3.2,3.1C118.2,21.1,116.9,19.7,116.9,17.9z
		 M122.1,17.9c0-1.2-0.9-2.1-2-2.1c-1.2,0-2,1-2,2.1c0,1.2,0.9,2.1,2,2.1C121.2,20.1,122.1,19.1,122.1,17.9z"/>
	<path class="st2" d="M127,18.4v-3.5h1.1v3.4c0,1.1,0.6,1.7,1.5,1.7c0.9,0,1.5-0.6,1.5-1.7v-3.5h1.1v3.4c0,1.8-1,2.7-2.6,2.7
		C127.9,21,127,20.1,127,18.4z"/>
	<path class="st2" d="M136.1,14.9h2.7c1.4,0,2.2,0.8,2.2,1.9c0,1-0.6,1.6-1.4,1.8l1.6,2.3H140l-1.5-2.1h-1.3V21h-1.1V14.9z
		 M138.7,17.9c0.8,0,1.2-0.4,1.2-1c0-0.6-0.5-1-1.2-1h-1.5v2H138.7z"/>
	<path class="st2" d="M150.1,14.9h2.7c1.4,0,2.2,0.8,2.2,1.9c0,1-0.6,1.6-1.4,1.8l1.6,2.3h-1.2l-1.5-2.1h-1.3V21h-1.1V14.9z
		 M152.7,17.9c0.8,0,1.2-0.4,1.2-1c0-0.6-0.5-1-1.2-1h-1.5v2H152.7z"/>
	<path class="st2" d="M158.9,14.9h4.5v0.9h-3.4v1.6h3v0.9h-3V20h3.4V21h-4.5V14.9z"/>
	<path class="st2" d="M166.7,14.9h1.2l1.8,4.6l1.8-4.6h1.1l-2.5,6.1h-0.9L166.7,14.9z"/>
	<path class="st2" d="M176.3,14.9h1.1v6h-1.1V14.9z"/>
	<path class="st2" d="M181.5,14.9h4.5v0.9h-3.4v1.6h3v0.9h-3V20h3.4V21h-4.5V14.9z"/>
	<path class="st2" d="M189.4,14.9h1.1l1.4,4.5l1.5-4.5h0.9l1.5,4.5l1.4-4.5h1.1l-2.1,6.1h-0.9l-1.5-4.3l-1.5,4.3h-0.9L189.4,14.9z"
		/>
	<path class="st2" d="M206.9,17.9c0-1.7,1.3-3.1,3.2-3.1c1.8,0,3.1,1.4,3.1,3.1c0,1.7-1.3,3.1-3.2,3.1S206.9,19.7,206.9,17.9z
		 M212.1,17.9c0-1.2-0.9-2.1-2-2.1s-2,1-2,2.1c0,1.2,0.9,2.1,2,2.1C211.3,20.1,212.1,19.1,212.1,17.9z"/>
	<path class="st2" d="M217.1,14.9h1l3.2,4.2v-4.2h1v6h-0.9l-3.3-4.3V21h-1V14.9z"/>
</g>
<g>
	<g>
		<path class="st3" d="M146.1,50.6c2.3-1.1,3.5-3.4,3.5-6c0-4.8-4.7-6.5-9.7-6.5h-11.2v25.9h12.9c4.8,0,9.4-2.2,9.4-7.5
			C150.8,53.4,149.3,51.5,146.1,50.6z M134.1,43h5.6c2.1,0,4.1,0.5,4.1,2.7c0,2-1.6,2.8-3.7,2.8h-6.1V43z M140.6,59.3H134v-5.7h6.7
			c4,0,4.4,0.8,4.4,3C145.1,58.7,143,59.3,140.6,59.3z"/>
		<path class="st3" d="M205.1,61.3h-0.5l-0.5,1.4c-0.1,0.4-0.2,0.7-0.3,1h0c-0.1-0.3-0.2-0.6-0.3-1l-0.5-1.4h-0.5l-0.2,3h0.3
			l0.1-1.3c0-0.5,0-0.9,0.1-1.3h0c0.1,0.4,0.2,0.7,0.3,1.2l0.5,1.4h0.3l0.5-1.4c0.1-0.4,0.3-0.8,0.4-1.1h0c0,0.4,0,0.9,0,1.3
			l0.1,1.3h0.4L205.1,61.3z"/>
		<path class="st3" d="M171.1,50.6c2.3-1.1,3.5-3.4,3.5-6c0-4.8-4.7-6.5-9.7-6.5h-11.2v25.9h12.9c4.8,0,9.4-2.2,9.4-7.5
			C175.8,53.4,174.3,51.5,171.1,50.6z M159.1,43h5.6c2.1,0,4.1,0.5,4.1,2.7c0,2-1.6,2.8-3.7,2.8h-6.1V43z M165.5,59.3H159v-5.7h6.7
			c4,0,4.4,0.8,4.4,3C170.1,58.7,168,59.3,165.5,59.3z"/>
		<path class="st3" d="M195.8,50.6c2.3-1.1,3.5-3.4,3.5-6c0-4.8-4.7-6.5-9.7-6.5h-11.2v25.9h12.9c4.8,0,9.4-2.2,9.4-7.5
			C200.5,53.4,199,51.5,195.8,50.6z M183.8,43h5.6c2.1,0,4.1,0.5,4.1,2.7c0,2-1.6,2.8-3.7,2.8h-6.1V43z M190.3,59.3h-6.6v-5.7h6.7
			c4,0,4.4,0.8,4.4,3C194.8,58.7,192.7,59.3,190.3,59.3z"/>
		<path class="st3" d="M201.3,62.6c-0.4-0.2-0.6-0.3-0.6-0.6c0-0.2,0.1-0.4,0.5-0.4c0.3,0,0.4,0.1,0.5,0.1l0.1-0.3
			c-0.1-0.1-0.3-0.1-0.6-0.1c-0.5,0-0.9,0.3-0.9,0.8c0,0.4,0.3,0.7,0.7,0.8c0.4,0.2,0.5,0.3,0.5,0.6c0,0.3-0.2,0.5-0.6,0.5
			c-0.2,0-0.5-0.1-0.6-0.2l-0.1,0.3c0.1,0.1,0.4,0.2,0.7,0.2c0.7,0,1-0.4,1-0.9C202,63,201.8,62.8,201.3,62.6z"/>
	</g>
	<path class="st3" d="M95,30.5c0.7-3.8,8.5-13.2,8.5-13.2l0.9,0.8c0,0-1.4,3.3,0.7,5c3.7,2.6,7.2,5.3,10.9,7.9
		c7.2,5.1,8.9,11.5,4.2,18.1c-2.1,2.9-4.1,5.9-6.2,8.8c-0.5,0.7-1.1,1.4-1.6,2.1l-0.9-0.8c0,0,1.7-2,1-5.6
		c-0.6-2.8-8.8-7.1-13.5-11.2C94.2,38.2,94.4,34.1,95,30.5z M94.7,62.7c1.9,1.4,6.7,4.6,7.6,5.6c1,1,0.1,2.6,0.1,2.6l1.5,0.6
		c0.3-0.7,2.3-3.3,3.6-4.9c1.2-1.5,2.2-4,2.2-5.9c0.1-6.1-8-9-11.7-12.4c-1.8-1.7-0.4-2.7-0.4-2.7l-1.2-0.8
		C91.5,50.2,86.4,56.7,94.7,62.7z M120.7,73.8H86.3l-1.5,4h9.4l1.8,5.7h15.2l1.7-5.7h9.1L120.7,73.8z"/>
</g>
</svg>
