<?xml version="1.0" encoding="utf-8"?>
<!-- Generator: Adobe Illustrator 25.3.1, SVG Export Plug-In . SVG Version: 6.00 Build 0)  -->
<svg version="1.1" id="Layer_1" xmlns="http://www.w3.org/2000/svg" xmlns:xlink="http://www.w3.org/1999/xlink" x="0px" y="0px"
	 viewBox="0 0 300 300" style="enable-background:new 0 0 300 300;" xml:space="preserve">
<style type="text/css">
	.st0{fill:#1B5287;}
</style>
<g>
	<path class="st0" d="M109.9,204.4c8.4,6,29.4,20.1,33.7,24.7c4.3,4.6,0.2,11.5,0.2,11.5l6.5,2.6c1.4-3.1,10.1-14.6,15.8-21.8
		c5.2-6.5,9.7-17.9,9.8-26.2c0.5-26.9-35.2-39.7-51.8-54.8c-8.1-7.4-1.7-11.7-1.7-11.7L117,125C95.7,149.2,73.2,178.1,109.9,204.4z"
		/>
	<polygon class="st0" points="72.8,253.5 66.3,271 107.7,271 115.7,296.3 182.7,296.3 190.2,271 230.5,271 224.8,253.5 	"/>
	<path class="st0" d="M128.3,114.5c20.6,18.2,56.9,37.1,59.4,49.4c3.3,15.9-4.3,24.9-4.3,24.9l4.1,3.4c2.2-3.2,4.7-6.2,7-9.3
		c9.3-12.8,18.3-25.8,27.5-38.7c21-29.5,13.1-57.5-18.5-80c-16.1-11.5-31.7-23.7-48-34.9c-9.1-7.7-2.9-22.1-2.9-22.1l-3.8-3.4
		c0,0-34.4,41.7-37.4,58.5C108.6,78.3,107.6,96.3,128.3,114.5z"/>
</g>
</svg>
