<?xml version="1.0" encoding="utf-8"?>
<!-- Generator: Adobe Illustrator 23.1.0, SVG Export Plug-In . SVG Version: 6.00 Build 0)  -->
<svg version="1.1" id="Layer_1" xmlns="http://www.w3.org/2000/svg" xmlns:xlink="http://www.w3.org/1999/xlink" x="0px" y="0px"
	 viewBox="0 0 512 512" style="enable-background:new 0 0 512 512;" xml:space="preserve">
<style type="text/css">
	.st0{fill-rule:evenodd;clip-rule:evenodd;fill:#004289;}
</style>
<g>
	<path class="st0" d="M229.7,182.7l-19.2,26.4c-9.6,13.2-6.6,36.7,6.5,46.2l35.5,25.7c6.1,4.4,6.6,8.8,3.7,13.4l5.2,3.8l18-24.9
		c11.1-15.4,10.1-36.4-6.3-48.4l-35.8-26.1c-4.3-3.1-4.7-7.5-2.4-12.4L229.7,182.7L229.7,182.7z M260.4,66l-29.8,41.3
		c-14,19.4-8.9,52.4,10.2,66.4l49.1,36c9.9,7.3,11.2,25.9,4,35.4l4.2,3.1l33.8-47.6c15.2-21.4,14.3-53-9.5-70.3l-52.5-38.1
		c-7.3-5.3-11-14.4-4.9-23.1L260.4,66L260.4,66z M181.8,324.8h39.5l7,24c21.5,0,43.1,0,64.6,0l7-24h39.5l-5.2-17.6
		c-49.1,0-98.3,0-147.4,0L181.8,324.8L181.8,324.8z M184.8,434.2h-23.7v-19.8h23.7C202.2,414.4,201.1,434.2,184.8,434.2L184.8,434.2
		z M265.9,434.2h-23.7v-19.8h23.7C283.4,414.4,282.3,434.2,265.9,434.2L265.9,434.2z M347.1,434.2h-23.7v-19.8h23.7
		C364.5,414.4,363.5,434.2,347.1,434.2L347.1,434.2z M183.1,398.9h-22.1v-18.5h21.2C195.6,380.3,196.1,398.9,183.1,398.9
		L183.1,398.9z M264.3,398.9h-22.1v-18.5h21.2C276.8,380.3,277.2,398.9,264.3,398.9L264.3,398.9z M345.5,398.9h-22.1v-18.5h21.2
		C357.9,380.3,358.4,398.9,345.5,398.9L345.5,398.9z M215.8,423.2c-1.7-11.4-6.3-14.1-15.5-18.2c6.9-4.1,11.2-10,11.2-18.2
		c0-16.4-13.4-23.1-28.1-23.1h-40.9v86.9h40.5C200.4,450.7,218.7,443.1,215.8,423.2L215.8,423.2z M296.9,423.2
		c-1.7-11.4-6.3-14.1-15.5-18.2c6.9-4.1,11.2-10,11.2-18.2c0-16.4-13.4-23.1-28.1-23.1h-40.9v86.9h40.5
		C281.6,450.7,299.9,443.1,296.9,423.2L296.9,423.2z M378.1,423.2c-1.7-11.4-6.3-14.1-15.5-18.2c6.9-4.1,11.2-10,11.2-18.2
		c0-16.4-13.4-23.1-28.1-23.1h-40.9v86.9h40.5C362.7,450.7,381.1,443.1,378.1,423.2L378.1,423.2z"/>
</g>
</svg>
