<?xml version="1.0" encoding="utf-8"?>
<!-- Generator: Adobe Illustrator 23.1.0, SVG Export Plug-In . SVG Version: 6.00 Build 0)  -->
<svg version="1.1" id="Layer_1" xmlns="http://www.w3.org/2000/svg" xmlns:xlink="http://www.w3.org/1999/xlink" x="0px" y="0px"
	 viewBox="0 0 1024 1024" style="enable-background:new 0 0 1024 1024;" xml:space="preserve">
<style type="text/css">
	.st0{fill:#58C2F8;}
	.st1{fill:#FFFFFF;}
</style>
<g>
	<circle id="XMLID_1_" class="st0" cx="512" cy="512" r="443.9"/>
</g>
<g>
	<path id="XMLID_11_" class="st1" d="M513.7,873.6c-48.6,0-95.7-9.5-140.1-28.3c-42.8-18.1-81.3-44-114.4-77.1
		c-33-33-59-71.5-77.1-114.4c-18.8-44.5-28.4-91.6-28.4-140.2c0-48.6,9.5-95.7,28.3-140.1c18.1-42.8,44-81.3,77.1-114.4
		c33-33,71.5-59,114.4-77.1c44.5-18.8,91.6-28.4,140.2-28.4c48.6,0,95.7,9.5,140.1,28.3c42.8,18.1,81.3,44,114.4,77.1
		s59,71.5,77.1,114.4c18.8,44.4,28.3,91.6,28.3,140.1s-9.5,95.7-28.3,140.1c-18.1,42.8-44,81.3-77.1,114.4
		c-33,33-71.5,59-114.4,77.1C609.5,864.1,562.3,873.6,513.7,873.6z M513.7,240.5c-73,0-141.6,28.4-193.2,80s-80,120.2-80,193.2
		s28.4,141.6,80,193.2s120.2,80,193.2,80c73,0,141.6-28.4,193.2-80s80-120.2,80-193.2c0-73-28.4-141.6-80-193.2
		S586.7,240.5,513.7,240.5z"/>
	<path id="XMLID_10_" class="st1" d="M496.6,354c5.6-0.6,11.4-0.9,17.2-0.9c88.7,0,160.6,71.9,160.6,160.6s-71.9,160.6-160.6,160.6
		s-160.6-71.9-160.6-160.6c0-34.9,11.2-67.4,30.2-93.7l93.1,54.2c0,0,18.6,5.6,18.9-12.1L496.6,354z"/>
</g>
</svg>
