<?xml version="1.0" encoding="utf-8"?>
<!-- Generator: Adobe Illustrator 19.2.1, SVG Export Plug-In . SVG Version: 6.00 Build 0)  -->
<svg version="1.1" id="Layer_1" xmlns="http://www.w3.org/2000/svg" xmlns:xlink="http://www.w3.org/1999/xlink" x="0px" y="0px"
	 viewBox="0 0 1024 1024" enable-background="new 0 0 1024 1024" xml:space="preserve">
<circle id="XMLID_1_" fill="#184D8F" cx="512" cy="512" r="512"/>
<g id="XMLID_10_">
	<path id="XMLID_32_" fill="#FFFFFF" d="M222.2,481.2c2.5-12.8,4.9-25.1,7.3-37.6c6.1,0,12.1-0.3,18.1,0.1c6.7,0.5,9.9,4.7,8.7,11.9
		c-2.2,13-4.9,26-7.5,39c-4.4,21.6-8.8,43.1-13.2,64.7c-0.4,1.9-0.6,3.6-3,4.2c-16.8,4.7-33.8,8.5-51.4,4.9
		c-23.9-4.8-35.1-23.5-28.3-47c8.2-28.5,35.4-45.3,66.1-40.8C219.9,480.6,220.7,480.9,222.2,481.2z M218.6,496.1
		c-14.3-3-24.7,1.6-31.1,13.7c-3.9,7.4-6.2,15.3-6.4,23.7c-0.3,14.4,7.6,20.8,21.7,18.2c3.4-0.6,4.9-2,5.6-5.4
		C211.6,529.6,215.1,513,218.6,496.1z"/>
	<path id="XMLID_26_" fill="#63B848" d="M768.9,480.4c2.4,18.9,4.8,37.2,7.1,55.6c0.4,0,0.7,0,1.1,0.1c5.3-13.4,10.6-26.8,15.8-40.2
		c5.9-15.1,11.2-18,27.7-14.8c0.8,1.9-0.6,3.3-1.2,4.7c-11.5,26.5-23.2,52.9-34.7,79.4c-1.4,3.2-2.9,4.6-6.5,4.3
		c-3.8-0.3-7.6-0.3-11.4,0c-3.4,0.2-4.7-0.8-5.2-4.4c-2.2-16-4.8-32-7.2-48c-0.2-1.5-0.7-2.9-1.2-5.4c-6.3,13.8-12.3,26.7-18.2,39.7
		c-2.3,5-4.6,10-6.8,15c-0.8,1.9-1.8,3.1-4.2,3c-5.8-0.2-11.7-0.1-18.1-0.1c-3.5-29.5-7-58.8-10.5-88.3c5.1-0.7,9.7-1.2,14.3-0.3
		c6.4,1.2,9.1,4.5,9.6,10.9c1.1,12.7,2.2,25.4,3.3,38.1c0.1,1.7,0.5,3.3,1.1,6.3c4.7-10.7,8.9-20.2,13.1-29.7
		c3.2-7.4,6.5-14.8,9.6-22.3c1.2-2.9,2.8-3.9,5.8-3.7C757.7,480.6,763,480.4,768.9,480.4z"/>
	<path id="XMLID_25_" fill="#63B848" d="M459.9,523.8c10.5-9.4,19.8-20.1,29.3-30.5c7.6-8.4,15.7-14.2,27.7-12.7
		c3.9,0.5,7.8,0.1,12.8,0.1c-5.2,5.7-9.9,10.8-14.6,15.9c-7.7,8.3-15.3,16.8-23.3,24.9c-3,3.1-3.8,5.5-1.6,9.7
		c6.7,12.4,12.8,25,19.5,38.2c-8.4,0-16.1,0.3-23.7-0.1c-4.8-0.3-7.9-3.7-10-8c-4.8-9.7-9.6-19.4-14.4-29.1
		c-0.7-1.5-1.6-2.9-3.1-5.6c-2.2,10.5-4.1,19.8-6,29.1c-0.8,3.7-1.5,7.4-2.1,11.1c-0.3,1.8-1.1,2.7-3,2.7c-8.1-0.1-16.1,0-24.8,0
		c8.7-42.2,17.2-83.9,25.9-125.9c4.8,0,9.2-0.2,13.6,0c6.9,0.4,10.3,4,10.2,11c-0.1,7.6-2.5,14.9-3.8,22.3
		c-2.8,15.6-6.9,30.9-9,46.6c-0.1,0.3-0.3,0.6-0.4,1C459.8,524.6,459.8,524.1,459.9,523.8z"/>
	<path id="XMLID_17_" fill="#FFFFFF" d="M273.9,534.9c-0.7,10.4,4.5,16.1,14.7,16.8c8.5,0.6,16.8-0.9,24.9-3.5
		c3.5-1.1,7.2-3.2,10.4,0.7c1.5,1.9,1.7,12,0.5,14.2c-0.5,0.9-1.3,1-2.1,1.2c-15.4,4.2-30.9,7.3-46.9,4.5
		c-20.3-3.5-30.2-17.1-26.7-37.4c5.5-31.3,30-51.8,63.5-50.8c19.4,0.6,28.9,13.6,26.4,33.9c-2.1,16.9-2.2,16.9-19.2,17.5
		c-14.1,0.6-28.2,1.5-42.3,2.2C276.1,534.3,275.1,534.7,273.9,534.9z M277.6,519.3c12-0.7,23.9-1.5,35.9-2.3c0.9-0.1,1.9,0,2.6-1.1
		c5.1-7.6-0.2-19.9-9.1-20.9C295,493.6,278.8,506.7,277.6,519.3z"/>
	<path id="XMLID_22_" fill="#63B848" d="M592,569.1c-8.5,0-16.3,0-24.4,0c3.9-19,7.8-37.7,11.7-56.3c2.8-13.2,0-16.2-13.2-14
		c-8.4,1.4-8.4,1.4-10.1,9.8c-4.2,20-8.4,40-12.7,60.4c-8.6,0-17.3,0-26.5,0c2.5-12.7,5-25.2,7.5-37.8c2.6-13,5.4-25.9,7.8-39
		c0.8-4.1,2.2-6.3,6.7-7.4c13.8-3.3,27.6-5.7,41.9-4.6c12.4,1,20.6,6.8,23.3,16.3c1.1,4.1,0.8,8.2,0.4,12.3c-0.2,1.7-0.6,3.4-1,5.1
		C599.7,532.3,595.9,550.6,592,569.1z"/>
	<path id="XMLID_13_" fill="#63B848" d="M607,533.4c0.6-12.2,4-27.7,16.7-39.4c13.1-12.1,29-16.1,46.4-13.6
		c12.1,1.7,20.1,11.4,21.9,26c2.9,23.6-9.2,52.5-37,61c-7.5,2.3-15.2,2.8-23,1.6C616.3,566.5,606.3,553.9,607,533.4z M633.2,532.2
		c0,2-0.1,3.6,0,5.1c0.4,5.9,0.4,12.6,7.2,14.7c6.6,2.1,11.9-1.8,16.3-6.6c0.5-0.5,0.9-1.1,1.3-1.6c7.6-12.2,10.3-25.5,7.7-39.5
		c-1.6-8.7-8.6-11.5-16.4-7.2c-2.8,1.5-5,3.6-7,6.1C635.4,511.8,633.7,522,633.2,532.2z"/>
	<path id="XMLID_19_" fill="#FFFFFF" d="M326.7,569.4c13.5-15.7,26.2-30.4,38.9-45.3c-7.1-14.2-14.2-28.4-21.8-43.5
		c8.2,0.3,15.7-0.8,23,0.8c4,0.9,6.8,3.8,8.6,7.6c2.3,4.8,4.7,9.5,7.3,14.5c8.5-7.3,13-18.9,24.3-22c7.8-2.2,16-1,25.2-1.1
		c-13.2,15.4-25.8,30-38.6,44.8c7.3,14.5,14.5,28.9,22.1,43.9c-7.9,0-15,0.3-22.1-0.1c-4-0.2-6.8-3-8.7-6.6
		c-2.8-5.5-5.7-10.9-8.8-17c-4.1,4.8-8,9-11.6,13.6c-5.8,7.3-12.9,11-22.4,10.3C337.5,569.1,332.7,569.4,326.7,569.4z"/>
	<path id="XMLID_4_" fill="#63B848" d="M805.8,564.4c0.4-1.5,0.6-2.3,0.9-3.1c4.2-11.8,5.6-12.6,17.7-9.6c4.5,1.1,9.1,1.8,13.8,1.3
		c5-0.6,8.3-3.3,9.5-8.1c1.2-4.9-1.5-7.9-5.4-10c-3.6-2-7.2-4-10.9-5.8c-19.4-9.5-16.9-32.5-2-42.5c14.7-9.9,30.2-8.6,46.1-2.5
		c-0.7,3.9-2.3,7.2-4.1,10.5c-1.8,3.4-4.9,3.8-8.5,2.6c-5.1-1.7-10.2-2.9-15.7-1.5c-4.4,1.1-7.4,3.6-8.4,8.1
		c-1.1,4.6,0.9,8.2,4.5,10.7c3.9,2.8,8.2,5,12.4,7.5c8,4.8,14.6,10.4,14,21c-0.6,10.9-6.2,18.6-15.7,23.1
		C838,573.3,822.1,571.7,805.8,564.4z"/>
</g>
</svg>
