<?xml version="1.0" encoding="utf-8"?>
<!-- Generator: Adobe Illustrator 25.3.1, SVG Export Plug-In . SVG Version: 6.00 Build 0)  -->
<svg version="1.1" id="Layer_1" xmlns="http://www.w3.org/2000/svg" xmlns:xlink="http://www.w3.org/1999/xlink" x="0px" y="0px"
	 viewBox="0 0 277 72" style="enable-background:new 0 0 277 72;" xml:space="preserve">
<style type="text/css">
	.st0{fill:#67B64D;}
	.st1{fill:#373333;}
</style>
<rect x="1" y="0.9" class="st0" width="274.2" height="68.9"/>
<path class="st1" d="M0,0v72h277V0H0z M274,69H3V3h271V69z M96.2,26.4h-10V13.3h9.9v2.6h-7v2.7h6.2v2.6h-6.2v2.7h7.1V26.4z
	 M100.8,26.4H98V13.3h3.1l3.4,5.5l3.4-5.5h3.1v13.1h-2.9v-8.5l-3.7,5.6h-0.1l-3.6-5.5V26.4z M116.5,23.4h5.5l1.2,2.9h3l-5.6-13.2
	H118l-5.6,13.2h2.9L116.5,23.4z M119.3,16.7l1.7,4.2h-3.5L119.3,16.7z M130.5,26.4h-2.9V13.3h2.9V26.4z M142.4,26.4H133V13.3h2.9
	v10.5h6.5V26.4z M151.6,26.4h-2.9V13.3h10v2.6h-7.1v2.8h6.2v2.6h-6.2V26.4z M170.1,26.4h-10V13.3h9.9v2.6h-7v2.7h6.2v2.6H163v2.7
	h7.1V26.4z M181.9,26.4h-10V13.3h9.9v2.6h-7v2.7h6.2v2.6h-6.2v2.7h7.1V26.4z M195.8,19.8c0-3.7-2.8-6.5-6.9-6.5h-5.1v13.1h5.1
	C192.9,26.4,195.8,23.5,195.8,19.8z M186.6,15.9h2.2c2.4,0,3.9,1.6,3.9,3.9c0,2.4-1.6,3.9-3.9,3.9h-2.2V15.9z M208.7,22.8
	c0-1.8-0.9-2.7-2.4-3.2c0.9-0.5,1.7-1.3,1.7-2.8c0-0.9-0.3-1.7-0.9-2.3c-0.7-0.7-1.9-1.2-3.4-1.2h-6.1v13.1h6.2
	C206.8,26.4,208.7,25.2,208.7,22.8z M200.4,15.8h2.8c1.2,0,1.9,0.5,1.9,1.3c0,1-0.8,1.4-2.1,1.4h-2.7V15.8z M200.4,21h3.3
	c1.5,0,2.1,0.5,2.1,1.4c0,1-0.8,1.5-2,1.5h-3.4V21z M213.3,23.4h5.5l1.2,2.9h3l-5.6-13.2h-2.7l-5.6,13.2h2.9L213.3,23.4z
	 M216.1,16.7l1.7,4.2h-3.5L216.1,16.7z M222.9,19.8c0-3.7,2.8-6.8,6.8-6.8c2.5,0,3.8,0.9,5.1,2.1l-1.7,2c-1-0.9-1.9-1.5-3.4-1.5
	c-2.2,0-3.8,1.8-3.8,4.1c0,2.2,1.5,4.1,3.8,4.1c1.5,0,2.4-0.6,3.4-1.5l1.8,2c-1.3,1.4-2.8,2.2-5.4,2.2
	C225.8,26.6,222.9,23.6,222.9,19.8z M239.4,26.4h-2.9V13.3h2.9V19l5.3-5.7h3.5l-5.3,5.5l5.6,7.5H245l-4.1-5.6l-1.5,1.6V26.4z
	 M79.5,51.3H83c6.5,0,11.2-3.2,11.2-9.4c0-5.9-4.3-9.3-10.9-9.3H72.2v26.1h7.2V51.3z M79.5,38.7h3.4c2.6,0,4.2,1.2,4.2,3.4
	c0,2.1-1.6,3.5-4.1,3.5h-3.4V38.7z M119,41.6c0-2.7-0.8-4.7-2.3-6.2c-1.8-1.8-4.5-2.8-8.5-2.8H95.9v26.1h7.2v-7.9h3.2l5.3,7.9h8.4
	l-6.2-9.1C116.9,48.2,119,45.6,119,41.6z M107.9,45.1h-4.8v-6.3h4.7c2.4,0,3.9,1,3.9,3.1C111.8,43.9,110.3,45.1,107.9,45.1z
	 M121.4,32.6h7.3v26.1h-7.3V32.6z M137.9,32.6l5.9,16.5l5.9-16.5h8l-10.6,26.3h-6.7l-10.6-26.3H137.9z M161.9,32.4l-11.1,26.3h7.6
	l1.9-4.7h10.1l1.9,4.7h7.8l-11.1-26.3H161.9z M162.4,48.4l3-7.4l2.9,7.4H162.4z M174,32.6h22.9v6.4h-7.8v19.8h-7.2V38.9H174V32.6z
	 M205.8,52.6h14v6.2h-21.2V32.6h21v6.2h-13.9v4h12.6v5.7h-12.6V52.6z M229.3,52.4h12.7v6.4H222V32.6h7.2V52.4z M246.2,49l-9.9-16.4
	h8.3l5.4,9.5l5.4-9.5h8.1l-9.9,16.2v9.9h-7.3V49z M66.9,49.4c0,1.2,0,2.4,0,3.7c0.1,1.4-1.2,2.5-2.5,2.5c-5.6,0-11.2,0-16.7,0
	c-2.7,0-5.4,0-8.1,0c0,0,0,0,0,0c-8.2,0-16.4,0-24.6,0c-1.1,0-1.9-0.5-2.4-1.4c-0.1-0.2-0.2-0.5-0.2-0.8c0-1.3,0-2.6,0-3.9
	c0-0.3,0.2-0.6,0.4-0.8c3-3,6.1-6,9.1-9.1c1.5-1.5,2.9-2.9,4.4-4.4c0.4-0.4,0.5-0.4,1,0c2.6,2,5.3,4,7.9,6c1.3,1,2.6,2,3.9,3
	c0.3,0.3,0.6,0.3,0.9,0c3.3-2.6,6.7-5.1,10-7.7c0.6-0.5,1.3-1,1.9-1.5c0.3-0.2,0.6-0.3,0.9,0c4.5,4.5,9.1,9,13.6,13.5
	C66.7,48.8,66.9,49.1,66.9,49.4z M12.9,20.1c-0.5-0.4-0.7-1.5-0.3-2.2c0.5-0.9,1.3-1.4,2.4-1.4c3.2,0,6.4,0,9.6,0c5,0,10,0,14.9,0
	c0,0,0-0.1,0-0.1c8.1,0,16.3,0,24.4,0c0.7,0,1.3,0,1.9,0.4c0.9,0.6,1.1,1.5,1,2.6c0,0.2-0.3,0.5-0.5,0.6c-1.7,1.3-3.4,2.6-5.2,4
	c-3.5,2.7-7,5.4-10.5,8c-3.5,2.7-7.1,5.4-10.6,8.1c-0.3,0.3-0.6,0.2-0.9,0c-3.9-3-7.8-6-11.8-9C22.6,27.4,17.8,23.7,12.9,20.1z
	 M66.7,24c0.1,0.2,0.1,0.3,0.1,0.5c0,3.1,0,6.1,0,9.2c0,0,0,0,0,0c0,3,0,6,0,9.1c0,0.2-0.1,0.4-0.2,0.5c-0.2-0.1-0.3-0.2-0.5-0.3
	c-2.6-2.6-5.2-5.2-7.8-7.7c-0.8-0.8-1.6-1.6-2.4-2.4c-0.3-0.3-0.3-0.5,0.1-0.8c2.3-1.8,4.7-3.6,7-5.4c1.1-0.8,2.1-1.7,3.2-2.5
	C66.4,24.1,66.6,24.1,66.7,24z M12.5,42.9c0-3.1,0-6.1,0-9.2c0,0,0,0,0,0c0-3.1,0-6.1,0-9.2c0-0.2,0.1-0.3,0.1-0.5
	c0.1,0.1,0.3,0.1,0.4,0.2c1.9,1.5,3.9,2.9,5.8,4.4c1.5,1.1,3,2.3,4.5,3.4c0.4,0.3,0.4,0.4,0,0.8c-0.8,0.8-1.6,1.6-2.5,2.4
	c-2.6,2.6-5.3,5.3-7.9,7.9c-0.1,0.1-0.3,0.1-0.4,0.2C12.5,43.2,12.5,43,12.5,42.9z"/>
</svg>
