<?xml version="1.0" encoding="utf-8"?>
<!-- Generator: Adobe Illustrator 25.3.1, SVG Export Plug-In . SVG Version: 6.00 Build 0)  -->
<svg version="1.1" id="Layer_1" xmlns="http://www.w3.org/2000/svg" xmlns:xlink="http://www.w3.org/1999/xlink" x="0px" y="0px"
	 viewBox="0 0 284 93" style="enable-background:new 0 0 284 93;" xml:space="preserve">
<style type="text/css">
	.st0{fill:#D1D3D4;}
	.st1{fill:#FFFFFF;}
	.st2{fill:#373333;}
</style>
<polygon class="st0" points="284,0 0,0 0,93 284,93 "/>
<polyline class="st1" points="283,1 283,92 1,92 1,1 283,1 "/>
<polygon class="st2" points="100.36,36.87 90.41,36.87 90.41,23.8 100.27,23.8 100.27,26.35 93.27,26.35 93.27,29.01 99.43,29.01 
	99.43,31.57 93.27,31.57 93.27,34.31 100.36,34.31 "/>
<polygon class="st2" points="104.99,36.87 102.17,36.87 102.17,23.8 105.27,23.8 108.71,29.32 112.15,23.8 115.25,23.8 
	115.25,36.87 112.39,36.87 112.39,28.33 108.71,33.92 108.64,33.92 104.99,28.39 "/>
<path class="st2" d="M120.64,33.94h5.53l1.2,2.93h3.01l-5.6-13.17h-2.65l-5.6,13.17h2.93L120.64,33.94z M123.41,27.16l1.74,4.24
	h-3.47L123.41,27.16z"/>
<rect x="131.77" y="23.8" class="st2" width="2.88" height="13.07"/>
<polygon class="st2" points="146.57,36.87 137.17,36.87 137.17,23.8 140.05,23.8 140.05,34.25 146.57,34.25 "/>
<polygon class="st2" points="155.72,36.87 152.84,36.87 152.84,23.8 162.8,23.8 162.8,26.41 155.72,26.41 155.72,29.19 
	161.95,29.19 161.95,31.81 155.72,31.81 "/>
<polygon class="st2" points="174.3,36.87 164.35,36.87 164.35,23.8 174.21,23.8 174.21,26.35 167.2,26.35 167.2,29.01 173.37,29.01 
	173.37,31.57 167.2,31.57 167.2,34.31 174.3,34.31 "/>
<polygon class="st2" points="186.07,36.87 176.11,36.87 176.11,23.8 185.97,23.8 185.97,26.35 178.97,26.35 178.97,29.01 
	185.13,29.01 185.13,31.57 178.97,31.57 178.97,34.31 186.07,34.31 "/>
<path class="st2" d="M199.92,30.33c0-3.72-2.84-6.54-6.95-6.54h-5.1v13.07h5.1C197.08,36.87,199.92,34.01,199.92,30.33z
	 M190.75,26.39h2.22c2.35,0,3.94,1.62,3.94,3.94c0,2.35-1.59,3.94-3.94,3.94h-2.22V26.39z"/>
<path class="st2" d="M212.85,33.28c0-1.79-0.93-2.67-2.45-3.25c0.93-0.52,1.72-1.34,1.72-2.82c0-0.93-0.3-1.66-0.9-2.26
	c-0.75-0.75-1.92-1.16-3.42-1.16h-6.07v13.07h6.22C210.9,36.87,212.85,35.67,212.85,33.28z M204.54,26.32h2.84
	c1.21,0,1.89,0.49,1.89,1.34c0,1.01-0.8,1.42-2.07,1.42h-2.65V26.32z M204.54,31.47h3.33c1.47,0,2.13,0.54,2.13,1.42
	c0,1.01-0.77,1.46-2.04,1.46h-3.42V31.47z"/>
<path class="st2" d="M217.48,33.94h5.53l1.2,2.93h3.01l-5.6-13.17h-2.65l-5.6,13.17h2.93L217.48,33.94z M220.24,27.16l1.74,4.24
	h-3.47L220.24,27.16z"/>
<path class="st2" d="M227.06,30.33c0-3.72,2.8-6.76,6.82-6.76c2.47,0,3.85,0.93,5.06,2.13l-1.72,1.98
	c-1.01-0.92-1.87-1.46-3.36-1.46c-2.2,0-3.79,1.83-3.79,4.11c0,2.24,1.55,4.11,3.79,4.11c1.49,0,2.41-0.6,3.44-1.53l1.83,1.96
	c-1.34,1.44-2.84,2.22-5.36,2.22C229.92,37.09,227.06,34.12,227.06,30.33z"/>
<polygon class="st2" points="243.55,36.87 240.67,36.87 240.67,23.8 243.55,23.8 243.55,29.51 248.85,23.8 252.33,23.8 
	247.01,29.34 252.57,36.87 249.12,36.87 245.06,31.3 243.55,32.87 "/>
<path class="st2" d="M83.61,61.77h3.59c6.5,0,11.24-3.25,11.24-9.41c0-5.86-4.26-9.26-10.87-9.26H76.36v26.15h7.25V61.77z
	 M83.61,49.18h3.4c2.62,0,4.18,1.2,4.18,3.44c0,2.13-1.57,3.47-4.15,3.47h-3.44V49.18z"/>
<path class="st2" d="M123.2,52.1c0-2.65-0.78-4.67-2.32-6.2c-1.76-1.76-4.52-2.8-8.52-2.8h-12.36v26.15h7.25v-7.92h3.18l5.27,7.92
	h8.37l-6.24-9.11C121.07,58.75,123.2,56.09,123.2,52.1z M112.04,55.65h-4.78v-6.28H112c2.43,0,3.92,1.05,3.92,3.1
	C115.92,54.45,114.5,55.65,112.04,55.65z"/>
<rect x="125.52" y="43.09" class="st2" width="7.28" height="26.15"/>
<polygon class="st2" points="142.1,43.09 148.04,59.64 153.98,43.09 161.94,43.09 151.33,69.43 144.6,69.43 134,43.09 "/>
<path class="st2" d="M166.05,42.91l-11.13,26.33h7.62l1.87-4.67h10.09l1.9,4.67h7.77l-11.13-26.33H166.05z M166.53,58.93l2.95-7.43
	l2.91,7.43H166.53z"/>
<polygon class="st2" points="178.15,43.09 201.08,43.09 201.08,49.44 193.24,49.44 193.24,69.24 185.99,69.24 185.99,49.44 
	178.15,49.44 "/>
<polygon class="st2" points="209.93,63.08 223.98,63.08 223.98,69.24 202.76,69.24 202.76,43.09 223.79,43.09 223.79,49.26 
	209.93,49.26 209.93,53.22 222.48,53.22 222.48,58.93 209.93,58.93 "/>
<polygon class="st2" points="233.43,62.89 246.09,62.89 246.09,69.24 226.18,69.24 226.18,43.09 233.43,43.09 "/>
<polygon class="st2" points="250.39,59.46 240.45,43.09 248.7,43.09 254.08,52.62 259.5,43.09 267.6,43.09 257.67,59.34 
	257.67,69.24 250.39,69.24 "/>
<path class="st2" d="M71.04,59.94c0.04,1.22-0.04,2.44,0.03,3.66c0.08,1.44-1.24,2.48-2.5,2.48c-5.58,0-11.15,0.01-16.73,0.01
	c-2.69,0-5.39,0-8.08,0c0,0.01,0,0.01,0,0.02c-8.19,0-16.38-0.01-24.57,0.01c-1.11,0-1.88-0.46-2.35-1.43
	c-0.12-0.25-0.19-0.54-0.19-0.82c-0.02-1.3-0.04-2.6,0-3.9c0.01-0.29,0.2-0.63,0.42-0.85c3.02-3.03,6.06-6.04,9.1-9.05
	c1.46-1.45,2.92-2.9,4.38-4.35c0.42-0.42,0.51-0.42,1-0.05c2.64,2.01,5.29,4.02,7.94,6.04c1.3,0.99,2.59,1.97,3.88,2.97
	c0.33,0.25,0.61,0.27,0.94,0.02c3.34-2.57,6.68-5.13,10.02-7.69c0.63-0.48,1.26-0.96,1.88-1.45c0.31-0.24,0.56-0.26,0.87,0.04
	c4.54,4.49,9.09,8.97,13.61,13.47C70.89,59.28,71.03,59.64,71.04,59.94z"/>
<path class="st2" d="M17.06,30.55c-0.52-0.4-0.67-1.51-0.28-2.22c0.51-0.94,1.3-1.37,2.37-1.37c3.22,0.01,6.43-0.01,9.65-0.01
	c4.98,0,9.95,0,14.93,0c0-0.03,0-0.05,0-0.08c8.14,0,16.29,0,24.43,0c0.65,0,1.29,0.04,1.86,0.44c0.91,0.64,1.12,1.54,0.97,2.55
	c-0.03,0.24-0.3,0.47-0.52,0.64c-1.71,1.33-3.44,2.64-5.16,3.96c-3.49,2.67-6.98,5.35-10.47,8.02c-3.52,2.69-7.05,5.38-10.57,8.08
	c-0.35,0.27-0.57,0.24-0.9-0.02c-3.91-2.99-7.83-5.97-11.75-8.95C26.76,37.93,21.91,34.24,17.06,30.55z"/>
<path class="st2" d="M70.88,34.51c0.05,0.16,0.15,0.31,0.15,0.47c0.01,3.06,0.01,6.11,0.01,9.17c0,0,0.01,0,0.01,0
	c0,3.02,0,6.05-0.01,9.07c0,0.18-0.12,0.36-0.18,0.54c-0.15-0.1-0.33-0.17-0.45-0.29c-2.62-2.58-5.23-5.17-7.84-7.75
	c-0.81-0.8-1.63-1.6-2.43-2.4c-0.34-0.34-0.34-0.5,0.05-0.8c2.33-1.79,4.67-3.57,7.01-5.36c1.08-0.83,2.15-1.67,3.23-2.49
	C70.55,34.58,70.73,34.56,70.88,34.51z"/>
<path class="st2" d="M16.62,53.37c-0.01-3.06-0.01-6.12-0.01-9.18c-0.01,0-0.01,0-0.02,0c0-3.06,0-6.12,0.01-9.18
	c0-0.16,0.09-0.31,0.14-0.47c0.15,0.06,0.32,0.1,0.44,0.2c1.93,1.46,3.85,2.93,5.78,4.4c1.5,1.14,2.99,2.28,4.49,3.43
	c0.39,0.29,0.4,0.44,0.05,0.79c-0.82,0.82-1.64,1.63-2.46,2.45c-2.64,2.63-5.27,5.26-7.91,7.89c-0.1,0.1-0.26,0.14-0.38,0.2
	C16.7,53.72,16.62,53.55,16.62,53.37z"/>
</svg>
