<?xml version="1.0" encoding="utf-8"?>
<!-- Generator: Adobe Illustrator 25.3.1, SVG Export Plug-In . SVG Version: 6.00 Build 0)  -->
<svg version="1.1" id="Layer_1" xmlns="http://www.w3.org/2000/svg" xmlns:xlink="http://www.w3.org/1999/xlink" x="0px" y="0px"
	 viewBox="0 0 300 300" style="enable-background:new 0 0 300 300;" xml:space="preserve">
<style type="text/css">
	.st0{fill:#373434;}
</style>
<g>
	<path class="st0" d="M265.9,207c0-1.3-0.6-2.8-1.5-3.7c-19.2-19.1-38.5-38.1-57.7-57.1c-1.3-1.3-2.4-1.2-3.7-0.2
		c-2.6,2.1-5.3,4.1-8,6.1c-14.2,10.9-28.3,21.7-42.5,32.6c-1.4,1.1-2.6,1-4-0.1c-5.5-4.2-10.9-8.4-16.4-12.6
		c-11.2-8.5-22.4-17-33.6-25.6c-2-1.6-2.4-1.6-4.2,0.2c-6.2,6.2-12.4,12.3-18.6,18.5c-12.9,12.8-25.7,25.5-38.5,38.4
		c-0.9,0.9-1.7,2.4-1.8,3.6c-0.2,5.5-0.1,11,0,16.5c0,1.2,0.3,2.4,0.8,3.5c2,4.1,5.3,6.1,10,6.1c34.7-0.1,69.4,0,104.1,0
		c0,0,0-0.1,0-0.1c11.4,0,22.8,0,34.2,0c23.6,0,47.3,0,70.9,0c5.3,0,10.9-4.4,10.6-10.5C265.7,217.3,266.1,212.2,265.9,207z"/>
	<path class="st0" d="M98.9,129.3c16.6,12.6,33.2,25.2,49.8,37.9c1.4,1.1,2.4,1.2,3.8,0.1c14.9-11.5,29.8-22.8,44.8-34.2
		c14.8-11.3,29.6-22.7,44.4-34c7.3-5.6,14.6-11.2,21.9-16.8c0.9-0.7,2-1.7,2.2-2.7c0.6-4.3-0.3-8.1-4.1-10.8
		c-2.4-1.7-5.1-1.9-7.9-1.9c-34.5,0-69,0-103.5,0c0,0.1,0,0.2,0,0.3c-21.1,0-42.2,0-63.2,0c-13.6,0-27.3,0.1-40.9,0
		c-4.5,0-7.9,1.8-10,5.8c-1.6,3-1,7.7,1.2,9.4C57.8,98.1,78.3,113.7,98.9,129.3z"/>
	<path class="st0" d="M263.3,99.9c-4.6,3.5-9.1,7.1-13.7,10.6c-9.9,7.6-19.8,15.1-29.7,22.7c-1.7,1.3-1.7,1.9-0.2,3.4
		c3.4,3.4,6.9,6.8,10.3,10.2c11.1,10.9,22.1,21.9,33.2,32.8c0.5,0.5,1.3,0.8,1.9,1.2c0.3-0.8,0.8-1.5,0.8-2.3c0-12.8,0-25.6,0-38.4
		c0,0,0,0-0.1,0c0-12.9,0-25.9,0-38.8c0-0.7-0.4-1.3-0.6-2C264.6,99.5,263.8,99.5,263.3,99.9z"/>
	<path class="st0" d="M35.9,181.4c0.5-0.3,1.2-0.4,1.6-0.9c11.2-11.1,22.4-22.3,33.5-33.4c3.5-3.5,7-6.9,10.4-10.4
		c1.5-1.5,1.4-2.1-0.2-3.3c-6.3-4.8-12.7-9.7-19-14.5c-8.2-6.2-16.3-12.4-24.5-18.6c-0.5-0.4-1.3-0.6-1.9-0.8
		c-0.2,0.7-0.6,1.3-0.6,2c0,13,0,25.9,0,38.9c0,0,0,0,0.1,0c0,13,0,25.9,0,38.9C35.3,179.9,35.7,180.7,35.9,181.4z"/>
</g>
</svg>
