<svg id="Layer_1" data-name="Layer 1" xmlns="http://www.w3.org/2000/svg" viewBox="0 0 1024 1024"><defs><style>.cls-1{fill:#f0f2f4;}.cls-2{fill:#66c904;}.cls-3{fill:#66c905;}.cls-4{fill:#08086a;}.cls-5{fill:#070769;}.cls-6{fill:#050568;}.cls-7{fill:#13136f;}.cls-8{fill:#141a68;}.cls-9{fill:#101468;}.cls-10{fill:#181872;}.cls-11{fill:#15186d;}.cls-12{fill:#3d447e;}</style></defs><title>ezlocal</title><circle id="_Path_" data-name="&lt;Path&gt;" class="cls-1" cx="512" cy="512" r="512"/><path class="cls-2" d="M117.15,590.81c-12.89-6.47-19.11-18.38-24-30.86-11.29-28.83-7.7-73.56,26.2-94.58,30.13-18.68,76.58-13.1,98.65,12.44A73.53,73.53,0,0,1,236.3,522c-.63,16-.64,15.88-16.37,16-25.52.21-51.06-.65-76.55,2-8.08.85-10.09,3.09-5.2,9.89.64,15,1.45,15.93,15.08,16.51,5.55.24,11.18-.38,16.64.37,7.05,1,11.54,0,11.06-8.55-.27-4.81,3.08-5.95,7.38-6,12.59-.15,25.19-.34,37.76-.95,5.83-.28,7,2.4,6.24,7.28-6,16.51-16.43,29-33.07,35.66-12.64,5-25.84,6.3-39.38,6.05-14.63-.26-28-6.42-42.28-8.15l.15.21A2.56,2.56,0,0,1,117.15,590.81Zm66.64-96.14c1.37-5.72-.54-8.26-6.74-7.89-7.38.44-14.81,0-22.19.41-3.59.21-10.23-2.19-9.82,3.54.53,7.44-5.77,16.43,3.57,22.5,6.28.15,12.55.41,18.83.43C186.75,513.72,186.75,513.68,183.79,494.68Z" transform="translate(0 0)"/><path class="cls-3" d="M249.55,592.27c-6.71-7.72-5.17-24.3,3.06-32.18q31.7-30.37,63.45-60.68c2.59-2.15,6.08-3.6,7.07-8.59-23.14.67-45.26-.24-67.22,3.18-6.47-1.37-3.72-6.41-3.57-9.92,1.15-26.3,1.24-26,27.38-25.8,30.81.19,61.62-.18,92.42-.56,5.68-.07,10.25.25,10.63,7.32a4.82,4.82,0,0,0,.25,1.46c-2.13,3-1.66,6.6-1.21,9.76,2.11,14.8-4.3,25-15.12,34.67-15.44,13.84-29.36,29.38-45.08,45.37l12-.55c15.52-.14,31.06.2,46.54-.63,6.87-.37,7.38,2.65,6.91,7.7-.29,7.41-1,14.83-.76,22.22.16,5.83-1.73,7.88-7.67,7.47-10-.7-20-.77-30.07-1C315.59,590.79,282.55,589.45,249.55,592.27Z" transform="translate(0 0)"/><path class="cls-4" d="M793.83,553.64a116.76,116.76,0,0,0,2.33,37.76c1.32,6-.2,7.85-6.53,7.47s-12.58.76-18.87,1.32c-2.54.23-6.45,2-7.34-.3-4.75-12.17-11.42-4.21-17.43-2.06-11.06,4-22.3,5.9-34,3.84-13.61-2.39-20.93-9.73-21.7-21.63-1-16.24,6.22-29.23,19.08-32.82,14.39-4,29.24-5.53,44.1-6.79,3.63-.31,8.72,1.31,8.77-5.49,0-5.68-1.76-9.27-7.87-10-5.9-.69-11.75-1.81-17.65-2.51-3.27-.39-6.24.46-5.75,4.65.86,7.46-3.52,7.41-9,7a163.45,163.45,0,0,0-20.09-.22c-6.82.38-7.53-3-6-8.24,2.77-9.32,9.66-14.92,18-18.69,18.45-8.31,37.57-9,56.7-3,15.52,4.85,22.7,15.3,23.12,31.77C794,541.72,793.83,547.68,793.83,553.64ZM738.9,578.81c10.86,1.7,16.51-1.79,15.22-13.58-.47-4.32-.66-6.66-6.17-6.21-16.65,1.36-20.66,3.94-21,13.19C726.53,583.4,734.32,578.19,738.9,578.81Z" transform="translate(0 0)"/><path class="cls-5" d="M513.76,500.38c30.84.08,53.47,23.39,53.7,55.3.2,26.69-22.33,47-52.07,46.91-31.09-.07-52.18-21.66-52.16-53.38C463.25,519.3,482.92,500.29,513.76,500.38Zm6.68,73.84c7,1.63,9.84-1.06,8.62-9.39a218.53,218.53,0,0,1-2.19-28.88c-.11-8.21-2.74-10.27-11.28-9.64-10.53.77-16.9,3.18-15.82,15.13.26,2.88-.8,5.87-1.13,8.82C496.12,572.61,496.82,573.4,520.44,574.21Z" transform="translate(0 0)"/><path class="cls-5" d="M619,550.43c0,2.61,0,5.22,0,7.82.26,16.76,4.09,19.77,20.75,16.65,2.77-.52,5.6-1,5.41-4.31-.53-8.82,5.29-8,11-7.83,4.47.15,8.94,0,13.41,0,14.13,0,15.24,1.82,9.43,15.13a38.1,38.1,0,0,1-11.58,14.81c-16.56,13.06-48.32,13.09-67.58.12-18.81-12.67-26.38-35.18-19.57-58.27,4.41-15,13.91-25.31,28.63-30.5,16.88-6,33.74-5,50.2,1.6a37,37,0,0,1,17,14c4.47,6.67,8.94,14.94,5.83,21.75-2.46,5.39-11.51.95-17.58,1.73-9.92,1.29-18,0-16.37-13.32.45-3.73-2-5.31-5.61-5a8.77,8.77,0,0,1-1.12.06C619,524.1,619,524.1,619,550.43Z" transform="translate(0 0)"/><path class="cls-5" d="M849.54,529.55c-2,19-.91,38,.1,56.91.48,9-1.15,13.5-11.24,11.27a37.94,37.94,0,0,0-12.23-.66c-11.16,1.26-14.27-3-14-14.34,1-37.58.8-75.19.59-112.78,0-7.45,1.33-10.21,9.65-9.93,28.17.95,28.18.58,27.59,28.23-.15,7.07-.38,14.14-.46,21.22C849.48,516.16,849.54,522.85,849.54,529.55Z" transform="translate(0 0)"/><path class="cls-6" d="M449.22,529.87c-2.74,20.13-1,40.23-.33,60.32.21,6.39-1.54,8.95-8.14,7.77a97,97,0,0,0-12.26-.89c-17.42-.87-17-.85-16.82-17.83.44-36.52.65-73,.4-109.57-.05-7.8,1.84-9.93,9.84-9.63,27.87,1.06,27.79.72,27.34,28.47C449,502.29,449.22,516.08,449.22,529.87Z" transform="translate(0 0)"/><path class="cls-3" d="M876.55,601.12c-10.46-10.32-12.77-19.69-7.51-30.45,6.28-12.85,22.29-20.88,37.23-18.68,11.4,1.68,17.62,8.07,19.76,20.3C923.76,588.89,913.37,598,897.74,601c-6.78,1.3-14.06.05-21.11,0l.08.25Z" transform="translate(0 0)"/><path class="cls-7" d="M921.29,424.15c-3.75,2-12.21-5.06-12.87,3.3-.51,6.45,8.46,2.76,12.77,4.84,3.53,1.71,8.62-1.11,11.17,3.09s-2.12,10.93-7,10.6-9.61-1.11-14.42-1.66c-2.47-.28-4.34.27-4.78,3.21s1.17,4.16,3.6,4.52a133.59,133.59,0,0,0,13.3,1.55c5.54.26,8.05,2.32,7.25,8.31-.84,6.26-4.67,4.23-8.22,3.71-2.95-.43-6.25,0-8.8-1.23-6.36-3-19,4-18.67-7.87.18-7.05-6.58-16.12,2.55-22.42,2.74-1.89.35-3.75-.14-5.71-3.18-12.87,1.31-18.32,14.62-17.54,5.57.32,11.11,1.17,16.65,1.87,3.83.48,8.43-.61,7.49,6.42-.77,5.79-3.35,6.61-8.14,5.54A51.14,51.14,0,0,0,921.29,424.15Z" transform="translate(0 0)"/><path class="cls-8" d="M249.55,592.27c33-2.82,66-1.48,99.06-.75,10,.22,20.07.29,30.07,1,5.94.41,7.83-1.64,7.67-7.47-.21-7.39.47-14.81.76-22.22,3.45.09,4.17,2.08,4,5.18-.36,8.55-.87,17.12-.6,25.66.2,6.17-2.37,7.41-8,7.24-30.87-.92-61.75-1.53-92.63-2.24-4.17-3.62-9.18-1.44-13.79-2-8.67-1-17.68,2.06-26.08-2.22Z" transform="translate(0 0)"/><path class="cls-8" d="M117.61,592.13c14.28,1.73,27.65,7.89,42.28,8.15,13.54.24,26.73-1,39.38-6.05,16.64-6.63,27-19.14,33.07-35.66,6.74,0,4.55,4.45,3.63,7.73-4.6,16.4-14.73,28.61-30.39,34.95-28.9,11.69-57.42,9.65-85-4.95C119.14,595.52,117.36,594.41,117.61,592.13Z" transform="translate(0 0)"/><path class="cls-7" d="M896.81,500.19c-7.34-5.22-11.7-12-7.53-20.86,4.42-9.42,13.23-11.12,22.66-10.29,9.07.8,15.56,5.28,17.18,14.56,1.72,9.79-4.37,15-12.47,18.49C909.91,502.86,903.36,501.56,896.81,500.19Zm11-18.78c-4,.21-9.4-2-8.74,4.08.71,6.54,7.6,4.29,11.75,5.8s6.71-1.15,6.61-5C917.27,478.55,910.42,483.73,907.84,481.41Z" transform="translate(0 0)"/><path class="cls-9" d="M138.18,549.9c-4.89-6.8-2.88-9,5.2-9.89,25.49-2.69,51-1.83,76.55-2,15.73-.13,15.74,0,16.37-16,5.81,5.73,3.59,13.2,3.8,19.91.19,5.92-5.33,3.86-8.55,3.88-26.8.15-53.61-.42-80.36,1.88C146.8,548,142.27,547.71,138.18,549.9Z" transform="translate(0 0)"/><path class="cls-10" d="M918.65,508.15c7.26,6.15,8.86,13.84,4.2,21.81-5.5,9.39-14.89,10.31-24.45,8.17-8.13-1.82-14.37-6.5-14.8-15.64s3.81-15.57,13.1-18c2.11.84,6-1.07,5.93,3.06-.07,3.09.19,7.12-4.41,7.85-4.91.78-5.61,4.86-3.27,7.15,4.5,4.42,11.1,3.94,16.69,2.51,3.18-.81,3.23-4.44.17-7s-2.13-6.43-.92-9.28C912.64,504.65,916,508.25,918.65,508.15Z" transform="translate(0 0)"/><path class="cls-8" d="M333.66,555.74l-12,.55c15.72-16,29.63-31.53,45.08-45.37,10.82-9.7,17.23-19.87,15.12-34.67-.45-3.16-.92-6.73,1.22-9.76,2.73,8.88-.92,18.29,2.24,27.14,1.72,7.33-1.34,12.38-6.66,17.46C363.33,525.66,348.61,540.82,333.66,555.74Z" transform="translate(0 0)"/><path class="cls-8" d="M255.92,494c22-3.43,44.08-2.52,67.22-3.18-1,5-4.48,6.44-7.07,8.59-17.71.57-35.44.82-53.12,1.9C256.63,501.68,254.87,499.71,255.92,494Z" transform="translate(0 0)"/><path class="cls-8" d="M876.63,601c7.05.09,14.33,1.34,21.11,0,15.63-3,26-12.12,28.29-28.73,6.46,3.94,2.78,10.51,1.83,14.4-2.79,11.42-12.18,17.88-23.08,20.49C894.88,609.54,884.19,611.2,876.63,601Z" transform="translate(0 0)"/><path class="cls-11" d="M250.09,594.49c8.4,4.28,17.41,1.25,26.08,2.22,4.61.51,9.62-1.67,13.79,2l-35.26.94C251.17,599.7,248.82,598.72,250.09,594.49Z" transform="translate(0 0)"/><path class="cls-12" d="M385.28,493.63c-3.16-8.85.49-18.26-2.24-27.14a4.64,4.64,0,0,1-.25-1.46C390.12,474,385.16,484,385.28,493.63Z" transform="translate(0 0)"/><path class="cls-8" d="M117.15,590.81a2.56,2.56,0,0,0,.6,1.52A1.53,1.53,0,0,1,117.15,590.81Z" transform="translate(0 0)"/><path class="cls-8" d="M876.55,601.12l.16.1Z" transform="translate(0 0)"/><path class="cls-11" d="M183.79,494.68c-5.84.17-11.67.41-17.51.48-17.71.23-17.72.2-17.67,18.07-9.34-6.06-3-15.05-3.57-22.5-.41-5.72,6.23-3.33,9.82-3.54,7.38-.43,14.81,0,22.19-.41C183.25,486.42,185.15,489,183.79,494.68Z" transform="translate(0 0)"/></svg>