<?xml version="1.0" encoding="utf-8"?>
<!-- Generator: Adobe Illustrator 25.3.1, SVG Export Plug-In . SVG Version: 6.00 Build 0)  -->
<svg version="1.1" id="Layer_1" xmlns="http://www.w3.org/2000/svg" xmlns:xlink="http://www.w3.org/1999/xlink" x="0px" y="0px"
	 viewBox="0 0 284 93" style="enable-background:new 0 0 284 93;" xml:space="preserve">
<style type="text/css">
	.st0{fill:#D1D3D4;}
	.st1{fill:#FFFFFF;}
	.st2{fill:#231F20;}
	.st3{fill:#34478D;}
</style>

<polygon class="st0" points="284,0 0,0 0,93 284,93 284,0 "/>
<polyline class="st1" points="283,1 283,92 1,92 1,1 283,1 "/>
<g>
	<path class="st2" d="M61.7,14.9h1.1V20h3.2v1h-4.2V14.9z"/>
	<path class="st2" d="M69.6,14.9h4.5v0.9h-3.4v1.6h3v0.9h-3V20h3.4V21h-4.5V14.9z"/>
	<path class="st2" d="M80.1,14.9h1l2.6,6.1h-1.1L82,19.5h-2.8L78.5,21h-1.1L80.1,14.9z M81.6,18.6l-1-2.4l-1,2.4H81.6z"/>
	<path class="st2" d="M85.9,14.9h1.2l1.8,4.6l1.8-4.6h1.1L89.4,21h-0.9L85.9,14.9z"/>
	<path class="st2" d="M95.5,14.9h4.5v0.9h-3.4v1.6h3v0.9h-3V20h3.4V21h-4.5V14.9z"/>
	<path class="st2" d="M110.7,18.6l-2.4-3.6h1.2l1.7,2.7l1.7-2.7h1.2l-2.4,3.6V21h-1.1V18.6z"/>
	<path class="st2" d="M116.9,17.9c0-1.7,1.3-3.1,3.2-3.1s3.1,1.4,3.1,3.1c0,1.7-1.3,3.1-3.2,3.1C118.2,21.1,116.9,19.7,116.9,17.9z
		 M122.1,17.9c0-1.2-0.9-2.1-2-2.1c-1.2,0-2,1-2,2.1c0,1.2,0.9,2.1,2,2.1C121.2,20.1,122.1,19.1,122.1,17.9z"/>
	<path class="st2" d="M127,18.4v-3.5h1.1v3.4c0,1.1,0.6,1.7,1.5,1.7c0.9,0,1.5-0.6,1.5-1.7v-3.5h1.1v3.4c0,1.8-1,2.7-2.6,2.7
		C127.9,21,127,20.1,127,18.4z"/>
	<path class="st2" d="M136.1,14.9h2.7c1.4,0,2.2,0.8,2.2,1.9c0,1-0.6,1.6-1.4,1.8l1.6,2.3H140l-1.5-2.1h-1.3V21h-1.1V14.9z
		 M138.7,17.9c0.8,0,1.2-0.4,1.2-1c0-0.6-0.5-1-1.2-1h-1.5v2H138.7z"/>
	<path class="st2" d="M150.1,14.9h2.7c1.4,0,2.2,0.8,2.2,1.9c0,1-0.6,1.6-1.4,1.8l1.6,2.3h-1.2l-1.5-2.1h-1.3V21h-1.1V14.9z
		 M152.7,17.9c0.8,0,1.2-0.4,1.2-1c0-0.6-0.5-1-1.2-1h-1.5v2H152.7z"/>
	<path class="st2" d="M158.9,14.9h4.5v0.9h-3.4v1.6h3v0.9h-3V20h3.4V21h-4.5V14.9z"/>
	<path class="st2" d="M166.7,14.9h1.2l1.8,4.6l1.8-4.6h1.1l-2.5,6.1h-0.9L166.7,14.9z"/>
	<path class="st2" d="M176.3,14.9h1.1v6h-1.1V14.9z"/>
	<path class="st2" d="M181.5,14.9h4.5v0.9h-3.4v1.6h3v0.9h-3V20h3.4V21h-4.5V14.9z"/>
	<path class="st2" d="M189.4,14.9h1.1l1.4,4.5l1.5-4.5h0.9l1.5,4.5l1.4-4.5h1.1l-2.1,6.1h-0.9l-1.5-4.3l-1.5,4.3h-0.9L189.4,14.9z"
		/>
	<path class="st2" d="M206.9,17.9c0-1.7,1.3-3.1,3.2-3.1c1.8,0,3.1,1.4,3.1,3.1c0,1.7-1.3,3.1-3.2,3.1S206.9,19.7,206.9,17.9z
		 M212.1,17.9c0-1.2-0.9-2.1-2-2.1s-2,1-2,2.1c0,1.2,0.9,2.1,2,2.1C211.3,20.1,212.1,19.1,212.1,17.9z"/>
	<path class="st2" d="M217.1,14.9h1l3.2,4.2v-4.2h1v6h-0.9l-3.3-4.3V21h-1V14.9z"/>
</g>
<g>
	<path class="st3" d="M75.6,49.3c-3.4-0.5-6.9-0.5-10.4-0.6c-3.1-0.1-3.1,0-3.3,3c-0.1,1.2-0.2,2.4-0.3,3.7c2.8,0,5.3,0,7.8,0
		c3.5,0,4.3,0.9,4.3,4.4c0,0.9-0.3,1.2-1.2,1.2c-2.3,0-4.6,0-6.9,0c-3.5,0.1-6,1.9-6.6,5c-0.3,1.3-0.2,2.7-0.1,4
		c0.2,3.3,2.6,5.8,5.8,6.4c3,0.5,5.9-0.1,8.7-1.3c0.4-0.2,0.8-0.4,1.2-0.5c0,0.1,0,0.3,0,0.4c0.5,0.4,0.9,1.2,1.4,1.2
		c1.7,0.2,3.4,0.1,5.1,0c0.3,0,0.8-0.5,0.8-0.8c0-6.5,0-13-0.3-19.5C81.4,52.2,79.2,49.8,75.6,49.3z M72.7,70.1
		c-1.2,0.3-2.4,0.7-3.5,0.7c-1.5,0.1-2.3-0.9-2.4-2.4c0-1.5,0.6-2.2,2.2-2.3c0.6-0.1,1.3,0,1.9,0c0,0,0,0,0,0c0.1,0,0.2,0,0.3,0
		c2.8,0.1,2.5-0.5,2.5,2.6C73.6,69.5,73.4,70,72.7,70.1z"/>
	<path class="st3" d="M53.5,48.7c-0.6,0-1.1,0-1.1-0.9c0-1.4,0-2.7,0-4.1c0.1-1.1,0.7-1.7,1.8-1.9c1.2-0.1,2.4-0.2,3.5-0.2
		c0.7,0,1.1-0.2,1.1-1c0-1.5,0-3.1,0-4.6c0-0.8-0.3-1-1.1-1c-2.1,0-4.3,0-6.4,0.1c-3.7,0.2-6.2,2.3-6.8,5.8c-0.3,1.5-0.3,3-0.3,4.5
		c0,3.1,0,3.1-3.1,3.2c0,0-0.1,0-0.1,0c-0.7-0.1-1,0.3-1,1c0,1.6,0,3.1,0,4.7c0,0.8,0.3,1.1,1.1,1c1,0,2,0,3.1,0c0,0.6,0,1.1,0,1.6
		c0,5.9,0,11.9,0,17.8c0,1.1,0.3,1.4,1.4,1.4c1.8-0.1,3.6-0.1,5.4,0c1.3,0.1,1.6-0.4,1.5-1.6c-0.1-6,0-12,0-18
		c0-0.9,0.3-1.3,1.2-1.2c1.2,0.1,2.4,0.1,3.6,0c0.3,0,0.9-0.4,0.9-0.7c0.3-1.9,0.5-3.8,0.7-6C57,48.7,55.3,48.7,53.5,48.7z"/>
	<path class="st3" d="M105.2,49.2c-3.4-0.9-6.9-1.1-10.5-0.7c-5.4,0.5-9.2,4.2-9.5,9.1c-0.2,3.1-0.2,6.3,0,9.4
		c0.2,4.4,2.8,7.5,7,8.8c4.4,1.3,8.7,0.7,13.1-0.2c0.2-0.1,0.6-0.4,0.6-0.6c0-1.9,0-3.8,0-5.9c-0.6,0.1-1,0.1-1.4,0.1
		c-2.5,0.2-5.1,0.5-7.6,0.6c-2.5,0-3.8-1.2-3.8-3.3c-0.1-2.7-0.1-5.4,0-8.2c0-1.7,1-2.8,2.6-3.1c1.1-0.2,2.2-0.2,3.3-0.1
		c2.2,0.2,4.4,0.4,6.8,0.7c0-1.9,0-3.8,0-5.7C106,49.8,105.6,49.3,105.2,49.2z"/>
	<path class="st3" d="M132.8,57.2c-0.2-4-2.6-7.2-6.5-8.1c-2.6-0.6-5.5-0.7-8.2-0.5c-4.8,0.3-8.4,3.5-8.8,7.9
		c-0.3,3.4-0.3,6.9,0,10.4c0.4,5.1,3.2,8.2,8.2,9.3c4.7,1,9.4,0.4,14-0.5c0.3-0.1,0.7-0.5,0.7-0.8c0.1-1.8,0-3.6,0-5.6
		c-0.3-0.1-0.5-0.1-0.7-0.1c-0.3,0-0.5,0.1-0.8,0.1c-3.3,0.2-6.5,0.5-9.8,0.6c-2.5,0-3.7-1.2-3.9-3.4c-0.1-1.6,0-1.7,1.6-1.7
		c4.3,0,8.6,0,12.9,0c1,0,1.4-0.3,1.3-1.3C132.9,61.3,132.9,59.2,132.8,57.2z M124.8,59.4c-2.4,0-4.6,0-6.8,0
		c-0.2,0-0.6-0.4-0.6-0.7c-0.4-2.6,0.9-4.2,3.4-4.4c2.7-0.2,4.2,1.1,4.1,3.8C124.8,58.5,124.8,58.9,124.8,59.4z"/>
	<path class="st3" d="M153.2,48.5c-2.8,0-5.6,0.3-8.6,0.4c0-0.3-0.1-0.9-0.1-1.4c0-3.4,0-6.8,0-10.2c0-1-0.2-1.5-1.4-1.2
		c-1.7,0.4-3.5,0.7-5.3,0.9c-1.1,0.1-1.5,0.5-1.5,1.6c0.1,8.4,0,16.8,0,25.2c0,3.5,0,7.1,0,10.6c0,0.5-0.1,1.1,0.7,1.2
		c4.8,0.7,9.7,1.4,14.6,0.7c7.4-1,8.9-4.6,9.2-9.4c0.2-3.6,0.1-7.1,0-10.7C160.8,51.3,158.1,48.5,153.2,48.5z M152.6,67
		c-0.1,1.5-1.3,2.6-3,2.8c-1.5,0.1-3,0.1-4.4,0c-0.3,0-0.7-0.7-0.7-1c-0.1-1.9,0-3.9,0-5.9c0,0,0,0,0,0c0-1.8,0-3.6,0-5.5
		c0-1,0.4-1.6,1.3-1.7c1.5-0.2,3-0.5,4.5-0.5c1.3,0,2.4,1.1,2.5,2.3C152.7,60.7,152.7,63.8,152.6,67z"/>
	<path class="st3" d="M209.5,49.2c-2.8-1-5.8-0.9-8.7-0.7c-5.1,0.4-8.2,3.2-9.2,8.2c-0.3,1.9-0.3,3.8-0.4,5.7c0,0,0.1,0,0.1,0
		c0,1.4,0,2.8,0,4.2c0.1,4.5,2.7,8,7,9.2c3.2,0.9,6.6,0.9,9.8,0.2c4.5-1,7.2-3.9,7.5-8.5c0.2-3.5,0.2-7,0-10.4
		C215.4,53.2,213.3,50.5,209.5,49.2z M207.8,62.4c0,1.1,0,2.1,0,3.2c0,3.3-1.9,4.9-5.2,4.2c-1.9-0.4-3-1.6-3.1-3.6
		c-0.1-2.5-0.1-5,0-7.5c0.1-2.3,1.4-3.6,3.7-3.5c0.8,0,1.7,0,2.5,0.3c1.4,0.4,2,1.5,2,2.9C207.8,59.7,207.7,61,207.8,62.4
		C207.7,62.4,207.8,62.4,207.8,62.4z"/>
	<path class="st3" d="M236.2,63.2c-0.5-0.9-0.5-1.5,0-2.3c0.9-1.3,1.8-2.7,2.6-4.1c1.7-2.6,3.3-5.3,5.1-8.2c-2.7,0-5.2,0-7.7,0
		c-0.8,0-1.2,0.3-1.6,0.9c-2.1,3.4-4.2,6.7-6.3,10c-0.3,0.4-0.6,0.9-0.9,1.3c-0.1,0-0.3-0.1-0.4-0.1c0-8.3,0-16.5,0-25
		c-2.7,0.4-5.1,0.8-7.5,1.3c-0.3,0.1-0.6,0.7-0.6,1.1c0,12.3,0,24.6,0,36.8c0,0.8,0.3,1.1,1.1,1.1c1.9,0,3.8,0,5.7,0
		c1,0,1.2-0.3,1.2-1.3c0-3.4,0-6.9,0-10.3c0-0.4,0.1-0.9,0.1-1.3c0.6,0.4,0.9,0.8,1.1,1.2c2.1,3.6,4.3,7.1,6.4,10.7
		c0.2,0.4,0.7,0.9,1.1,0.9c2.6,0.1,5.3,0,8.2,0c-0.4-0.7-0.6-1.1-0.8-1.5C240.8,70.8,238.5,67,236.2,63.2z"/>
	<path class="st3" d="M188.4,58.6c-0.3-4.7-2.1-8.4-7.5-9.7c-3.2-0.8-6.5-0.8-9.7,0.1c-4.1,1.1-6.6,3.7-7,7.9
		c-0.3,3.4-0.5,6.9-0.2,10.3c0.4,5,3.2,8.2,8.2,8.9c2.7,0.4,5.6,0.4,8.3-0.1c4.1-0.6,6.8-3.2,7.6-7.4c0.4-2,0.3-4,0.5-6.1
		c0,0-0.1,0-0.1,0C188.4,61.2,188.5,59.9,188.4,58.6z M180.2,66.5c0,0.7-0.2,1.5-0.6,2c-1.2,1.5-2.9,1.6-4.6,1.3
		c-1.6-0.3-2.8-1.3-2.8-3c-0.1-3-0.1-6,0.1-9c0.1-1.5,1.4-2.5,3-2.6c0.7,0,1.4,0,2,0c1.8,0.1,3,1.4,3.1,3.2c0,1.4,0,2.7,0,4.1
		C180.2,63.8,180.3,65.2,180.2,66.5z"/>
</g>
</svg>
