<?xml version="1.0" encoding="utf-8"?>
<!-- Generator: Adobe Illustrator 25.3.1, SVG Export Plug-In . SVG Version: 6.00 Build 0)  -->
<svg version="1.1" id="Layer_1" xmlns="http://www.w3.org/2000/svg" xmlns:xlink="http://www.w3.org/1999/xlink" x="0px" y="0px"
	 viewBox="0 0 612 288" style="enable-background:new 0 0 612 288;" xml:space="preserve">
<style type="text/css">
	.st0{fill:#1AB680;}
	.st1{fill:#FFFFFF;}
</style>
<path class="st0" d="M524.9,129.9c-1.8,1.8-2.5,3-1.6,4.6c7.3,13.4,14.4,27,21.5,40.5c4.9,9.2,9.6,18.5,14.4,27.8
	c0.1,0.3,0.2,0.6,0.5,1.6c-5.1-0.9-9.7-1.6-14.2-2.4c-18.2-3.2-36.3-6.4-54.4-9.7c-6.8-1.2-13.5-2.7-20.4-3.8
	c-1-0.2-3.2,0.8-4.1,1.8c-16.1,16.5-32,33.1-48,49.7c-10.2,10.5-20.4,20.9-30.7,31.3c-2.1,2.1-4.1,4.4-6.6,7.1
	c3-9.7,5.7-18.8,8.5-27.8c3.2-10.5,6.6-21.1,9.7-31.5c0.8-2.7,1.9-4.3,5.1-5.3c2.9-0.9,5.2-2.9,6.1-5.7c0.9-2.7,0.6-5-1.9-5.5
	c-1.6-0.3-3.8,0.1-5.7,0.9c-24.8,10.1-49.5,20.4-74.3,30.7c-2.8,1.2-5.4,1.7-6.2-0.2c-0.6-1.6-0.3-3.9,0.4-6c0.3-1,2.5-2.7,3.8-3.3
	c15.9-6.8,31.9-13.4,47.8-20c5.3-2.2,10.6-4.4,15.8-6.7c3.5-1.5,5.7-4.9,5.6-7.8c-0.1-2.8-2.9-4-6.2-2.6
	c-12.8,5.4-25.6,10.6-38.5,15.9c-2.8,1.1-5.6,2.3-8.3,3.1c-3.7,1.2-5.7-0.2-5.6-3.3c0.1-2.8,2.7-6.1,6.1-7.5
	c9.1-3.8,18.3-7.6,27.4-11.3c4.2-1.7,6.2-4,6.4-7.2c0.3-3.7-1.4-5-5.6-3.9c-2.1,0.6-4.4,1.5-6.6,2.4
	c-39.8,16.4-79.6,32.9-119.4,49.3c-5.1,2.1-8,0.6-7.1-3.7c0.5-2.6,3-5,6.7-6.5c32.7-13.5,65.5-27.1,98.2-40.6c1.4-0.6,2.8-1.2,4-2.1
	c3.9-2.6,5.2-5.2,4.4-8.2c-0.7-2.5-2.9-3-6.8-1.4c-14.2,5.9-28.5,11.8-42.7,17.6c-3.6,1.5-6.8,0.5-7-2.1c-0.3-3.4,1.6-6.1,6.2-8
	c18-7.6,36-15.2,54-22.6c30.6-12.6,61.3-25.1,91.9-37.7c3.2-1.3,7.1-2.6,8.6-6.2c0.8-1.9,0.8-4.2,0.1-5.6c-0.7-1.6-3-1.5-5.6-0.3
	c-7.5,3.2-15,6.3-22.6,9.3c-4.1,1.6-6.6,1-7.2-1.8c-0.5-2.5,0.8-5.1,3.8-7.3c1.4-1,3.1-1.7,4.7-2.4c3-1.3,6.7-2.1,8.8-4.1
	c1.8-1.8,1.9-5,2.7-7.6c5.8-18.9,11.5-37.7,17.3-56.6c1-3.3,2.2-6.6,3.3-10c0.2-0.1,0.5-0.2,0.7-0.4c2.7,5.4,5.5,10.9,8.3,16.3
	c4,7.6,8,15.2,12,22.9c5.1,9.9,10.3,19.8,15.3,29.9c1.1,2.3,2.8,2,5.9,0.6c6.5-2.9,13.1-5.4,19.7-8.1c1.7-0.7,3.4-1.7,5.1-2.4
	c10.6-4.4,21.2-8.6,31.9-13c8.5-3.5,17.1-7,25.6-10.5c7.6-3.1,15.1-6.3,23.2-9.6c-3.5,3.7-6.9,7.2-10.4,10.8
	C579,74.3,559.2,94.7,539.3,115C534.5,120,529.7,125,524.9,129.9z M326.8,208.2c-0.1-3.3-3-4.3-7.3-2.5c-5.2,2.1-10.4,4.3-15.6,6.4
	c-5.5,2.3-11.1,4.5-16.6,6.9c-4.2,1.8-6.9,5.1-6.6,8.2c0.2,3,2.9,3.9,7,2.3c1.2-0.4,2.3-0.9,3.5-1.4c9.6-3.9,19.2-7.8,28.7-11.8
	C324.1,214.6,327,211.1,326.8,208.2z"/>
<path class="st1" d="M18.8,120.6c3.1,0,5.5-2.4,5.5-5.5V98.2h13.9l15.3,19.5c1.3,1.7,2.9,2.9,5.4,2.9c2.7,0,5.3-2.1,5.3-5.1
	c0-1.7-0.7-2.9-1.8-4.2l-12-15.2c8.4-2.6,14.3-8.7,14.3-18.7v-0.2c0-5.5-1.9-10.1-5.2-13.5c-4-3.9-10.2-6.3-18.1-6.3H18.8
	c-3.1,0-5.6,2.4-5.6,5.6v52.2C13.2,118.1,15.6,120.6,18.8,120.6z M24.2,67.4h16.1c8.2,0,13,3.7,13,10.4v0.2c0,6.4-5,10.5-12.9,10.5
	H24.2V67.4z M122,115.2c0,2.8-2.2,4.9-4.9,4.9h-37c-3.1,0-5.6-2.4-5.6-5.6V62.9c0-3.1,2.4-5.6,5.6-5.6h36.5c2.7,0,4.9,2.2,4.9,4.9
	c0,2.8-2.2,4.9-4.9,4.9h-31v16.3h27c2.7,0,4.9,2.2,4.9,5c0,2.7-2.2,4.8-4.9,4.8h-27v16.9H117C119.7,110.2,122,112.5,122,115.2z
	 M184.6,64.5l-22.1,52c-1.2,2.8-3.2,4.5-6.4,4.5h-0.6c-3.1,0-5.1-1.7-6.3-4.5l-22-51.7c-0.4-0.8-0.6-1.6-0.6-2.6
	c0-3,2.4-5.4,5.6-5.4c2.9,0,4.7,1.6,5.6,3.9l18.1,45.3l18.4-45.7c0.7-1.9,2.7-3.6,5.3-3.6c3.1,0,5.5,2.3,5.5,5.3
	C185.1,63,184.9,63.9,184.6,64.5z M193.9,115.1V62.3c0-3,2.4-5.5,5.6-5.5c3,0,5.5,2.4,5.5,5.5v52.8c0,3-2.4,5.5-5.5,5.5
	C196.3,120.6,193.9,118.1,193.9,115.1z M265.6,115.2c0,2.8-2.2,4.9-4.9,4.9h-37c-3.1,0-5.6-2.4-5.6-5.6V62.9c0-3.1,2.4-5.6,5.6-5.6
	h36.5c2.7,0,4.9,2.2,4.9,4.9c0,2.8-2.2,4.9-4.9,4.9h-31v16.3h27c2.7,0,4.9,2.2,4.9,5c0,2.7-2.2,4.8-4.9,4.8h-27v16.9h31.5
	C263.3,110.2,265.6,112.5,265.6,115.2z M361.5,62.2c0,0.7-0.3,1.6-0.5,2.2l-18.6,52c-1,2.8-3.1,4.6-5.7,4.6h-1.1
	c-2.7,0-4.7-1.7-5.6-4.6l-14-41l-14,41c-1,2.9-3.1,4.6-5.7,4.6h-1.1c-2.7,0-4.7-1.7-5.7-4.6l-18.6-52c-0.3-0.6-0.4-1.4-0.4-2.2
	c0-3,2.6-5.4,5.6-5.4c2.7,0,4.8,1.7,5.5,4l14.4,43.1l14.2-43c0.9-2.6,2.8-4.4,5.6-4.4h0.8c2.8,0,4.8,1.8,5.6,4.4l14.2,43l14.4-43.2
	c0.8-2.2,2.7-3.9,5.4-3.9C359,56.9,361.5,59.2,361.5,62.2z M412.9,102.1v0.2c0,11.7-9.2,18.7-22.4,18.7c-8.5,0-16.6-2.7-23.6-7.9
	c-1.3-0.9-2.2-2.4-2.2-4.2c0-2.9,2.3-5.1,5.2-5.1c1.5,0,2.5,0.4,3.2,1c5.2,4.1,10.8,6.5,17.6,6.5c6.8,0,11.1-3.2,11.1-7.9v-0.2
	c0-4.5-2.5-6.9-14.2-9.6c-13.4-3.2-20.9-7.2-20.9-18.7v-0.2c0-10.8,9-18.2,21.4-18.2c7.9,0,14.3,2.1,19.9,5.8
	c1.3,0.7,2.4,2.2,2.4,4.4c0,2.9-2.3,5.1-5.2,5.1c-1.1,0-2-0.3-2.9-0.8c-4.8-3.1-9.5-4.8-14.4-4.8c-6.5,0-10.2,3.3-10.2,7.5v0.2
	c0,4.8,2.9,7,15,9.9C406.1,86.9,412.9,91.7,412.9,102.1z M100,152.6v0.4c0,4-1.5,7.3-4.1,10.5l-53.2,61.8H90c5.4,0,10,4.5,10,10
	c0,5.4-4.5,9.8-10,9.8H22.8c-5.4,0-10-4.5-10-10v-0.4c0-4,1.5-7.5,4.1-10.5l53.2-61.8H24.5c-5.4,0-10-4.4-10-9.8c0-5.4,4.5-10,10-10
	H90C95.4,142.7,100,147.2,100,152.6z M144.1,153.1v81.7c0,6.3-5,11.3-11.3,11.3c-6.3,0-11.3-5-11.3-11.3v-81.7
	c0-6.3,5-11.3,11.3-11.3C139.1,141.8,144.1,146.8,144.1,153.1z M211.6,142.7H181c-6.3,0-11.3,5-11.3,11.3v80.9
	c0,6.3,5,11.3,11.3,11.3c6.3,0,11.3-5,11.3-11.3v-20.4h17.1c23,0,41.5-12.3,41.5-36v-0.3C250.9,157.2,236.1,142.7,211.6,142.7z
	 M228.1,178.9c0,8.8-6.6,15.5-17.9,15.5h-17.9V163h17.4c11.3,0,18.3,5.4,18.3,15.5V178.9z"/>
</svg>
