<?xml version="1.0" encoding="utf-8"?>
<!-- Generator: Adobe Illustrator 23.1.0, SVG Export Plug-In . SVG Version: 6.00 Build 0)  -->
<svg version="1.1" id="Layer_1" xmlns="http://www.w3.org/2000/svg" xmlns:xlink="http://www.w3.org/1999/xlink" x="0px" y="0px"
	 viewBox="0 0 508.3 508.4" style="enable-background:new 0 0 508.3 508.4;" xml:space="preserve">
<style type="text/css">
	.st0{fill-rule:evenodd;clip-rule:evenodd;fill:#F94877;}
	.st1{fill:#FFFFFF;}
</style>
<circle class="st0" cx="254.2" cy="254.2" r="249"/>
<title></title>
<path class="st1" d="M147.9,258.1V131c0-15.5,11.3-26.7,26.8-26.8h162.1c3.4,0,6.7,0.5,9.9,1.6c8.9,2.9,13.3,9.7,13.8,20.4
	c0.4,9.5-1.8,18.7-3.7,27.8c-3.7,17.8-7.3,35.6-10.8,53.4c-4.2,20.8-8.7,41.6-13.1,62.4c-1.4,6.4-2.4,12.8-4.3,19
	c-3.8,12.4-11.6,18.1-24.5,18.1c-15.1,0-30.3,0.1-45.4-0.1c-2.5-0.1-4.9,1-6.4,3c-8.6,10.2-17.2,20.4-25.8,30.6
	c-14,16.4-27.9,32.9-41.9,49.3c-2.7,3.1-5.3,6.4-8.1,9.4c-6.4,6.6-16.9,6.8-23.5,0.5c-0.7-0.7-1.3-1.4-1.9-2.2
	c-2.6-3.6-3.1-7.8-3.1-12.2C147.9,342.8,147.9,300.5,147.9,258.1z M181.8,345.6c0.2,0.1,0.4,0.2,0.6,0.3c5.1-6.5,10.3-13,15.4-19.5
	c11.8-15.2,23.7-30.4,35.4-45.7c4-5.3,9-7.8,15.7-7.6c14.1,0.3,28.1,0.1,42.2,0.1c5,0,8.5-2.4,9.4-6.9c2.4-11.7,4.8-23.4,7-35.2
	c1-5-2.2-9.8-7.2-10.8c-0.7-0.1-1.5-0.2-2.3-0.2c-17,0.4-34,0.1-51.1,0.1c-6.8,0-12.6-4.4-12-11.9c0.1-2.4,0.1-4.8,0-7.1
	c-0.1-2.5,1-4.9,2.9-6.6c2.9-2.7,6.4-3.4,10.1-3.4h58.5c6.8,0,10.5-3,11.7-9.6l5.2-25.8c0.5-2.4,1-4.8,1.4-7.3
	c1-6.4-2.3-10.3-8.9-10.3H190.2c-0.8,0-1.6,0-2.4,0.1c-3.1,0.5-5.2,2.1-5.9,5.3c-0.3,1.4-0.4,2.9-0.4,4.4v194.4
	C181.7,343.4,181.8,344.5,181.8,345.6L181.8,345.6z"/>
</svg>
