<?xml version="1.0" encoding="utf-8"?>
<!-- Generator: Adobe Illustrator 25.3.1, SVG Export Plug-In . SVG Version: 6.00 Build 0)  -->
<svg version="1.1" id="Layer_1" xmlns="http://www.w3.org/2000/svg" xmlns:xlink="http://www.w3.org/1999/xlink" x="0px" y="0px"
	 viewBox="0 0 284 93" style="enable-background:new 0 0 284 93;" xml:space="preserve">
<style type="text/css">

.st0{fill:#D1D3D4 !important;}
	.st1{fill:#FFFFFF !important ;}
	.st2{fill:#231F20 !important;}
	.st3{fill:#557EBF !important;}
	.st4{fill:#EA4535 !important;}
	.st5{fill:#F9BC15 !important;}
	.st6{fill:#36A852 !important;}
</style>
<polygon class="st0" points="284,0 0,0 0,93 284,93 284,0 "/>
<polyline class="st1" points="283,1 283,92 1,92 1,1 283,1 "/>
<g>
	<path class="st2" d="M61.7,14.9h1.1V20h3.2v1h-4.2V14.9z"/>
	<path class="st2" d="M69.6,14.9h4.5v0.9h-3.4v1.6h3v0.9h-3V20h3.4V21h-4.5V14.9z"/>
	<path class="st2" d="M80.1,14.9h1l2.6,6.1h-1.1L82,19.5h-2.8L78.5,21h-1.1L80.1,14.9z M81.6,18.6l-1-2.4l-1,2.4H81.6z"/>
	<path class="st2" d="M85.9,14.9h1.2l1.8,4.6l1.8-4.6h1.1L89.4,21h-0.9L85.9,14.9z"/>
	<path class="st2" d="M95.5,14.9h4.5v0.9h-3.4v1.6h3v0.9h-3V20h3.4V21h-4.5V14.9z"/>
	<path class="st2" d="M110.7,18.6l-2.4-3.6h1.2l1.7,2.7l1.7-2.7h1.2l-2.4,3.6V21h-1.1V18.6z"/>
	<path class="st2" d="M116.9,17.9c0-1.7,1.3-3.1,3.2-3.1s3.1,1.4,3.1,3.1c0,1.7-1.3,3.1-3.2,3.1C118.2,21.1,116.9,19.7,116.9,17.9z
		 M122.1,17.9c0-1.2-0.9-2.1-2-2.1c-1.2,0-2,1-2,2.1c0,1.2,0.9,2.1,2,2.1C121.2,20.1,122.1,19.1,122.1,17.9z"/>
	<path class="st2" d="M127,18.4v-3.5h1.1v3.4c0,1.1,0.6,1.7,1.5,1.7c0.9,0,1.5-0.6,1.5-1.7v-3.5h1.1v3.4c0,1.8-1,2.7-2.6,2.7
		C127.9,21,127,20.1,127,18.4z"/>
	<path class="st2" d="M136.1,14.9h2.7c1.4,0,2.2,0.8,2.2,1.9c0,1-0.6,1.6-1.4,1.8l1.6,2.3H140l-1.5-2.1h-1.3V21h-1.1V14.9z
		 M138.7,17.9c0.8,0,1.2-0.4,1.2-1c0-0.6-0.5-1-1.2-1h-1.5v2H138.7z"/>
	<path class="st2" d="M150.1,14.9h2.7c1.4,0,2.2,0.8,2.2,1.9c0,1-0.6,1.6-1.4,1.8l1.6,2.3h-1.2l-1.5-2.1h-1.3V21h-1.1V14.9z
		 M152.7,17.9c0.8,0,1.2-0.4,1.2-1c0-0.6-0.5-1-1.2-1h-1.5v2H152.7z"/>
	<path class="st2" d="M158.9,14.9h4.5v0.9h-3.4v1.6h3v0.9h-3V20h3.4V21h-4.5V14.9z"/>
	<path class="st2" d="M166.7,14.9h1.2l1.8,4.6l1.8-4.6h1.1l-2.5,6.1h-0.9L166.7,14.9z"/>
	<path class="st2" d="M176.3,14.9h1.1v6h-1.1V14.9z"/>
	<path class="st2" d="M181.5,14.9h4.5v0.9h-3.4v1.6h3v0.9h-3V20h3.4V21h-4.5V14.9z"/>
	<path class="st2" d="M189.4,14.9h1.1l1.4,4.5l1.5-4.5h0.9l1.5,4.5l1.4-4.5h1.1l-2.1,6.1h-0.9l-1.5-4.3l-1.5,4.3h-0.9L189.4,14.9z"
		/>
	<path class="st2" d="M206.9,17.9c0-1.7,1.3-3.1,3.2-3.1c1.8,0,3.1,1.4,3.1,3.1c0,1.7-1.3,3.1-3.2,3.1S206.9,19.7,206.9,17.9z
		 M212.1,17.9c0-1.2-0.9-2.1-2-2.1s-2,1-2,2.1c0,1.2,0.9,2.1,2,2.1C211.3,20.1,212.1,19.1,212.1,17.9z"/>
	<path class="st2" d="M217.1,14.9h1l3.2,4.2v-4.2h1v6h-0.9l-3.3-4.3V21h-1V14.9z"/>
</g>
<g>
	<path class="st3" d="M96.6,48.7h-21v6.2h15c-0.7,8.7-7.9,12.4-14.8,12.4c-8.7,0-16.3-6.9-16.3-16.5c0-9.4,7.3-16.6,16.3-16.6
		c7,0,11.1,4.5,11.1,4.5l4.3-4.5c0,0-5.6-6.2-15.7-6.2c-12.9,0-22.9,10.9-22.9,22.7c0,11.5,9.4,22.8,23.2,22.8
		c12.2,0,21.1-8.3,21.1-20.7C97,50.2,96.6,48.7,96.6,48.7L96.6,48.7z"/>
	<path class="st4" d="M114.4,44.2c-8.6,0-14.7,6.7-14.7,14.5c0,7.9,5.9,14.7,14.8,14.7c8,0,14.6-6.1,14.6-14.6
		C129,49.2,121.4,44.2,114.4,44.2L114.4,44.2z M114.5,50c4.2,0,8.2,3.4,8.2,8.9c0,5.4-4,8.9-8.2,8.9c-4.7,0-8.3-3.7-8.3-8.9
		C106.1,53.8,109.7,50,114.5,50L114.5,50z"/>
	<path class="st5" d="M146.2,44.2c-8.6,0-14.7,6.7-14.7,14.5c0,7.9,5.9,14.7,14.8,14.7c8,0,14.6-6.1,14.6-14.6
		C160.8,49.2,153.2,44.2,146.2,44.2L146.2,44.2z M146.2,50c4.2,0,8.2,3.4,8.2,8.9c0,5.4-4,8.9-8.2,8.9c-4.7,0-8.3-3.7-8.3-8.9
		C137.9,53.8,141.5,50,146.2,50L146.2,50z"/>
	<path class="st3" d="M177.5,44.3c-7.9,0-14,6.9-14,14.6c0,8.8,7.2,14.6,13.9,14.6c4.2,0,6.4-1.7,8-3.6v2.9c0,5-3.1,8.1-7.7,8.1
		c-4.5,0-6.7-3.3-7.5-5.2l-5.6,2.3c2,4.2,6,8.6,13.1,8.6c7.8,0,13.8-4.9,13.8-15.2V44.8h-6.1v2.8C183.5,45.6,180.9,44.3,177.5,44.3
		L177.5,44.3z M178.1,50c3.9,0,7.8,3.3,7.8,8.9c0,5.7-3.9,8.9-7.9,8.9c-4.2,0-8.1-3.4-8.1-8.8C169.9,53.3,173.9,50,178.1,50
		L178.1,50z"/>
	<path class="st4" d="M218.2,44.2c-7.4,0-13.6,5.9-13.6,14.6c0,9.2,6.9,14.7,14.3,14.7c6.2,0,10-3.4,12.2-6.4l-5.1-3.4
		c-1.3,2-3.5,4-7.2,4c-4.1,0-6-2.2-7.2-4.4l19.6-8.1l-1-2.4C228.4,48.1,224,44.2,218.2,44.2L218.2,44.2z M218.4,49.8
		c2.7,0,4.6,1.4,5.4,3.1l-13.1,5.5C210.2,54.2,214.2,49.8,218.4,49.8L218.4,49.8z"/>
	<rect x="195.6" y="29.5" class="st6" width="6" height="43.1"/>
</g>
</svg>
