<?xml version="1.0" encoding="utf-8"?>
<!-- Generator: Adobe Illustrator 23.1.0, SVG Export Plug-In . SVG Version: 6.00 Build 0)  -->
<svg version="1.1" id="Livello_1" xmlns="http://www.w3.org/2000/svg" xmlns:xlink="http://www.w3.org/1999/xlink" x="0px" y="0px"
	 viewBox="0 0 533.5 544.3" style="enable-background:new 0 0 533.5 544.3;" xml:space="preserve">
<style type="text/css">
	.st0{fill:#4285F4;}
	.st1{fill:#34A853;}
	.st2{fill:#FBBC04;}
	.st3{fill:#EA4335;}
</style>
<g>
	<path class="st0" d="M477,277.1c0-14.6-1.2-29.2-3.7-43.6H271v82.6h115.9c-4.8,26.6-20.3,50.2-42.9,65.2v53.6h69.1
		C453.7,397.5,477,342.3,477,277.1z"/>
	<path class="st1" d="M271,486.7c57.9,0,106.6-19,142.2-51.8L344,381.3c-19.2,13.1-44.1,20.5-73,20.5c-56,0-103.4-37.8-120.4-88.5
		H79.3v55.3C115.7,440.9,189.9,486.7,271,486.7z"/>
	<path class="st2" d="M150.5,313.3c-9-26.6-9-55.5,0-82.1v-55.3H79.3c-30.4,60.6-30.4,132,0,192.6L150.5,313.3z"/>
	<path class="st3" d="M271,142.5c30.6-0.5,60.1,11,82.3,32.2l0,0l61.2-61.2C375.7,77,324.2,57,271,57.6
		c-81.1,0-155.3,45.7-191.7,118.2l71.3,55.3C167.5,180.3,215,142.5,271,142.5z"/>
</g>
</svg>
