<?xml version="1.0" encoding="utf-8"?>
<!-- Generator: Adobe Illustrator 25.3.1, SVG Export Plug-In . SVG Version: 6.00 Build 0)  -->
<svg version="1.1" id="Layer_1" xmlns="http://www.w3.org/2000/svg" xmlns:xlink="http://www.w3.org/1999/xlink" x="0px" y="0px"
	 viewBox="0 0 284 93" style="enable-background:new 0 0 284 93;" xml:space="preserve">
<style type="text/css">
	.st0{fill:#D1D3D4;}
	.st1{fill:#FFFFFF;}
	.st2{fill:#231F20;}
	.st3{fill:#F7901F;}
	.st4{fill:#5D707B;}
</style>
<polygon class="st0" points="284,0 0,0 0,93 284,93 284,0 "/>
<polyline class="st1" points="283,1 283,92 1,92 1,1 283,1 "/>
<g>
	<path class="st2" d="M61.7,14.9h1.1V20h3.2v1h-4.2V14.9z"/>
	<path class="st2" d="M69.6,14.9h4.5v0.9h-3.4v1.6h3v0.9h-3V20h3.4V21h-4.5V14.9z"/>
	<path class="st2" d="M80.1,14.9h1l2.6,6.1h-1.1L82,19.5h-2.8L78.5,21h-1.1L80.1,14.9z M81.6,18.6l-1-2.4l-1,2.4H81.6z"/>
	<path class="st2" d="M85.9,14.9h1.2l1.8,4.6l1.8-4.6h1.1L89.4,21h-0.9L85.9,14.9z"/>
	<path class="st2" d="M95.5,14.9h4.5v0.9h-3.4v1.6h3v0.9h-3V20h3.4V21h-4.5V14.9z"/>
	<path class="st2" d="M110.7,18.6l-2.4-3.6h1.2l1.7,2.7l1.7-2.7h1.2l-2.4,3.6V21h-1.1V18.6z"/>
	<path class="st2" d="M116.9,17.9c0-1.7,1.3-3.1,3.2-3.1s3.1,1.4,3.1,3.1c0,1.7-1.3,3.1-3.2,3.1C118.2,21.1,116.9,19.7,116.9,17.9z
		 M122.1,17.9c0-1.2-0.9-2.1-2-2.1c-1.2,0-2,1-2,2.1c0,1.2,0.9,2.1,2,2.1C121.2,20.1,122.1,19.1,122.1,17.9z"/>
	<path class="st2" d="M127,18.4v-3.5h1.1v3.4c0,1.1,0.6,1.7,1.5,1.7c0.9,0,1.5-0.6,1.5-1.7v-3.5h1.1v3.4c0,1.8-1,2.7-2.6,2.7
		C127.9,21,127,20.1,127,18.4z"/>
	<path class="st2" d="M136.1,14.9h2.7c1.4,0,2.2,0.8,2.2,1.9c0,1-0.6,1.6-1.4,1.8l1.6,2.3H140l-1.5-2.1h-1.3V21h-1.1V14.9z
		 M138.7,17.9c0.8,0,1.2-0.4,1.2-1c0-0.6-0.5-1-1.2-1h-1.5v2H138.7z"/>
	<path class="st2" d="M150.1,14.9h2.7c1.4,0,2.2,0.8,2.2,1.9c0,1-0.6,1.6-1.4,1.8l1.6,2.3h-1.2l-1.5-2.1h-1.3V21h-1.1V14.9z
		 M152.7,17.9c0.8,0,1.2-0.4,1.2-1c0-0.6-0.5-1-1.2-1h-1.5v2H152.7z"/>
	<path class="st2" d="M158.9,14.9h4.5v0.9h-3.4v1.6h3v0.9h-3V20h3.4V21h-4.5V14.9z"/>
	<path class="st2" d="M166.7,14.9h1.2l1.8,4.6l1.8-4.6h1.1l-2.5,6.1h-0.9L166.7,14.9z"/>
	<path class="st2" d="M176.3,14.9h1.1v6h-1.1V14.9z"/>
	<path class="st2" d="M181.5,14.9h4.5v0.9h-3.4v1.6h3v0.9h-3V20h3.4V21h-4.5V14.9z"/>
	<path class="st2" d="M189.4,14.9h1.1l1.4,4.5l1.5-4.5h0.9l1.5,4.5l1.4-4.5h1.1l-2.1,6.1h-0.9l-1.5-4.3l-1.5,4.3h-0.9L189.4,14.9z"
		/>
	<path class="st2" d="M206.9,17.9c0-1.7,1.3-3.1,3.2-3.1c1.8,0,3.1,1.4,3.1,3.1c0,1.7-1.3,3.1-3.2,3.1S206.9,19.7,206.9,17.9z
		 M212.1,17.9c0-1.2-0.9-2.1-2-2.1s-2,1-2,2.1c0,1.2,0.9,2.1,2,2.1C211.3,20.1,212.1,19.1,212.1,17.9z"/>
	<path class="st2" d="M217.1,14.9h1l3.2,4.2v-4.2h1v6h-0.9l-3.3-4.3V21h-1V14.9z"/>
</g>
<g>
	<g>
		<g>
			<path class="st3" d="M83.4,68.1V57.5h-9.4v10.6h-6.3V42.6h6.3v9.8h9.4v-9.8h6.3v25.5H83.4z"/>
			<path class="st3" d="M101.6,68.5c-6.1,0-10.1-3.7-10.1-10c0-6.2,4.1-9.9,10.1-9.9c6.1,0,10.1,3.7,10.1,9.9S107.7,68.5,101.6,68.5
				z M101.6,53.2c-2.6,0-3.8,2.4-3.8,5.3s1.2,5.4,3.8,5.4c2.6,0,3.8-2.4,3.8-5.4C105.4,55.6,104.2,53.2,101.6,53.2z"/>
			<path class="st3" d="M136.9,68.1V57.2c0-2-0.5-3.4-2.5-3.4c-2,0-2.9,2-3.1,3.3v11h-6.2V57.2c0-2-0.5-3.4-2.5-3.4
				c-2,0-2.9,2-3.1,3.3v11h-6.2V49h5.8l0.4,2.9c1.3-2,3-3.3,5.6-3.3c2.6,0,4.6,1.1,5.5,3.5c1.5-2.1,3.3-3.5,6.2-3.5
				c3.9,0,6.2,2.5,6.2,7.2v12.3H136.9z"/>
			<path class="st3" d="M151,60.1c0.1,2.8,2.3,3.9,4.7,3.9c2.4,0,4.7-1.1,5.5-1.8l2,3.6c0,0-2.6,2.7-8.4,2.7c-5.8,0-10-3.5-10-9.9
				c0-6.4,4.3-10,10-10c5.7,0,8.9,4,8.9,9.8v1.6H151z M154.5,52.7c-2.3,0-3.5,1.8-3.7,3.7h7C157.9,54.4,156.8,52.7,154.5,52.7z"/>
		</g>
		<g>
			<path class="st4" d="M183.3,68.2l-2.3-6.5h-11l-2.3,6.5h-3l9.2-24.7h3.4l9.3,24.7H183.3z M175.5,46.2l-4.7,13h9.4L175.5,46.2z"/>
			<path class="st4" d="M200.2,68.2l-0.4-2.8c-0.1,0.1-1.7,3.2-6.1,3.2c-4.7,0-7.6-4-7.6-9.3c0-5.3,3.3-9.3,8-9.3c4,0,5.5,3,5.7,3.4
				V42.7h2.8v25.5H200.2z M194.6,52.2c-3.3,0-5.5,3.2-5.5,7c0,3.8,2,7,5.3,7c3.3,0,5.5-3.2,5.5-7C199.9,55.4,197.9,52.2,194.6,52.2z
				"/>
			<path class="st4" d="M214,68.2h-3l-6.9-17.8h3l5.3,15l5.3-15h3L214,68.2z"/>
			<path class="st4" d="M224,46.4c-1.1,0-2.1-0.9-2.1-2c0-1.1,0.9-2,2-2c1.1,0,2.1,0.9,2.1,2C226.1,45.5,225.2,46.4,224,46.4z
				 M222.6,68.2V50.3h2.8v17.8H222.6z"/>
			<path class="st4" d="M239,66.9c-1.1,0.9-2.7,1.6-5,1.6c-3.7,0-6.2-2.4-6.9-3.2l1.7-1.8c0.9,1.1,3,2.6,5.3,2.6
				c2.3,0,3.8-0.9,3.8-2.7c0-1.8-1.8-2.4-2.8-2.8c-1-0.3-2.6-0.8-3.5-1.2c-0.9-0.4-3.5-1.4-3.5-4.5c0-3.1,2.6-5.1,6.3-5.1
				c3.7,0,6,2.2,6.1,2.4l-1.3,1.9c-0.9-0.9-2.7-2.1-4.7-2.1c-2,0-3.7,0.8-3.7,2.5c0,1.8,1.7,2.3,2.9,2.7c1.2,0.4,2.5,0.8,3.3,1.2
				c0.9,0.3,3.7,1.5,3.7,4.6C240.6,64.7,240,66,239,66.9z"/>
			<path class="st4" d="M250.1,68.5c-5,0-8.4-3.7-8.4-9.3c0-5.6,3.4-9.3,8.4-9.3s8.4,3.7,8.4,9.3C258.6,64.9,255.2,68.5,250.1,68.5z
				 M250.1,52.2c-3.5,0-5.5,2.9-5.5,7c0,4.1,2,7,5.5,7c3.5,0,5.5-2.8,5.5-7C255.6,55.1,253.6,52.2,250.1,52.2z"/>
			<path class="st4" d="M269.9,52.9c0,0-0.5-0.2-1.2-0.2c-0.8,0-1.7,0.2-2.6,0.9c-1,0.7-2.2,2.2-2.6,4.3v10.3h-2.8V50.3h2.6l0.2,3.6
				c0.9-2.1,3-4,5.5-4c0.9,0,1.4,0.2,1.4,0.2L269.9,52.9z"/>
		</g>
	</g>
	<path class="st4" d="M45.6,57.5l-0.8-0.8L32.6,44.5L21.9,55.1v10.3c0,1.5,1.2,2.7,2.7,2.7h12.5l9.6,9.6v-9.6h5.4
		c1.5,0,2.7-1.2,2.7-2.7v-7.8h-8.1H45.6z"/>
	<polygon class="st3" points="46.7,38.2 30.2,38.2 13.7,54.8 18.4,54.8 32.6,40.6 46.8,54.8 63.2,54.8 	"/>
</g>
</svg>
