<?xml version="1.0" encoding="utf-8"?>
<!-- Generator: Adobe Illustrator 25.3.1, SVG Export Plug-In . SVG Version: 6.00 Build 0)  -->
<svg version="1.1" id="Layer_1" xmlns="http://www.w3.org/2000/svg" xmlns:xlink="http://www.w3.org/1999/xlink" x="0px" y="0px"
	 viewBox="0 0 300 300" style="enable-background:new 0 0 300 300;" xml:space="preserve">
<style type="text/css">
	.st0{fill:#5D707B;}
	.st1{fill:#F7901F;}
	.st2{fill:#10103F;}
</style>
<g>
	<path class="st0" d="M193.3,147.4l-4.8-4.8l-73.8-73.8l-63.9,63.9v61.9c0,9.1,7.4,16.5,16.5,16.5h75.5l57.6,57.6v-57.6h32.3
		c9.1,0,16.5-7.4,16.5-16.5v-47.2h-49L193.3,147.4L193.3,147.4z"/>
	<polygon class="st1" points="199.4,31.3 100.6,31.3 1,130.9 29.2,130.9 114.7,45.4 200.1,130.9 299,130.9 	"/>
</g>
<g>
	<path class="st2" d="M193.3,147.9l-4.8-4.8l-73.8-73.8l-63.9,63.9v61.9c0,9.1,7.4,16.5,16.5,16.5h75.5l57.6,57.6v-57.6h32.3
		c9.1,0,16.5-7.4,16.5-16.5v-47.2h-49L193.3,147.9L193.3,147.9z"/>
	<polygon class="st2" points="199.4,31.8 100.6,31.8 1,131.4 29.2,131.4 114.7,45.9 200.1,131.4 299,131.4 	"/>
</g>
</svg>
