<?xml version="1.0" encoding="utf-8"?>
<!-- Generator: Adobe Illustrator 25.3.1, SVG Export Plug-In . SVG Version: 6.00 Build 0)  -->
<svg version="1.1" id="Layer_1" xmlns="http://www.w3.org/2000/svg" xmlns:xlink="http://www.w3.org/1999/xlink" x="0px" y="0px"
	 viewBox="0 0 284 93" style="enable-background:new 0 0 284 93;" xml:space="preserve">
<style type="text/css">
	.st0{fill:#D1D3D4;}
	.st1{fill:#FFFFFF;}
	.st2{fill:#231F20;}
	.st3{fill:#52B848;}
	.st4{fill:#010101;}
</style>
<polygon class="st0" points="284,0 0,0 0,93 284,93 284,0 "/>
<polyline class="st1" points="283,1 283,92 1,92 1,1 283,1 "/>
<g>
	<path class="st2" d="M61.7,14.9h1.1V20h3.2v1h-4.2V14.9z"/>
	<path class="st2" d="M69.6,14.9h4.5v0.9h-3.4v1.6h3v0.9h-3V20h3.4V21h-4.5V14.9z"/>
	<path class="st2" d="M80.1,14.9h1l2.6,6.1h-1.1L82,19.5h-2.8L78.5,21h-1.1L80.1,14.9z M81.6,18.6l-1-2.4l-1,2.4H81.6z"/>
	<path class="st2" d="M85.9,14.9h1.2l1.8,4.6l1.8-4.6h1.1L89.4,21h-0.9L85.9,14.9z"/>
	<path class="st2" d="M95.5,14.9h4.5v0.9h-3.4v1.6h3v0.9h-3V20h3.4V21h-4.5V14.9z"/>
	<path class="st2" d="M110.7,18.6l-2.4-3.6h1.2l1.7,2.7l1.7-2.7h1.2l-2.4,3.6V21h-1.1V18.6z"/>
	<path class="st2" d="M116.9,17.9c0-1.7,1.3-3.1,3.2-3.1s3.1,1.4,3.1,3.1c0,1.7-1.3,3.1-3.2,3.1C118.2,21.1,116.9,19.7,116.9,17.9z
		 M122.1,17.9c0-1.2-0.9-2.1-2-2.1c-1.2,0-2,1-2,2.1c0,1.2,0.9,2.1,2,2.1C121.2,20.1,122.1,19.1,122.1,17.9z"/>
	<path class="st2" d="M127,18.4v-3.5h1.1v3.4c0,1.1,0.6,1.7,1.5,1.7c0.9,0,1.5-0.6,1.5-1.7v-3.5h1.1v3.4c0,1.8-1,2.7-2.6,2.7
		C127.9,21,127,20.1,127,18.4z"/>
	<path class="st2" d="M136.1,14.9h2.7c1.4,0,2.2,0.8,2.2,1.9c0,1-0.6,1.6-1.4,1.8l1.6,2.3H140l-1.5-2.1h-1.3V21h-1.1V14.9z
		 M138.7,17.9c0.8,0,1.2-0.4,1.2-1c0-0.6-0.5-1-1.2-1h-1.5v2H138.7z"/>
	<path class="st2" d="M150.1,14.9h2.7c1.4,0,2.2,0.8,2.2,1.9c0,1-0.6,1.6-1.4,1.8l1.6,2.3h-1.2l-1.5-2.1h-1.3V21h-1.1V14.9z
		 M152.7,17.9c0.8,0,1.2-0.4,1.2-1c0-0.6-0.5-1-1.2-1h-1.5v2H152.7z"/>
	<path class="st2" d="M158.9,14.9h4.5v0.9h-3.4v1.6h3v0.9h-3V20h3.4V21h-4.5V14.9z"/>
	<path class="st2" d="M166.7,14.9h1.2l1.8,4.6l1.8-4.6h1.1l-2.5,6.1h-0.9L166.7,14.9z"/>
	<path class="st2" d="M176.3,14.9h1.1v6h-1.1V14.9z"/>
	<path class="st2" d="M181.5,14.9h4.5v0.9h-3.4v1.6h3v0.9h-3V20h3.4V21h-4.5V14.9z"/>
	<path class="st2" d="M189.4,14.9h1.1l1.4,4.5l1.5-4.5h0.9l1.5,4.5l1.4-4.5h1.1l-2.1,6.1h-0.9l-1.5-4.3l-1.5,4.3h-0.9L189.4,14.9z"
		/>
	<path class="st2" d="M206.9,17.9c0-1.7,1.3-3.1,3.2-3.1c1.8,0,3.1,1.4,3.1,3.1c0,1.7-1.3,3.1-3.2,3.1S206.9,19.7,206.9,17.9z
		 M212.1,17.9c0-1.2-0.9-2.1-2-2.1s-2,1-2,2.1c0,1.2,0.9,2.1,2,2.1C211.3,20.1,212.1,19.1,212.1,17.9z"/>
	<path class="st2" d="M217.1,14.9h1l3.2,4.2v-4.2h1v6h-0.9l-3.3-4.3V21h-1V14.9z"/>
</g>
<g>
	<polygon class="st3" points="64.1,75.9 79.9,75.9 79.9,49.2 48.3,40.2 48.3,28.9 37.8,28.9 37.8,75.9 53.6,75.9 53.6,61.1 
		64.1,61.1 	"/>
	<path class="st4" d="M154.8,52.9c-5.5-5.5-14.4-5.5-19.9,0c-1.3,1.3-2.3,2.8-3,4.4c-0.7,1.7-1.1,3.5-1.1,5.4c0,3.7,1.4,7.2,4.1,9.8
		c1.3,1.3,2.8,2.3,4.4,2.9c3.5,1.4,7.5,1.4,11,0c1.7-0.7,3.2-1.7,4.4-2.9c2.6-2.6,4.1-6.1,4.1-9.8c0-1.9-0.4-3.7-1.1-5.4
		C157.1,55.7,156,54.2,154.8,52.9z M152.1,66.1c-0.3,1-0.9,1.9-1.6,2.6c-0.7,0.7-1.5,1.3-2.5,1.7c-2.1,0.8-4.5,0.8-6.6,0
		c-0.9-0.4-1.8-1-2.5-1.7c-0.7-0.8-1.2-1.6-1.6-2.6c-0.7-2.2-0.7-4.6,0-6.8c0.3-1,0.9-1.9,1.6-2.6c0.7-0.7,1.5-1.3,2.5-1.7
		c2.1-0.8,4.5-0.8,6.6,0c0.9,0.4,1.8,1,2.5,1.7c0.7,0.8,1.2,1.6,1.6,2.6C152.9,61.5,152.9,63.9,152.1,66.1z"/>
	<polygon class="st4" points="217.8,54.5 217.8,49.5 196.9,49.5 196.9,54.7 210.2,54.7 196.4,70.9 196.4,75.9 218.5,75.9 
		218.5,70.7 203.9,70.7 	"/>
	<polygon class="st4" points="231.5,70.7 245.5,54.5 245.5,49.5 224.6,49.5 224.6,54.7 237.9,54.7 224.1,70.9 224.1,75.9 
		246.2,75.9 246.2,70.7 	"/>
	<path class="st4" d="M118.5,49.7c-3.9-1.6-8.7-0.9-11.8,1.5V40.2h-5.9v35.8h5.9V61.9c0-2.7,0.8-7.2,5.9-7.2c4.7,0,6.4,3.9,6.4,7.2
		v14.1h5.9v-16C124.9,55.1,122.5,51.4,118.5,49.7z"/>
	<path class="st4" d="M183.9,63.9c0,0.8-0.1,1.7-0.3,2.4c-0.2,0.8-0.6,1.6-1.1,2.2l0,0c-0.5,0.7-1.2,1.3-2,1.6
		c-1.9,0.8-4.1,0.8-6.1,0c-0.8-0.4-1.4-1-2-1.6c-0.5-0.7-0.9-1.4-1.1-2.2c-0.2-0.8-0.3-1.6-0.3-2.4V49.4h-5.8v15.1
		c0,5.6,2.5,9.3,7.5,11.2c3.1,1.1,6.5,1.1,9.7,0c6.1-2.3,7.4-7.4,7.4-11.2v-15h-5.8V63.9z"/>
</g>
</svg>
