<?xml version="1.0" encoding="utf-8"?>
<!-- Generator: Adobe Illustrator 25.3.1, SVG Export Plug-In . SVG Version: 6.00 Build 0)  -->
<svg version="1.1" id="Layer_1" xmlns="http://www.w3.org/2000/svg" xmlns:xlink="http://www.w3.org/1999/xlink" x="0px" y="0px"
	 viewBox="0 0 612 432" style="enable-background:new 0 0 612 432;" xml:space="preserve">
<style type="text/css">
	.st0{fill:#1AB680;}
</style>
<path class="st0" d="M469.84,187.15c-2.87,2.9-3.99,4.93-2.59,7.53c11.77,21.81,23.35,43.74,34.9,65.69
	c7.88,14.98,15.63,30.04,23.43,45.08c0.23,0.45,0.31,1.01,0.76,2.53c-8.34-1.4-15.71-2.58-23.02-3.87
	c-29.45-5.2-58.91-10.39-88.31-15.69c-11.09-2-21.92-4.42-33.12-6.24c-1.54-0.25-5.2,1.35-6.71,2.89
	c-26.08,26.81-51.92,53.78-77.94,80.63c-16.48,17.01-33.18,33.88-49.73,50.84c-3.4,3.48-6.61,7.1-10.76,11.59
	c4.81-15.71,9.3-30.43,13.83-45.16c5.25-17.06,10.71-34.16,15.7-51.18c1.29-4.41,3.04-6.99,8.25-8.61c4.64-1.44,8.39-4.71,9.82-9.18
	c1.39-4.33,1.04-8.12-3.1-8.86c-2.53-0.45-6.17,0.18-9.27,1.45c-40.17,16.46-80.34,33.07-120.5,49.79
	c-4.59,1.91-8.8,2.83-10.01-0.38c-0.97-2.58-0.44-6.39,0.69-9.82c0.53-1.61,3.99-4.36,6.19-5.3c25.87-10.97,51.75-21.68,77.63-32.48
	c8.57-3.58,17.14-7.13,25.7-10.89c5.65-2.48,9.18-7.91,9.05-12.61c-0.13-4.54-4.75-6.54-10.1-4.3c-20.8,8.71-41.6,17.2-62.41,25.72
	c-4.5,1.84-9.02,3.68-13.49,5.08c-5.94,1.87-9.19-0.26-9.04-5.33c0.13-4.51,4.42-9.85,9.82-12.1c14.83-6.16,29.66-12.26,44.48-18.41
	c6.83-2.83,10.04-6.45,10.42-11.62c0.44-5.98-2.21-8.05-9.02-6.28c-3.48,0.9-7.1,2.47-10.65,3.94
	c-64.55,26.66-129.1,53.36-193.65,80.04c-8.28,3.42-12.94,0.97-11.51-5.98c0.86-4.19,4.82-8.07,10.87-10.57
	c53.11-21.97,106.22-43.92,159.33-65.92c2.19-0.91,4.48-1.99,6.54-3.37c6.32-4.25,8.47-8.37,7.19-13.25
	c-1.08-4.13-4.64-4.92-11.07-2.27c-23.09,9.52-46.17,19.09-69.26,28.63c-5.79,2.39-11.03,0.81-11.44-3.4
	c-0.53-5.47,2.62-9.9,10.07-13.05c29.19-12.37,58.39-24.7,87.59-36.73c49.72-20.49,99.45-40.72,149.18-61.15
	c5.26-2.16,11.54-4.15,14.03-10.1c1.32-3.16,1.29-6.81,0.22-9.16c-1.18-2.58-4.81-2.42-9.14-0.56
	c-12.19,5.23-24.39,10.25-36.6,15.15c-6.62,2.66-10.72,1.54-11.6-2.98c-0.78-4,1.24-8.21,6.16-11.77c2.32-1.67,5.07-2.7,7.64-3.85
	c4.85-2.18,10.85-3.33,14.24-6.61c2.96-2.87,3.03-8.09,4.3-12.26c9.34-30.62,18.65-61.23,28.02-91.85
	c1.64-5.37,3.54-10.77,5.32-16.15c0.4-0.19,0.8-0.38,1.2-0.57c4.46,8.81,8.86,17.66,13.4,26.41c6.42,12.39,12.99,24.69,19.41,37.08
	c8.35,16.12,16.77,32.2,24.8,48.54c1.8,3.65,4.54,3.29,9.6,1.04c10.6-4.73,21.27-8.73,31.91-13.13c2.76-1.14,5.5-2.77,8.26-3.9
	c17.23-7.06,34.46-14.03,51.69-21.05c13.84-5.64,27.68-11.3,41.52-16.99c12.29-5.05,24.57-10.15,37.69-15.58
	c-5.75,5.98-11.25,11.76-16.81,17.48c-32.18,33.09-64.37,66.17-96.55,99.26C485.47,171.07,477.75,179.17,469.84,187.15z
	 M148.52,314.15c-0.23-5.3-4.9-6.93-11.91-4.06c-8.43,3.45-16.86,6.96-25.29,10.45c-8.99,3.72-17.99,7.37-26.97,11.18
	c-6.81,2.88-11.14,8.34-10.76,13.33c0.37,4.83,4.76,6.3,11.39,3.77c1.87-0.71,3.75-1.52,5.62-2.28
	c15.55-6.36,31.1-12.66,46.64-19.11C144.01,324.62,148.73,318.91,148.52,314.15z"/>
</svg>
