<?xml version="1.0" encoding="utf-8"?>
<!-- Generator: Adobe Illustrator 25.3.1, SVG Export Plug-In . SVG Version: 6.00 Build 0)  -->
<svg version="1.1" id="Layer_1" xmlns="http://www.w3.org/2000/svg" xmlns:xlink="http://www.w3.org/1999/xlink" x="0px" y="0px"
	 viewBox="0 0 792 612" style="enable-background:new 0 0 792 612;" xml:space="preserve">
<style type="text/css">
	.st0{fill:#FFFFFF;}
	.st1{fill:#0F173D;}
	.st2{fill-rule:evenodd;clip-rule:evenodd;fill:#FFDE11;}
	.st3{fill-rule:evenodd;clip-rule:evenodd;fill:#FAE494;}
	.st4{fill-rule:evenodd;clip-rule:evenodd;fill:#EC2227;}
	.st5{fill-rule:evenodd;clip-rule:evenodd;fill:#29AAE1;}
	.st6{fill-rule:evenodd;clip-rule:evenodd;fill:#B21F24;}
	.st7{fill-rule:evenodd;clip-rule:evenodd;fill:#2075BC;}
	.st8{fill-rule:evenodd;clip-rule:evenodd;fill:#EBA763;}
	.st9{fill-rule:evenodd;clip-rule:evenodd;fill:#B5B6B7;}
	.st10{fill-rule:evenodd;clip-rule:evenodd;fill:#B5B6B6;}
	.st11{fill-rule:evenodd;clip-rule:evenodd;fill:#99A0A5;}
	.st12{fill-rule:evenodd;clip-rule:evenodd;fill:#9A7355;}
	.st13{fill-rule:evenodd;clip-rule:evenodd;fill:#FAE493;}
	.st14{fill-rule:evenodd;clip-rule:evenodd;fill:#0E183E;}
	.st15{fill-rule:evenodd;clip-rule:evenodd;fill:#EAA662;}
	.st16{fill-rule:evenodd;clip-rule:evenodd;fill:#FFFFFF;}
</style>
<g>
	<g>
		<g>
			<path class="st0" d="M233.4,286.9c0-0.1,0-0.2,0-0.3c0-0.3,0-0.7,0-1c0-0.1,0-0.2,0-0.3c0-0.2,0-0.3,0-0.5c0-1.9-0.9-3.4-2.2-4.6
				c-2-1.9-4.4-3.1-7.2-3.7c-0.4-0.1-0.7-0.3-1-0.7c-0.9-1.3-1.9-2.4-3-3.4c-1.1-1-2.2-1.8-3.6-2.1c-1.5-0.4-2.8,0.1-3.7,1.4
				c-0.6,0.9-1,1.9-1.3,2.9c-0.8,2.7-1,5.5-1.1,8.2c-0.1,1.5-0.1,3,0.2,4.5c0.1,0.4-0.1,0.6-0.4,0.8c-0.3,0.1-0.6,0.3-0.9,0.6
				c-1,0.9-1.3,2.1-1.3,3.4c0,3.7,1.1,6.9,4.1,9.2c0.3,0.2,0.4,0.5,0.2,0.8c-1.8,2.9-3.7,5.7-5.9,8.4c-2.4,3-4.8,6-7.3,8.9
				c-0.5,0.6-0.9,0.7-1.7,0.6c-7.3-1.8-14.5-3.8-21.9-5.6c-3.6-0.9-7.1-1.8-10.7-2.6c0,0,2.2-0.2,3.5-0.4c2.4-0.3,4.2-1.5,5.6-3.4
				c1.7-2.3,2.6-4.9,3.2-7.7c0.9-3.7,1.4-7.5,2-11.3c0.5-3.5,0.9-7,1.3-10.6c0.2-1.9,0-3.8-0.8-5.5c-0.6-1.4-1.2-2.8-1.6-4.3
				c-0.6-2.4-0.8-4.8,0.2-7.1c0.2-0.4,0.3-0.9,0.4-1.3c0.5-1.8,0.5-3.5-0.2-5.2c-0.6-1.6-4.9-10.1-6.4-12.3
				c-0.4-0.6-0.9-1.2-1.3-1.8c-0.2-0.3-0.5-0.6-0.7-0.9c-0.1-0.1-0.1-0.1-0.2-0.2c-0.9-1.2-1.9-2.3-3-3.5c-0.9-1-1.9-1.9-2.9-2.8
				c-0.5-0.4-1-0.9-1.5-1.3c-0.1-0.1-0.2-0.2-0.4-0.3c0,0,0,0-0.1-0.1c-0.1-0.1-0.3-0.2-0.4-0.3c-1-0.7-2.1-1.4-3.2-2
				c-0.5-0.3-1.1-0.5-1.7-0.8c0.2,0.1,0.3,0.1,0.4,0.2c0.3,0.1,0.5,0.2,0,0c-0.1-0.1-0.2-0.1-0.3-0.1c-0.3-0.1-0.5-0.2-0.8-0.3
				c-1.3-0.4-2.7-0.7-4.1-1c-0.2,0-0.4-0.1-0.7-0.1c-0.3,0-0.6-0.1-0.9-0.1c-0.7-0.1-1.5-0.1-2.2-0.2c-1.6-0.1-3.2-0.1-4.8,0
				c-0.8,0-1.7,0.1-2.5,0.2c-0.4,0-1.2,0.1-1.3,0.1c0,0-6.3,0.2-11.5,2.9c-2.5,1.3-6,4.7-8.7,7.5c-2.3,2.4-4.3,4.9-5.9,7.9
				c-1.5,2.8-2.5,5.7-2.8,8.8c-0.3,2.9-0.3,5.8,0.4,8.6c0.1,0.3,0.1,0.5,0,0.8c-1.4,4-1.5,7.9-0.2,11.9c0.6,2,1.6,3.8,3.1,5.2
				c1.1,1,2.4,1.9,3.8,2.5c0.9,0.4,1.7,0.7,2.7,0.8c0.3,0,0.6,0,0.8,0.1c0.3,0.1,0.5,0.2,0.5,0.6c0,0.9,0.2,1.8,0.4,2.7
				c0.6,2.5,1.5,4.8,2.6,7.1c0.3,0.5,0.1,0.9-0.4,1.1c-0.8,0.3-1.6,0.7-2.3,1.3c-0.6,0.5-1.2,0.6-1.9,0.4c-3-0.6-6.1-0.9-9.1-1.2
				c-3.4-0.4-6.8-0.8-10.3-1c-3.5-0.3-7-0.4-10.6-0.5c-3.6-0.1-7.3,0-10.9,0.1c-2.4,0.1-4.7,0.2-7.1,0.4c-2,0.2-3.9,0.3-5.9,0.5
				c-2,0.2-4,0.4-6,0.8c-2,0.4-3.8,1.1-5.5,2.3c-1.5,1.1-2.8,2.2-4.1,3.5c-2.1,2.1-3.9,4.4-5.6,6.8c-3.6,4.9-6.9,10.1-10,15.3
				c-0.6,1-1.1,1.9-1.7,2.9l-2.3-1.7l2.3-4.4c0.5-0.9,0.3-2-0.5-2.7l-5.1-4.4l0.9-1.7c0.3-0.5,0.3-1.1,0.1-1.7
				c-0.2-0.6-0.6-1-1.1-1.3l-12.3-6c-0.3-0.2-0.6-0.2-1-0.2c-0.7,0-1.3,0.3-1.8,0.9c-0.6,0.8-0.6,2,0.1,2.8l5.4,6.1l-2.7,3.2
				c-0.4,0.5-0.6,1.1-0.5,1.7c0.1,0.6,0.4,1.2,1,1.5l4.5,2.9l-4,7.3c-0.5,0.9-0.3,2,0.5,2.7l12.3,10.9c0.4,0.3,0.8,0.5,1.3,0.6
				c0.6,1.1,1,2.3,0.9,3.6c0,0.1,0,0.3,0,0.6c-0.2,1.6,0.1,3,0.9,4.4c1.3,2.1,3.5,2.4,5.4,0.8c0.1,0,0.1-0.1,0.2-0.2
				c0.2-0.3,0.4-0.6,0.5-0.9c0.1-0.2,0.2-0.4,0.3-0.6c0.6,0.3,1.3,0.7,1.8,1c-0.2,0.5-0.5,1-0.8,1.7c-0.8,1.7-1.6,3.5-1.6,3.5
				c-0.3,0.6-0.3,1.3,0,1.8c0.3,0.6,0.8,1,1.4,1.2l5.8,1.7l-1.2,2.7c-0.3,0.6-0.3,1.2,0,1.7c0.2,0.6,0.7,1,1.2,1.2l16.8,6.7
				c0.3,0.1,0.5,0.2,0.8,0.2c0.7,0,1.4-0.3,1.8-1c0.6-0.8,0.5-2-0.2-2.8l-6.9-7.6l0.8-2.3c0.3-0.9,0-1.9-0.7-2.4l-5.6-4.5l2.8-6.1
				c0.4-0.9,0.2-2-0.6-2.6c0,0-2.2-1.9-4.4-3.8c-0.5-0.4-1-0.9-1.4-1.2c0.7-1.3,0.7-3.4,0.7-3.8c0-1.5-0.7-2.8-2.1-3.8
				c-0.8-0.5-1.5-1-2.4-1.3c3.7-1.9,7.2-4,10.5-6.3c3.1-2.2,6.1-4.6,8.3-7.8c0.3-0.4,0.6-0.4,1-0.5c2.2-0.2,4.4-0.4,6.5-0.4
				c0.6,0,0.6,0,0.4,0.6c-0.2,0.7-0.4,1.4-0.4,2.2c0,1.3,0.9,2.1,2.2,1.9c2.1-0.3,4.3-0.4,6.4-0.5c2.8-0.1,5.5,0,8.3,0.1
				c2.5,0.1,5.1,0.2,7.6,0.4c0.8,0.1,0.9,0.1,0.7,0.9c-1.2,3.7-2.4,7.5-3.8,11.2c-0.6,1.7-1.3,3.3-1.8,5c-0.1,0-0.2,0.1-0.2,0.2
				c-0.3,0.6-0.6,1.2-0.9,1.8c-1.2,2.5-2.1,5.1-3,7.6c0,0,0,0,0,0c0,0,0,0.1-0.1,0.1c-0.4,0.8-0.6,1.6-1,2.4c0,0.1-0.1,0.2-0.1,0.3
				c0,0,0,0.1,0,0.1c-0.1,0.1-0.1,0.2-0.2,0.3c-1.1,1.8-2.1,3.7-3.1,5.7c-1.7,3.5-3.3,7.1-4.8,10.7c-0.1,0.2-0.1,0.3-0.2,0.5
				c0.2,0.1,0.3,0.3,0.5,0.4c0,0,0,0,0,0c0,0,0,0,0,0c0.5,0.4,1.1,0.8,1.6,1.2c0,0,0,0,0,0c0,0,0,0,0.1,0c0,0,0.1,0.1,0.1,0.1
				c0,0,0,0,0,0c8.2,5.8,18.6,8.3,28.4,10c0.9,0.2,1.8,0.3,2.8,0.4l0,0c0,0,0,0,0,0c1.2,0.2,2.5,0.4,3.7,0.5h0c0,0,0,0,0,0
				c0.1,0,0.2,0,0.2,0c0,0,0,0,0,0h0c0.8,0.1,1.5,0.2,2.3,0.3c0.3,0,0.5,0.1,0.8,0.1c0.6,0.1,1.2,0.1,1.8,0.2c0.3,0,0.6,0.1,0.9,0.1
				c0.6,0.1,1.2,0.1,1.8,0.2c0.3,0,0.5,0.1,0.8,0.1c0.8,0.1,1.5,0.2,2.3,0.3c0.5,0.1,1,0.1,1.4,0.2c2.6,0.3,5.3,0.7,7.9,0.7
				c0.6,0,1.2,0,1.8,0c0.3-0.2,0.6-0.5,0.8-0.7c0.8-0.7,1.1-1.5,0.9-2.5c-0.2-1.1-0.8-2.1-1.4-3.1c-1.2-1.8-2.7-3.3-4.3-4.8
				c-2.4-2.1-5-3.8-7.7-5.4c-0.2-0.1-0.4-0.2-0.5-0.4c0.1,0,0.1-0.1,0.2-0.1c2.2-1,4.1-2.3,6-3.7c7.2-5.6,14.1-11.6,20.4-18.2
				c0.7-0.7,1.4-1.4,2.1-2.1c0.2-0.2,0.4-0.3,0.7-0.1c0.5,0.3,1,0.6,1.6,0.9c2.4,1.3,4.9,2.4,7.4,3.6c1.1,0.5,2.2,0.6,3.4,0.3
				c1.8-0.4,3.2-1.4,4.6-2.5c1.3-1,2.4-2.1,3.4-3.4c0.2-0.3,0.5-0.4,0.8-0.3c0.9,0.2,1.7,0.3,2.6,0.5c2.6,0.5,5.2,0.8,7.9,1.1
				c2.4,0.3,4.9,0.5,7.3,0.7c2.5,0.2,5,0.2,7.5,0.1c2.6,0,5.1-0.2,7.7-0.7c2.4-0.5,4.5-1.5,6.4-3.1c1.5-1.3,2.7-2.9,3.7-4.6
				c1.2-2,2.3-4.1,3.3-6.2c2.1-4.4,4-8.9,5.8-13.5c2.2-5.5,3.9-11.2,5.3-16.9c0.5-2.2,1-4.4,1.4-6.6c0.2-1.5,0.2-3,0.4-4.5
				C233.4,287.2,233.4,287,233.4,286.9z"/>
			<polygon class="st0" points="87.9,345.4 87.9,345.4 87.9,345.4 			"/>
			<path class="st0" d="M237.1,287v-2.2c0-2.7-1.1-5.2-3.4-7.2c-2.3-2.1-5-3.6-8.1-4.4c-0.9-1.2-1.9-2.3-3.1-3.4
				c-1.1-1-2.9-2.4-5.3-3c-2.9-0.7-5.7,0.3-7.5,2.8c-1,1.3-1.5,2.7-1.9,4c-1,3.1-1.1,6.2-1.3,9.2c-0.1,1.3-0.1,2.3,0,3.4
				c-1.6,1.5-2.4,3.5-2.5,6c0,4.2,1.1,7.6,3.5,10.2c-1.4,2.1-2.8,4-4.3,5.9c-2.2,2.8-4.3,5.4-6.4,7.8c-2.8-0.7-5.6-1.4-8.3-2.1
				c-4.1-1.1-8.2-2.2-12.4-3.2c0,0,0,0,0,0c0.2-0.2,0.3-0.4,0.5-0.6c1.8-2.4,3-5.2,3.9-9c0.9-4,1.5-8,2-11.6c0.6-3.8,1-7.6,1.3-10.7
				c0.3-2.7-0.1-5.2-1.1-7.4c-0.6-1.4-1.1-2.6-1.4-3.8c-0.5-1.9-0.5-3.4,0.1-4.7c0.3-0.6,0.4-1.2,0.6-1.8c0.7-2.7,0.6-5.2-0.4-7.6
				c-0.7-1.7-5.1-10.5-6.8-13c-0.4-0.6-0.9-1.3-1.4-1.9c-0.2-0.3-0.5-0.6-0.7-0.9l-0.2-0.3c-1-1.3-2.1-2.5-3.1-3.7
				c-1-1.1-2.1-2.1-3.1-3.1c-0.5-0.5-1.1-1-1.6-1.4l-1-0.8c-1.2-0.9-2.4-1.6-3.7-2.3c-0.4-0.2-0.9-0.4-1.3-0.6
				c-0.2-0.1-0.4-0.2-0.5-0.2l0,0c-0.1,0-0.2-0.1-0.3-0.1c-0.3-0.1-0.6-0.2-1-0.3c-1.3-0.4-2.8-0.8-4.6-1.1c-0.2,0-0.4-0.1-0.6-0.1
				l-0.3,0c-0.1,0-0.2,0-0.4,0c-0.2,0-0.4,0-0.6-0.1c-0.8-0.1-1.6-0.1-2.4-0.2c-1.7-0.1-3.4-0.1-5.1,0c-0.9,0-1.8,0.1-2.7,0.2
				c-0.3,0-0.9,0.1-1.2,0.1c-0.4,0-0.7,0-1,0.1c-0.7,0.1-1.8,0.2-3.1,0.4c-3.3,0.6-6.3,1.5-8.8,2.9c-2.9,1.5-6.5,5-9.6,8.2
				c-2.7,2.8-4.8,5.6-6.5,8.7c-1.8,3.4-2.9,6.8-3.2,10.1c-0.4,3.4-0.3,6.5,0.3,9.3c-1.5,4.5-1.5,9,0,13.6c0.9,2.9,2.3,5.1,4.2,6.8
				c1.4,1.3,3.1,2.4,4.8,3.2c0.7,0.3,1.4,0.6,2.2,0.8c0.1,0.3,0.1,0.6,0.2,0.9c0.4,1.8,1,3.5,1.8,5.4c0,0,0,0,0,0
				c-2.4-0.4-4.7-0.7-7-0.9c-0.6-0.1-1.2-0.1-1.8-0.2c-3.7-0.4-7.1-0.8-10.4-1c-3.4-0.3-6.9-0.5-10.8-0.5c-3.6-0.1-7.2-0.1-11.2,0.1
				c-2.4,0.1-4.8,0.2-7.2,0.4c-2,0.2-3.8,0.3-5.9,0.6l-0.4,0c-2,0.2-4,0.4-6.1,0.9c-2.7,0.6-5,1.6-6.8,2.9c-1.6,1.1-3,2.4-4.6,3.9
				c-2.3,2.3-4.2,4.8-6,7.2c-2.3,3.1-4.5,6.4-6.3,9.3c-0.2-0.2-0.3-0.3-0.5-0.5l-3-2.6c0.4-1.2,0.4-2.5,0-3.7
				c-0.5-1.5-1.6-2.7-3-3.4l-12.3-6c-0.8-0.4-1.7-0.6-2.6-0.6c-1.8,0-3.6,0.9-4.7,2.3c-1.7,2.2-1.6,5.4,0.3,7.5l3.3,3.7l-0.7,0.8
				c-1.1,1.3-1.6,3-1.3,4.6c0.2,1.7,1.2,3.1,2.6,4.1l1.6,1.1l-2.4,4.3c-1.3,2.4-0.8,5.4,1.2,7.2l12.3,10.9c0.3,0.3,0.6,0.5,1,0.7
				c0,0.1,0,0.3,0,0.4l0,0.3l0,0.1c0,0,0,0,0,0.1c-0.3,2.5,0.2,4.7,1.4,6.7c1.2,2,3,3.2,5.1,3.5h0c-0.1,1.1,0,2.2,0.5,3.2
				c0.7,1.6,2,2.7,3.7,3.2l1.9,0.6c-0.2,1.1-0.2,2.3,0.3,3.4c0.6,1.5,1.8,2.7,3.3,3.3l16.8,6.7c0.7,0.3,1.4,0.4,2.2,0.4
				c1.9,0,3.7-0.9,4.8-2.5c1.6-2.3,1.4-5.3-0.5-7.3l-5.4-6l0.1-0.2c0.8-2.3,0-4.9-1.9-6.5l-3.4-2.8l1.6-3.5c1.1-2.4,0.5-5.2-1.5-6.9
				c0,0-2-1.7-4-3.5c0.2-1.1,0.2-2.1,0.2-2.6c0-1.7-0.5-3.3-1.5-4.6c2.1-1.2,4-2.5,5.9-3.8c2.8-2,6-4.4,8.5-7.7c0.1,0,0.1,0,0.2,0
				c0.5,0,1-0.1,1.5-0.1c0.2,1.3,0.8,2.4,1.7,3.2c1.2,1.1,2.8,1.5,4.5,1.3c1.9-0.3,3.8-0.4,5.8-0.5l0.2,0c2-0.1,4,0,6.2,0.1
				c0.6,0,1.2,0,1.8,0.1c1.2,0,2.5,0.1,3.7,0.2c-0.9,2.6-1.7,5.1-2.6,7.5c-0.2,0.6-0.5,1.2-0.7,1.9c-0.3,0.8-0.6,1.6-0.9,2.4
				c-0.1,0.1-0.2,0.3-0.2,0.4c-0.1,0.2-0.2,0.4-0.3,0.5c-0.2,0.4-0.5,0.9-0.7,1.3c-1.2,2.5-2.1,5-3,7.4l-0.1,0.4
				c-0.2,0.4-0.4,0.8-0.5,1.2l-0.4,0.8h0.1c0,0.1,0,0.1-0.1,0.1l-0.2,0.3l-0.1,0.3c0,0,0,0.1,0,0.1c0,0,0,0.1,0,0.1
				c-1.1,1.8-2.1,3.7-3.2,5.9c-1.4,2.8-2.7,5.7-3.9,8.5c-0.3,0.8-0.7,1.6-1,2.3c-0.1,0.1-0.1,0.2-0.2,0.3l-1.2,2.6l1,0.8l0,0l1,0.8
				l0,0.1l1.4,1l0.7,0.5l0.1,0l0.4,0.3c0,0,0.1,0.1,0.1,0.1l4.9,3.4l0.1-0.3c3.8,2,7.7,3.5,11.7,4.7c0.3-0.1,0.6-0.1,0.9-0.1
				c2.8,0,5.5,0.3,8.1,1.2c2,0.6,4,1.6,6.1,2.2c0.3,0.1,0.7,0.1,1,0.2c1.3,0.2,2.5,0.4,3.8,0.5l0.5,0.1h0c0.7,0.1,1.4,0.2,2,0.3
				l0.8,0.1c0.6,0.1,1.2,0.1,1.8,0.2l5.8,0.7c0.5,0.1,0.9,0.1,1.4,0.2l0.6,0.1c1.1,0.1,2.2,0.3,3.4,0.4c0.4-0.3,1-0.5,1.6-0.5
				c2.1-0.1,4-0.9,6-1.5c1-0.3,2-0.5,3.1-0.7c0.9-1.3,1.2-2.9,0.8-4.7c-0.4-1.8-1.3-3.3-2-4.4c-1.3-1.9-2.9-3.7-4.9-5.5
				c-1.2-1-2.4-2-3.7-2.9c0.5-0.3,1-0.7,1.5-1.1c7.5-5.8,14.5-12,20.8-18.5c0.1-0.1,0.3-0.3,0.4-0.4c1.7,0.9,3.3,1.6,5,2.4
				c0.7,0.3,1.4,0.7,2.1,1c1.8,0.9,3.8,1,5.8,0.5c2.7-0.7,4.7-2.1,6-3.2c1-0.8,1.9-1.7,2.8-2.6c0.4,0.1,0.7,0.1,1.1,0.2
				c2.4,0.4,5.1,0.8,8.1,1.2c2.5,0.3,5.1,0.5,7.5,0.7c2.9,0.2,5.7,0.2,7.8,0.1c2.7,0,5.5-0.2,8.4-0.8c3.2-0.7,5.8-2,8-3.9
				c1.6-1.4,3-3.2,4.4-5.5c1.1-1.8,2.2-3.8,3.5-6.5c2.3-4.6,4.2-9.5,5.9-13.7c2.1-5.3,3.9-11,5.5-17.4c0.6-2.3,1.1-4.6,1.4-6.9
				c0.1-0.9,0.2-1.8,0.2-2.7c0-0.6,0.1-1.1,0.1-1.6C237.1,287.6,237.1,287.2,237.1,287z M229.8,286.8
				C229.8,286.8,229.7,286.8,229.8,286.8L229.8,286.8c-0.1,1-0.2,1.8-0.2,2.5c0,0.7-0.1,1.4-0.2,2c-0.3,2.1-0.8,4.1-1.3,6.2
				c-1.5,6.1-3.2,11.5-5.2,16.5c-1.7,4.2-3.6,8.9-5.7,13.3c-1.2,2.5-2.2,4.3-3.2,5.9c-1,1.6-1.9,2.8-3,3.8c-1.2,1.1-2.8,1.8-4.8,2.3
				c-2.3,0.5-4.6,0.6-6.9,0.6c-2,0-4.6,0-7.2-0.1c-2.3-0.2-4.7-0.4-7.1-0.7c-2.9-0.3-5.4-0.7-7.7-1.1c-0.7-0.1-1.6-0.3-2.5-0.5
				c-1.7-0.3-3.3,0.2-4.4,1.5c-0.9,1.1-1.9,2-2.9,2.8c-1.2,1-2.2,1.5-3.2,1.8c-0.5,0.1-0.7,0.1-0.9,0c-0.7-0.3-1.5-0.7-2.2-1
				c-1.8-0.8-3.4-1.6-5.1-2.5c-0.4-0.2-0.8-0.4-1.2-0.7c-1.7-1.2-3.9-1-5.4,0.6c-0.4,0.4-0.8,0.8-1.1,1.2c-0.3,0.3-0.6,0.6-0.9,0.9
				c-6,6.3-12.8,12.3-20,17.8c-1.9,1.4-3.6,2.5-5.3,3.3c-0.3,0.2-0.6,0.3-0.7,0.4l-3.2,2.1l2.3,3.1c0.6,0.8,1.2,1.2,1.6,1.3
				c2.8,1.7,5.1,3.2,7.1,5c1.5,1.4,2.8,2.7,3.7,4.1c0.1,0.2,0.3,0.4,0.4,0.6c-2-0.1-4.1-0.3-6.3-0.6l-0.7-0.1
				c-0.5-0.1-1-0.1-1.5-0.2l-5.8-0.7c-0.6-0.1-1.2-0.1-1.8-0.2l-0.8-0.1c-0.7-0.1-1.5-0.2-2.2-0.3l-0.2,0h0l-0.2,0h0
				c-1.1-0.2-2.2-0.3-3.4-0.5c-0.9-0.1-1.8-0.3-2.7-0.4c-8.8-1.5-18.8-3.8-26.6-9.2l0.1-0.6c1.1-2.6,2.3-5.3,3.6-7.9
				c1-2,1.9-3.8,2.9-5.4c0-0.1,0.1-0.1,0.1-0.2l0.2-0.3l0.1-0.5c0,0,0-0.1,0.1-0.1c0.3-0.5,0.5-1.1,0.6-1.5c0.1-0.3,0.2-0.5,0.3-0.7
				c0,0,0-0.1,0.1-0.1l0.2-0.3l0.1-0.2l2.9,0.8l-1.1-5.7c0.3-0.7,0.6-1.4,0.9-2.1l0.6,0.1L94,340c0.3-0.9,0.7-1.9,1-2.9
				c0.3-0.7,0.5-1.3,0.7-2c1.2-3.5,2.5-7.2,3.8-11.3c0.2-0.6,0.7-2.2-0.3-3.8c-1-1.6-2.7-1.8-3.4-1.8c-2.6-0.3-5.3-0.4-7.8-0.5
				c-0.6,0-1.1,0-1.7-0.1c-2.2-0.1-4.5-0.2-6.9-0.1l-0.2,0c-1.3,0.1-2.7,0.1-4.1,0.3c0.1-0.8,0.1-1.9-0.8-3
				c-1.1-1.4-2.8-1.5-3.3-1.5c-2,0-3.9,0.1-5.8,0.3c-0.4,0-0.8,0.1-1.1,0.1c-2,0.2-3.1,1.2-3.7,2.1c-1.9,2.8-4.7,5-7.4,6.9
				c-3,2.1-6.3,4.1-10.1,6.1l-7.5,3.9l8,2.8c0.5,0.2,1,0.5,1.6,0.9c0.5,0.4,0.5,0.6,0.5,0.8l0,0.1c0,0.8-0.1,1.6-0.2,1.9l-1.5,2.6
				l3.7,3.2c1.3,1.2,2.7,2.3,3.5,3.1l-3.6,7.7l7.1,5.7l-1.1,3.3l4.1,4.5l-9.6-3.8l2.4-5.1l-8.2-2.4c0.3-0.6,0.6-1.3,0.9-1.9
				c0.3-0.6,0.6-1.2,0.8-1.6l1.5-3.1l-3.1-1.7c-0.5-0.3-1.2-0.6-1.8-1l-3.5-1.9l-1.6,3.6c0,0,0,0,0,0.1c-0.2-0.4-0.3-0.9-0.2-1.7
				c0-0.3,0.1-0.6,0.1-1c0.1-1.8-0.4-3.7-1.4-5.4l-1-1.7l-1.4-0.1l-11.1-9.9l5.1-9.2l-6-3.9l3.7-4.4l-2.6-2.9l4.3,2.1l-1.5,3
				l6.4,5.6l-3.2,6.2l8.2,5.8l2.3-3.9c0.5-0.8,0.9-1.6,1.4-2.3c2.5-4.2,5.9-9.8,9.8-15c1.8-2.5,3.4-4.5,5.3-6.4
				c1.2-1.2,2.4-2.3,3.6-3.1c1.1-0.8,2.4-1.3,4.2-1.7c1.6-0.4,3.4-0.5,5.2-0.7l0.4,0c2.1-0.2,3.9-0.4,5.8-0.5c2.3-0.2,4.7-0.3,7-0.4
				c3.8-0.2,7.3-0.2,10.7-0.1c3.7,0.1,7.1,0.3,10.4,0.5c3.3,0.3,6.6,0.6,10.1,1c0.6,0.1,1.3,0.1,1.9,0.2c2.4,0.3,4.7,0.5,7,1
				c1.8,0.4,3.5,0,4.9-1.2c0.4-0.3,0.9-0.5,1.4-0.8c1.2-0.5,2.1-1.4,2.5-2.5c0.4-1.1,0.3-2.4-0.2-3.6c-1.1-2.3-1.9-4.3-2.3-6.3
				c-0.2-0.7-0.3-1.4-0.3-2.1c-0.1-2-1.3-3.5-3.2-4c-0.5-0.1-1-0.2-1.3-0.2l-0.1,0c-0.5-0.1-1-0.2-1.6-0.5c-1-0.5-2-1.1-2.9-1.9
				c-0.9-0.8-1.6-2-2.1-3.6c-1.1-3.3-1-6.4,0.1-9.5c0.5-1.3,0.2-2.5,0.1-2.9c-0.5-2.2-0.6-4.6-0.3-7.5c0.3-2.4,1-4.9,2.4-7.5
				c1.3-2.5,3-4.8,5.2-7c1.5-1.5,5.5-5.6,7.8-6.8c2.4-1.3,5.2-1.9,7.1-2.2l0,0.1l3.1-0.4c0.1,0,0.8-0.1,1.1-0.1
				c0.8-0.1,1.6-0.1,2.4-0.2c1.5-0.1,3-0.1,4.4,0c0.7,0,1.4,0.1,2,0.2c0.1,0,0.3,0,0.4,0c0.1,0,0.3,0,0.4,0l0,0
				c0.2,0,0.3,0.1,0.5,0.1c1.5,0.3,2.6,0.5,3.6,0.8c0.2,0.1,0.4,0.1,0.6,0.2c0,0,0.1,0,0.1,0c0.1,0,0.1,0.1,0.2,0.1c0,0,0,0,0,0l0,0
				c0,0,0,0,0.1,0c0.3,0.1,0.6,0.3,0.8,0.4c0.9,0.5,1.9,1.1,2.8,1.8l0.7,0.5c0.4,0.4,0.9,0.8,1.4,1.2c0.9,0.8,1.8,1.7,2.6,2.6
				c0.9,1,1.9,2.1,2.8,3.2l0.1,0.2c0.2,0.3,0.4,0.6,0.6,0.8c0.4,0.6,0.8,1.1,1.2,1.7c1.3,1.9,5.4,10.2,6.1,11.7
				c0.4,0.9,0.4,1.8,0.1,2.9c-0.1,0.3-0.2,0.6-0.3,0.9c-1.2,2.8-1.4,5.9-0.4,9.5c0.4,1.6,1,3.2,1.8,4.9c0.5,1,0.6,2.2,0.5,3.6
				c-0.3,3.1-0.7,6.7-1.3,10.4c-0.5,3.4-1.1,7.3-1.9,10.9c-0.7,2.8-1.5,4.8-2.6,6.3c-0.9,1.2-1.8,1.8-3.1,1.9
				c-1.2,0.1-3.4,0.4-3.4,0.4l-21.9,2.3l21.5,4.9c2.3,0.5,4.6,1.1,6.8,1.6c1.3,0.3,2.5,0.6,3.8,0.9c4.1,1,8.2,2.1,12.3,3.1
				c3.1,0.8,6.4,1.7,9.6,2.5c1.4,0.4,3.5,0.4,5.3-1.7c2.4-2.8,4.8-5.7,7.4-9c2.1-2.7,4.2-5.6,6.1-8.7c1.2-2,0.8-4.3-1.1-5.7
				c-1.9-1.4-2.7-3.3-2.7-6.2c0-0.2,0-0.5,0.1-0.7c1.9-0.8,2.9-2.7,2.5-4.8c-0.2-1-0.2-2.1-0.2-3.6c0.1-2.6,0.2-5.1,0.9-7.3
				c0.2-0.8,0.5-1.4,0.8-1.8c0.6,0.1,1.2,0.5,1.9,1.2c1,0.9,1.8,1.8,2.4,2.8c0.8,1.1,1.9,1.9,3.2,2.2c2.1,0.4,3.9,1.4,5.4,2.8
				c0.9,0.8,1,1.4,1,1.9V286.8z"/>
			<path class="st0" d="M88,353.6L88,353.6C88,353.6,88,353.6,88,353.6z"/>
			<path class="st0" d="M88.4,352.8C88.4,352.8,88.4,352.8,88.4,352.8C88.4,352.8,88.4,352.8,88.4,352.8z"/>
			<path class="st0" d="M51.9,348.8C51.9,348.8,51.9,348.8,51.9,348.8C51.9,348.8,51.9,348.8,51.9,348.8z"/>
			<path class="st0" d="M107.6,262.6C107.6,262.6,107.6,262.6,107.6,262.6C107.6,262.6,107.6,262.6,107.6,262.6z"/>
			<path class="st0" d="M136,228.3C136,228.3,136.1,228.4,136,228.3L136,228.3z"/>
		</g>
		<g>
			<path class="st0" d="M102.5,382.2c0.5,0.2,1,0.3,1.5,0.5l2.7-6l-7.5,4.7C100.3,381.5,101.4,381.8,102.5,382.2z"/>
		</g>
		<g>
			<path class="st0" d="M102.5,382.2c0.5,0.2,1,0.3,1.5,0.5l3.1-6.3l-7.9,5C100.3,381.5,101.4,381.8,102.5,382.2z"/>
		</g>
		<g>
			<path class="st0" d="M102.5,382.2c0.5,0.2,1,0.3,1.4,0.5l3.2-6.2l-7.9,4.9C100.3,381.5,101.4,381.8,102.5,382.2z"/>
		</g>
	</g>
	<path class="st0" d="M121,388.3c-41.8,0-75.8-34-75.8-75.8s34-75.8,75.8-75.8s75.8,34,75.8,75.8S162.8,388.3,121,388.3z M121,243.1
		c-38.3,0-69.4,31.1-69.4,69.4S82.7,382,121,382c38.3,0,69.4-31.1,69.4-69.4S159.3,243.1,121,243.1z"/>
	<path class="st1" d="M233.4,286.9c0-0.1,0-0.2,0-0.3c0-0.3,0-0.7,0-1c0-0.1,0-0.2,0-0.3c0-0.2,0-0.3,0-0.5c0-1.9-0.9-3.4-2.2-4.6
		c-2-1.9-4.4-3.1-7.2-3.7c-0.4-0.1-0.7-0.3-1-0.7c-0.9-1.3-1.9-2.4-3-3.4c-1.1-1-2.2-1.8-3.6-2.1c-1.5-0.4-2.8,0.1-3.7,1.4
		c-0.6,0.9-1,1.9-1.3,2.9c-0.8,2.7-1,5.5-1.1,8.2c-0.1,1.5-0.1,3,0.2,4.5c0.1,0.4-0.1,0.6-0.4,0.8c-0.3,0.1-0.6,0.3-0.9,0.6
		c-1,0.9-1.3,2.1-1.3,3.4c0,3.7,1.1,6.9,4.1,9.2c0.3,0.2,0.4,0.5,0.2,0.8c-1.8,2.9-3.7,5.7-5.9,8.4c-2.4,3-4.8,6-7.3,8.9
		c-0.5,0.6-0.9,0.7-1.7,0.6c-7.3-1.8-14.5-3.8-21.9-5.6c-3.6-0.9-7.1-1.8-10.7-2.6c0,0,2.2-0.2,3.5-0.4c2.4-0.3,4.2-1.5,5.6-3.4
		c1.7-2.3,2.6-4.9,3.2-7.7c0.9-3.7,1.4-7.5,2-11.3c0.5-3.5,0.9-7,1.3-10.6c0.2-1.9,0-3.8-0.8-5.5c-0.6-1.4-1.2-2.8-1.6-4.3
		c-0.6-2.4-0.8-4.8,0.2-7.1c0.2-0.4,0.3-0.9,0.4-1.3c0.5-1.8,0.5-3.5-0.2-5.2c-0.6-1.6-4.9-10.1-6.4-12.3c-0.4-0.6-0.9-1.2-1.3-1.8
		c-0.2-0.3-0.5-0.6-0.7-0.9c-0.1-0.1-0.1-0.1-0.2-0.2c-0.9-1.2-1.9-2.3-3-3.5c-0.9-1-1.9-1.9-2.9-2.8c-0.5-0.4-1-0.9-1.5-1.3
		c-0.1-0.1-0.2-0.2-0.4-0.3c0,0,0,0-0.1-0.1c-0.1-0.1-0.3-0.2-0.4-0.3c-1-0.7-2.1-1.4-3.2-2c-0.5-0.3-1.1-0.5-1.7-0.8
		c0.2,0.1,0.3,0.1,0.4,0.2c0.3,0.1,0.5,0.2,0,0c-0.1-0.1-0.2-0.1-0.3-0.1c-0.3-0.1-0.5-0.2-0.8-0.3c-1.3-0.4-2.7-0.7-4.1-1
		c-0.2,0-0.4-0.1-0.7-0.1c-0.3,0-0.6-0.1-0.9-0.1c-0.7-0.1-1.5-0.1-2.2-0.2c-1.6-0.1-3.2-0.1-4.8,0c-0.8,0-1.7,0.1-2.5,0.2
		c-0.4,0-1.2,0.1-1.3,0.1c0,0-6.3,0.2-11.5,2.9c-2.5,1.3-6,4.7-8.7,7.5c-2.3,2.4-4.3,4.9-5.9,7.9c-1.5,2.8-2.5,5.7-2.8,8.8
		c-0.3,2.9-0.3,5.8,0.4,8.6c0.1,0.3,0.1,0.5,0,0.8c-1.4,4-1.5,7.9-0.2,11.9c0.6,2,1.6,3.8,3.1,5.2c1.1,1,2.4,1.9,3.8,2.5
		c0.9,0.4,1.7,0.7,2.7,0.8c0.3,0,0.6,0,0.8,0.1c0.3,0.1,0.5,0.2,0.5,0.6c0,0.9,0.2,1.8,0.4,2.7c0.6,2.5,1.5,4.8,2.6,7.1
		c0.3,0.5,0.1,0.9-0.4,1.1c-0.8,0.3-1.6,0.7-2.3,1.3c-0.6,0.5-1.2,0.6-1.9,0.4c-3-0.6-6.1-0.9-9.1-1.2c-3.4-0.4-6.8-0.8-10.3-1
		c-3.5-0.3-7-0.4-10.6-0.5c-3.6-0.1-7.3,0-10.9,0.1c-2.4,0.1-4.7,0.2-7.1,0.4c-2,0.2-3.9,0.3-5.9,0.5c-2,0.2-4,0.4-6,0.8
		c-2,0.4-3.8,1.1-5.5,2.3c-1.5,1.1-2.8,2.2-4.1,3.5c-2.1,2.1-3.9,4.4-5.6,6.8c-3.6,4.9-6.9,10.1-10,15.3c-0.6,1-1.1,1.9-1.7,2.9
		l-2.3-1.7l2.3-4.4c0.5-0.9,0.3-2-0.5-2.7l-5.1-4.4l0.9-1.7c0.3-0.5,0.3-1.1,0.1-1.7c-0.2-0.6-0.6-1-1.1-1.3l-12.3-6
		c-0.3-0.2-0.6-0.2-1-0.2c-0.7,0-1.3,0.3-1.8,0.9c-0.6,0.8-0.6,2,0.1,2.8l5.4,6.1l-2.7,3.2c-0.4,0.5-0.6,1.1-0.5,1.7
		c0.1,0.6,0.4,1.2,1,1.5l4.5,2.9l-4,7.3c-0.5,0.9-0.3,2,0.5,2.7l12.3,10.9c0.4,0.3,0.8,0.5,1.3,0.6c0.6,1.1,1,2.3,0.9,3.6
		c0,0.1,0,0.3,0,0.6c-0.2,1.6,0.1,3,0.9,4.4c1.3,2.1,3.5,2.4,5.4,0.8c0.1,0,0.1-0.1,0.2-0.2c0.2-0.3,0.4-0.6,0.5-0.9
		c0.1-0.2,0.2-0.4,0.3-0.6c0.6,0.3,1.3,0.7,1.8,1c-0.2,0.5-0.5,1-0.8,1.7c-0.8,1.7-1.6,3.5-1.6,3.5c-0.3,0.6-0.3,1.3,0,1.8
		c0.3,0.6,0.8,1,1.4,1.2l5.8,1.7l-1.2,2.7c-0.3,0.6-0.3,1.2,0,1.7c0.2,0.6,0.7,1,1.2,1.2l16.8,6.7c0.3,0.1,0.5,0.2,0.8,0.2
		c0.7,0,1.4-0.3,1.8-1c0.6-0.8,0.5-2-0.2-2.8l-6.9-7.6l0.8-2.3c0.3-0.9,0-1.9-0.7-2.4l-5.6-4.5l2.8-6.1c0.4-0.9,0.2-2-0.6-2.6
		c0,0-2.2-1.9-4.4-3.8c-0.5-0.4-1-0.9-1.4-1.2c0.7-1.3,0.7-3.4,0.7-3.8c0-1.5-0.7-2.8-2.1-3.8c-0.8-0.5-1.5-1-2.4-1.3
		c3.7-1.9,7.2-4,10.5-6.3c3.1-2.2,6.1-4.6,8.3-7.8c0.3-0.4,0.6-0.4,1-0.5c2.2-0.2,4.4-0.4,6.5-0.4c0.6,0,0.6,0,0.4,0.6
		c-0.2,0.7-0.4,1.4-0.4,2.2c0,1.3,0.9,2.1,2.2,1.9c2.1-0.3,4.3-0.4,6.4-0.5c2.8-0.1,5.5,0,8.3,0.1c2.5,0.1,5.1,0.2,7.6,0.4
		c0.8,0.1,0.9,0.1,0.7,0.9c-1.2,3.7-2.4,7.5-3.8,11.2c-0.6,1.7-1.3,3.3-1.8,5c-0.1,0.4-0.1,0.8-0.1,1.1c0.1,1.9-0.1,3.8,0.1,5.8
		c0.3,2.8,0.9,5.5,2.4,7.9c0.1,0.2,0.3,0.4,0.3,0.6c-0.1,0-0.2-0.1-0.3-0.1c-1.2-1.1-2.4-2.3-3.2-3.8c-0.7-1.4-1.2-2.9-1.5-4.5
		c0-0.2,0-0.5-0.3-0.6c-0.3-0.1-0.3,0.3-0.5,0.5c-0.1,0.2-0.2,0.4-0.3,0.6c-0.3,0.7-0.6,1.5-1,2.2c-0.4,0.8-0.6,1.6-1,2.4
		c0,0.1-0.1,0.2-0.1,0.3c0,0.1,0,0.1-0.1,0.2c-0.8,1.7-1.6,3.4-2.3,5.2c-0.4,0.9-0.9,1.8-1.1,2.8c-0.4,2.4-1.1,4.6-1.8,6.9
		c-0.4,1.3-0.7,2.6-1,3.9c8.2,5.9,18.7,8.4,28.5,10.1c5.7,1,11.5,1.6,17.3,2.3c3.1,0.4,6.2,0.8,9.4,0.9c0.6,0,1.2,0,1.8,0
		c0.3-0.2,0.6-0.5,0.8-0.7c0.8-0.7,1.1-1.5,0.9-2.5c-0.2-1.1-0.8-2.1-1.4-3.1c-1.2-1.8-2.7-3.3-4.3-4.8c-2.4-2.1-5-3.8-7.7-5.4
		c-0.2-0.1-0.4-0.2-0.5-0.4c0.1,0,0.1-0.1,0.2-0.1c2.2-1,4.1-2.3,6-3.7c7.2-5.6,14.1-11.6,20.4-18.2c0.7-0.7,1.4-1.4,2.1-2.1
		c0.2-0.2,0.4-0.3,0.7-0.1c0.5,0.3,1,0.6,1.6,0.9c2.4,1.3,4.9,2.4,7.4,3.6c1.1,0.5,2.2,0.6,3.4,0.3c1.8-0.4,3.2-1.4,4.6-2.5
		c1.3-1,2.4-2.1,3.4-3.4c0.2-0.3,0.5-0.4,0.8-0.3c0.9,0.2,1.7,0.3,2.6,0.5c2.6,0.5,5.2,0.8,7.9,1.1c2.4,0.3,4.9,0.5,7.3,0.7
		c2.5,0.2,5,0.2,7.5,0.1c2.6,0,5.1-0.2,7.7-0.7c2.4-0.5,4.5-1.5,6.4-3.1c1.5-1.3,2.7-2.9,3.7-4.6c1.2-2,2.3-4.1,3.3-6.2
		c2.1-4.4,4-8.9,5.8-13.5c2.2-5.5,3.9-11.2,5.3-16.9c0.5-2.2,1-4.4,1.4-6.6c0.2-1.5,0.2-3,0.4-4.5
		C233.4,287.2,233.4,287,233.4,286.9z"/>
	<path class="st2" d="M43.8,341.1c0.2,0,9,6.5,9,6.5l-3.5,7.7l7,5.6l-1.2,3.5l7.8,8.5L46,366.3l2.3-5l-8.2-2.5c0,0,3.2-6.9,3.3-6.9
		s-4.2-2.3-4.2-2.3s1.1-3.2,2-5C42.2,342.8,43.8,341.1,43.8,341.1z"/>
	<path class="st2" d="M32.3,329.4l-4-2.9l3.2-6.1l-6.4-5.6l1.7-3.3l-12.3-6l6.7,7.5l-4,4.7l6.2,4.1l-5,9.1l12.3,10.9
		c0,0-1.3-2.7-0.8-5.3S32.3,329.4,32.3,329.4z"/>
	<path class="st3" d="M226.1,285.9c0-0.4,0-0.8,0-1.3c0-0.2,0-0.4,0-0.7c0-0.2,0-0.4-0.2-0.5c-0.2-0.1-0.3,0.1-0.4,0.3
		c-0.2,0.2-0.4,0.5-0.6,0.8c-0.1,0.1-0.1,0.3-0.3,0.3c-0.2,0.1-0.3,0-0.4-0.1c-1.2-0.9-2.4-1.6-3.6-2.4c-0.1-0.1-0.1-0.2,0-0.3
		c0.1-0.1,0.1-0.2,0.2-0.4c0-0.1,0-0.3-0.1-0.4c-0.1-0.1-0.3-0.1-0.4,0c-0.1,0.1-0.2,0.2-0.3,0.2c-0.8-0.3-1.3-0.9-2-1.4
		c-1.2-1-2.3-2.2-3-3.7c-0.2-0.4-0.3-0.7-0.2-1.1c0.1-0.4,0.3-0.8,0.5-1.2c0.3-0.5,0.8-0.6,1.3-0.4c0.4,0.2,0.7,0.4,1,0.7
		c1.3,1.3,2.5,2.6,3.5,4.2c0.2,0.4,0.5,0.6,0.9,0.7c0.4,0.1,0.7,0.2,1.1,0.2c1.6,0.2,3.1,0.7,4.6,1.4c2.3,1.1,3.5,3.1,3.7,5.6
		c0.1,0.8-0.1,1.5-0.2,2.2c-0.7,3-1.4,6-2.3,9c-1.6,5.5-3.5,10.8-5.6,16c-1.5,3.9-3,7.8-4.8,11.6c-1,2.3-2.1,4.5-3.3,6.7
		c-0.9,1.6-1.8,3.1-3.2,4.4c-0.2,0.2-0.4,0.4-0.6,0.5c-0.8,0.4-1.6,0.3-2.4,0.4c-4.6,0.2-9-0.4-13.3-1.9c-4.5-1.6-8.5-4-12.1-7.1
		c-0.9-0.7-1.6-1.6-1.8-2.7c-0.1-0.8,0-1.5,0.3-2.2c0.5-1.4,1.4-2.5,2.4-3.5c0.1-0.1,0.3-0.2,0.4-0.2c1,0.2,2,0.5,3.1,0.7
		c2.8,0.7,5.5,1.4,8.3,2.1c0.1,0,0.1,0,0.2,0.1c0,0.2-0.2,0.3-0.3,0.4c-0.8,0.8-1.7,1.7-2.4,2.6c-0.3,0.4-0.7,0.9-0.9,1.4
		c-0.1,0.2-0.2,0.3-0.1,0.5c0,0.3,0.3,0.5,0.6,0.4c0.3-0.1,0.5-0.2,0.8-0.3c0.5-0.3,1.1-0.5,1.6-0.8c4.8-2.3,8.9-5.5,12.4-9.5
		c2.5-2.8,4.7-5.9,6.6-9.1c0.5-0.8,1-1.6,1.5-2.5c0.6-1,1.1-2,1.4-3.1c0.1-0.3,0.2-0.3,0.5-0.3c0.8,0.1,1.5,0,2.3-0.2
		c1-0.3,1.9-0.9,2.5-1.7c0.1-0.1,0.3-0.3,0.1-0.5c-0.1-0.2-0.3-0.1-0.4-0.1c-1.1,0.1-2.2,0-3.3-0.1c-0.8-0.1-1.6-0.2-2.4-0.5
		c-0.1-0.1-0.1-0.1-0.1-0.2c0.4-1.1,1-2.1,2.1-2.7c0.2-0.1,0.4-0.1,0.6-0.1c0.6,0.1,1.2,0.1,1.7,0.1c1.7-0.2,2.9-1,3.4-2.6
		c0.1,0,0.2,0.1,0.2,0.1c0.9,0.8,1.9,1.1,3.1,1c0.4,0,0.6-0.2,0.8-0.5c0.2-0.4,0.3-0.8,0.5-1.2c0.3-0.7,0.1-1.3-0.1-2
		c-0.1-0.4,0.1-0.9,0.1-1.3c-0.1-1-0.6-1.7-1.2-2.4C227.3,287.2,226.6,286.6,226.1,285.9z"/>
	<path class="st4" d="M125.6,316.2c0.5-0.2,0.6-0.5,0.6-0.9c0-0.7-0.1-1.4-0.3-2c-0.3-1.1-0.8-2.1-1.4-3c-0.5-0.6-0.4-1.4-0.4-2.1
		c-0.1-1.9-0.1-3.8,0.1-5.7c0-0.5,0.1-0.9,0.4-1.3c0-0.1,0.1-0.1,0.2-0.2c0.1,0.5,0.1,1,0.1,1.6c0.1,1.7,0.3,3.5,0.5,5.2
		c0.5,3.9,1.3,7.7,2.7,11.4c0.2,0.6,0.5,1.3,1,1.8c0.1,0.2,0.2,0.3,0.2,0.5c0,1.6,0.1,3.1,0.1,4.7c0,3.1-0.6,6.1-1.6,9
		c-1.5,4.4-3.2,8.8-4.9,13.2c0,0.1-0.1,0.1-0.1,0.2c-0.2,0.4-0.5,0.7-0.8,1.1c-1.9,1.8-3.8,3.4-6.1,4.6c-0.6,0.3-0.8,0.3-1-0.4
		c-0.6-1.4-1-3-1.3-4.5c-0.5-2.4-0.9-4.7-1.7-7c-0.1-0.3-0.2-0.6-0.4-0.9c-0.3,0.6-0.6,1.1-0.8,1.7c-1.5,3.6-2.3,7.3-3,11.1
		c-0.1,0.3,0,0.9-0.4,1c-0.4,0.1-0.5-0.4-0.7-0.7c-2.3-4.1-3.8-8.6-4.5-13.3c-0.3-2.3-0.6-4.6-0.5-7c0.1-4,0.8-8,1.9-11.8
		c1.3-4.3,3.1-8.3,5.7-12.1c1.2-1.8,2.6-3.5,4.2-5.1c0.1-0.1,0.1-0.1,0.2-0.2c0.2-0.1,0.3-0.4,0.6-0.3c0.2,0.1,0.1,0.4,0,0.6
		c-0.5,1.8-0.7,3.6-0.8,5.5c-0.1,1.4-0.2,2.7-0.2,4.1c0,0.6,0,0.6,0.6,0.5c0.7-0.2,1.5-0.3,2.2-0.5c1.3-0.3,2.7-0.3,4.1-0.2
		c1.7,0.1,3,0.9,4.2,2.1c0.5,0.6,1,1.2,1.4,1.9c-0.2-0.7-0.3-1.3-0.4-2C125.2,316.4,125.3,316.2,125.6,316.2z"/>
	<path class="st5" d="M95.9,369.3c1.6,1.4,3.4,2.4,5.4,3.1c2.6,1,5.3,1.4,8,1.2c2.2-0.2,4.4-0.7,6.7-0.9c1.3-0.1,2.6,0,4,0.3
		c-0.5,0.3-1,0.5-1.5,0.7c-0.9,0.4-1.9,0.7-2.8,1.2c-0.1,0.1-0.3,0.1-0.3,0.3c0,0.2,0.2,0.3,0.3,0.3c0.5,0.2,0.9,0.3,1.4,0.4
		c1.9,0.5,3.8,0.9,5.8,0.8c-3.1,1-5.9,2.5-8.6,4.3c-0.2,0.1-0.3,0.2-0.5,0.3c3.6,0.5,7.2,0.9,10.8,1.3c2.2,0.3,4.4,0.6,6.6,0.7
		c1-0.8,2-1.6,3-2.4c0.4-0.3,0.4-0.3,0.2-0.8c-0.3-0.8-0.8-1.5-1.4-2.2c-1.5-1.7-3.2-3.2-5-4.6c-2.6-2-5.3-3.6-8.2-5.2
		c-2.8-1.5-5.6-2.7-8.7-3.5c-5.2-1.3-10.5-2.1-15.8-2.8c-0.6-0.2-1,0.1-1.3,0.5c-0.5,0.7-0.6,1.5-0.5,2.3
		C93.7,366.7,94.6,368.1,95.9,369.3z"/>
	<path class="st4" d="M132.7,321.8c0.1,0,0.3,0.1,0.4,0.1c1.3-0.1,2.6-0.1,3.9-0.3c0.4-0.1,0.9-0.2,1.3-0.3c0.6-0.2,1.1,0,1.7,0.3
		c2.3,1.4,3.6,3.5,4.1,6.1c0,0.1,0,0.2,0.1,0.4c0.1,0.4,0.2,0.3,0.4,0.1c0.5-0.6,1-1.1,1.5-1.6c0.2-0.2,0.4-0.3,0.4,0.1
		c0,0.2,0.1,0.4,0.3,0.6c0.4,0.6,1,0.8,1.6,0.5c0.4-0.2,0.7-0.4,1-0.7c2-1.8,3.4-3.9,4.4-6.4c1-2.6,1.6-5.3,1.4-8.1
		c0-0.1,0-0.2,0-0.4c0.3,0,0.6,0.2,0.8,0.3c1.6,0.6,3.4,1,5.1,1.4c0.9,0.2,1.7,0.4,2.6,0.7c0.6,0.2,0.6,0.2,0.6,0.8
		c-0.1,1.7-0.7,3.2-1.5,4.7c-0.7,1.3-1.5,2.5-2.3,3.7c-0.3,0.5-0.6,1-0.9,1.5c-0.3,0.5-0.6,0.9-1,1.2c-0.4-0.1-0.2-0.4-0.2-0.6
		c0.2-0.9,0.6-1.7,0.9-2.6c0.3-0.9,0.6-1.8,0.6-2.8c0-0.2,0-0.5-0.2-0.8c-0.5,1-0.9,2-1.4,3.1c-2.7,6.1-5.9,12-9.9,17.4
		c-1.6,2.1-3.4,4.1-5.1,6.1c-0.1,0.1-0.3,0.2-0.3,0.3c-1.7,1.7-3.4,3.3-5.2,4.9c-0.6,0.5-1.2,1-1.8,1.6c-0.6,0.6-1.2,1-2,1.4
		c-2.2,1.1-4.3,2.4-6.6,3.4c-2,1-4,1.8-6.2,2.3c-0.3,0.1-0.6,0.1-0.9,0.2c0,0-0.1,0-0.1,0c-0.1-0.1,0-0.1,0-0.2
		c1.7-2.7,3-5.6,4.2-8.6c1.7-4.3,3.3-8.7,4.8-13.1c1-3.1,1.8-6.2,2.2-9.4c0.1-1.1-0.1-5.9-0.2-6.7c0-0.2-0.1-0.5,0.1-0.7
		C131.9,321.7,132.3,321.7,132.7,321.8z"/>
	<path class="st6" d="M125.6,316.2c-0.2,0.1-0.3,0.3-0.2,0.6c0.2,0.8,0.3,1.6,0.5,2.4c-0.2,0.1-0.2-0.1-0.2-0.2
		c-0.4-0.8-0.9-1.5-1.5-2.1c-1.2-1.2-2.6-2-4.4-2c-2-0.1-3.9,0.3-5.9,0.8c-0.2,0-0.4,0.1-0.6,0.2c-0.2,0.1-0.3-0.1-0.3-0.3
		c0.1-1,0.2-2,0.2-3.1c0.1-2.6,0.3-5.1,1-7.6c-0.6,0.6-1.2,1.1-1.7,1.7c-0.7,0.8-1.3,1.6-2,2.4c-1,1.4-2,2.8-2.8,4.3
		c-0.9,1.7-1.8,3.4-2.5,5.2c-0.9,2.2-1.6,4.5-2.1,6.8c-0.4,1.6-0.7,3.2-0.9,4.9c-0.1,1-0.2,2.1-0.3,3.1c0,0.7-0.1,1.5-0.1,2.2
		c0,1.2,0.1,2.3,0.2,3.5c0.2,2.2,0.6,4.4,1.1,6.6c0.5,1.9,1.1,3.8,1.9,5.6c0.6,1.3,1.2,2.6,1.9,3.8c0.1,0.1,0.1,0.3,0.3,0.3
		c0.9-4.8,1.9-9.6,4.1-14.1c0.2,0,0.2,0.2,0.2,0.3c0.7,1.6,1.1,3.3,1.4,5.1c0.4,2,0.8,4.1,1.4,6.1c0.2,0.6,0.4,1.3,0.8,1.9
		c2.9-1.5,5.3-3.5,7.5-5.8c-0.3,0.9-0.7,1.8-1.1,2.6c-1.3,3-2.9,5.8-4.6,8.6c-0.5,0.7-1,1.4-1.7,1.9c-0.2,0.1-0.3,0.2-0.5,0.3
		c-0.6,0.2-1,0.1-1.3-0.3c-0.1-0.1-0.2-0.3-0.3-0.4c-0.5-1-0.9-2-1.2-3.1c-0.1-0.4-0.1-0.9-0.2-1.3c-0.1-1.5-0.4-3.1-0.6-4.6
		c-0.2-1.2-0.3-2.5-0.5-3.7c0-0.2,0-0.5-0.3-0.5c-0.2,0-0.3,0.3-0.3,0.5c-0.1,0.9-0.3,1.8-0.4,2.8c-0.4,2.8-0.4,5.6-0.4,8.4
		c0,0.5,0.1,1,0.1,1.5c0,0.4-0.1,0.5-0.5,0.3c-0.1-0.1-0.3-0.2-0.4-0.3c-1-1.1-2.3-1.6-3.6-2.1c-1-0.4-2.1-0.6-3.2-0.9
		c-0.4-0.1-0.7-0.3-1-0.5c-1.2-0.9-2.2-1.9-3.2-3c-0.6-0.7-0.9-1.4-0.8-2.3c0-0.1,0-0.2,0.1-0.3c0,0,0.1-0.1,0.1-0.2
		c0.2,0.2,0.3,0.3,0.5,0.5c1.2,1.3,2.4,2.5,3.9,3.5c1.1,0.7,2.2,1.3,3.5,1.6c0.2,0,0.3,0.1,0.5,0c0.2-0.1,0.4-0.3,0.2-0.5
		c-0.9-1.2-0.9-2.7-1.4-4c-0.8-2.2-1.5-4.4-2.2-6.6c-0.7-2-1.2-4.1-1.5-6.2c-0.2-1.3-0.3-2.6-0.3-3.9c0-1.2,0-2.3,0-3.5
		c0.1-2,0.1-4.1,0.2-6.1c0.1-1.5,0.2-3,0.4-4.5c0.2-1.5,0.4-3,0.6-4.4c0.1-0.7,0.2-1.5,0.3-2.2c0.1-0.9,0.3-1.9,0.5-2.8
		c0.6-2.5,1.2-5,1.7-7.5c0.1-0.6,0.3-1.3,0.4-1.9c0-0.3,0.1-0.5,0-0.8c0-0.4-0.4-0.6-0.8-0.4c-0.2,0.1-0.4,0.3-0.5,0.5
		c-1.1,1.7-2,3.5-2.6,5.4c-0.1,0.2-0.1,0.4-0.2,0.6c-0.3,0.6-0.9,0.7-1.3,0.1c-0.3-0.4-0.5-0.9-0.7-1.3c-0.5-1.2-0.8-2.4-1.2-3.6
		c-0.4-1.1-0.8-2.2-1.4-3.2c-0.2-0.2-0.3-0.5-0.6-0.6c-0.4-0.3-0.7-0.3-1.1,0.1c-0.3,0.3-0.4,0.6-0.4,1c0,1.4,0.1,2.7,0.2,4.1
		c0.1,1.8,0.2,3.7-0.4,5.5c-0.5,1.8-1.8,3.1-3.4,4c-1.4,0.8-2.9,1.2-4.4,1.4c-0.8,0.1-1.7,0.2-2.5,0.2c-1.8,0-3.5-0.1-5.3-0.4
		c-0.6-0.1-1.2-0.3-1.7-0.6c-0.5-0.2-0.5-0.3-0.3-0.8c0.3-0.9,0.7-1.9,1.1-2.8c1.5-3.2,3.3-6.2,5.4-9c1-1.3,2-2.5,3.1-3.8
		c0.2-0.2,0.4-0.3,0.7-0.3c1.4,0,2.8,0,4.2,0c1.6,0.1,3.3,0.1,4.9,0.2c1.7,0.1,3.5,0.2,5.2,0.4c1.8,0.1,3.6,0.3,5.4,0.5
		c1.9,0.2,3.8,0.4,5.7,0.6c1.5,0.1,3.1,0.2,4.6,0.4c0.6,0.1,1.1,0.1,1.7,0.2c-0.1,0.3-0.3,0.5-0.4,0.7c-1.2,1.5-2.1,3.1-2.6,5
		c-0.4,1.4-0.5,2.8-0.4,4.3c0.1,0.9,0.7,1.7,2.1,1.4c0.4-0.1,0.7-0.2,1-0.4c0.9-0.3,1.8-0.6,2.8-0.6c0.6,0,1.1,0.2,1.6,0.7
		c0.4,0.3,0.7,0.8,0.9,1.2c0.3,0.6,0.7,1.3,1,1.9c0.2,0.3,0.4,0.6,0.7,0.9C124.9,316.1,125.2,316.2,125.6,316.2z"/>
	<path class="st7" d="M83.9,372.3c0,0.8,0,0.8,0.8,1c2,0.7,4,1.3,6,1.9c2.3,0.7,4.6,1.2,6.9,1.5c1.3,0.2,2.7,0.5,4,0.7
		c1.3,0.2,2.5,0.5,3.8,0.8c0.3,0.1,0.5,0,0.7-0.1c0.8-0.7,1.6-1.4,2.5-2.1c1-0.8,2.1-1.6,3.4-2c0.6-0.2,1.3-0.3,2-0.4
		c0.2,0,0.4,0,0.5,0.2c0.1,0.2-0.1,0.3-0.2,0.5c-0.4,0.4-0.9,0.8-1.3,1.1c-0.7,0.5-1.5,1.1-2.2,1.6c-0.2,0.2-0.4,0.4-0.5,0.7
		c-0.1,0.5,0.1,0.7,0.5,0.5c1-0.3,2-0.6,3-0.8c0.6-0.1,1.1-0.2,1.7-0.3c0.1,0,0.3,0,0.4,0.2c0,0.1,0,0.3-0.1,0.4
		c-0.2,0.1-0.4,0.2-0.6,0.4c-1.6,0.9-3.1,1.8-4.7,2.7c-0.1,0-0.2,0.1-0.2,0.1c1.3,0.2,2.6,0.4,3.9,0.6c1.3-0.9,2.6-1.7,4-2.4
		c1.6-0.9,3.3-1.5,5-2.1c0.1,0,0.3-0.1,0.4-0.3c-1.4,0.1-2.8-0.1-4.1-0.3c-1.3-0.2-2.6-0.5-4-1c1.6-1,3.4-1.4,4.9-2.3
		c-0.1-0.1-0.2-0.1-0.2-0.2c-1.7-0.5-3.5-0.4-5.2-0.2c-1.7,0.2-3.4,0.5-5.1,0.7c-1.4,0.2-2.9,0.1-4.3-0.1c-1.5-0.2-3-0.6-4.5-1.2
		c-2.1-0.8-4.1-1.9-5.6-3.6c-1.3-1.4-1.9-3.1-1.5-5c0.1-0.8,0.8-1.4,1.6-1.4c-0.2-0.2-0.5-0.2-0.6-0.5c-1-0.5-2-0.3-2.9-0.1
		c-0.2,0.4-0.2,0.8-0.4,1.2c-0.2,0.4-0.6,0.5-1,0.5c-0.4,0-0.8-0.2-0.9-0.7c-0.1-0.2-0.1-0.4-0.1-0.6c-0.1-0.1-0.3-0.2-0.5-0.1
		c0,0.3-0.3,0.4-0.6,0.5c-0.7,0.3-1.4,0.4-2.2,0.5c-0.3,0-0.5,0.1-0.5,0.5c-0.1,0.6-0.3,1.1-0.5,1.6c-1,2.1-1.3,4.2-1.3,6.5
		C83.9,371.6,83.9,371.9,83.9,372.3z"/>
	<path class="st3" d="M65.8,299.7c0.2-0.1,0.4-0.2,0.7-0.3c3-0.3,5.9-0.5,8.9-0.6c1.5-0.1,3-0.1,4.6-0.2c0.1,0,0.3-0.1,0.4,0
		c0,0.1-0.1,0.1-0.1,0.2c-2.4,1.4-4.4,3.2-6.2,5.2c-1.4,1.5-2.7,3.1-3.9,4.8c-0.6,0.9-1.1,1.7-1.6,2.7c-0.1,0.3-0.3,0.4-0.6,0.5
		c-0.6,0.1-1.3,0.3-2,0.5c0-0.3,0.1-0.6,0.2-0.9c0-0.2,0-0.4-0.2-0.5c-0.2-0.1-0.4,0-0.5,0.1c-0.1,0.1-0.1,0.2-0.2,0.3
		c-3.4,5.3-7.9,9.3-13.3,12.5c-2,1.2-4,2.3-6,3.5c-1.8,1.1-3.5,2.3-5,3.8c-0.3,0.3-0.5,0.7-0.8,1c-0.1,0.2-0.1,0.4,0.1,0.6
		c0.3,0.4,0.7,0.7,1.1,0.9c0.5,0.3,1,0.4,1.5,0.6c0.4,0.2,0.9,0.3,1.3,0.5c0.3,0.1,0.6,0.2,0.8,0.4c1.3,0.8,1.7,1.9,1.1,3.4
		c-0.1,0.2-0.2,0.5-0.3,0.7c-0.3,0.6-0.3,0.6-1.1,0.4c0.1-0.3,0.3-0.5,0.5-0.8c0.1-0.2,0.3-0.3,0.1-0.5c-0.1-0.2-0.3-0.3-0.6-0.3
		c-0.5,0-0.9,0.2-1.3,0.4c-0.5,0.3-1,0.7-1.4,1.2c-0.8,0.9-1.4,2-2,3.1c-0.1,0.2-0.2,0.5-0.4,0.7c-0.4,0.3-0.4-0.1-0.5-0.3
		c-0.5-1.1-0.9-2.4-1.2-3.6c-0.6-2.7-0.5-5.3,0.6-7.9c0.6-1.3,1.4-2.5,2.2-3.7c2.1-3.2,4.1-6.4,6.2-9.5c2.1-3.2,4.3-6.3,6.8-9.2
		c3.3-3.8,7-7.2,11.5-9.6C65.6,299.9,65.8,299.9,65.8,299.7z"/>
	<path class="st8" d="M184.9,320c-0.5,0.6-1.1,1-1.5,1.7c-0.7,1-1.3,2-1.5,3.2c-0.2,0.9,0.1,1.8,0.6,2.5c0.4,0.6,0.9,1,1.4,1.4
		c1.3,1.1,2.6,2.1,4,3c2.3,1.4,4.6,2.6,7.1,3.6c1.9,0.7,3.8,1.3,5.8,1.6c1.1,0.2,2.1,0.3,3.2,0.4c1.2,0.1,2.4,0.1,3.6,0.1
		c1,0,2-0.1,3-0.2c0.2,0,0.4,0,0.5,0c-0.8,0.8-1.9,1.4-3,1.8c-0.6,0.2-1.4,0.1-2.1,0.1c-2.9,0-5.9,0-8.8-0.2
		c-6.9-0.4-13.7-1.4-20.4-3.1c-3-0.7-5.9-1.5-8.9-2.2c-0.1,0-0.2,0-0.3-0.1c0-0.1,0.1-0.2,0.1-0.3c1.8-3,3.7-5.9,6.1-8.6
		c1.8-2,3.8-3.9,6.1-5.3c0.4-0.2,0.7-0.3,1.1-0.2C182.6,319.4,183.8,319.6,184.9,320z"/>
	<path class="st6" d="M143.1,346.6c0.5-0.7,1-1.4,1.6-2c2.5-2.9,4.9-5.9,7-9.2c1.2-2,2.3-4,3.4-6c1.4-2.6,2.6-5.3,3.8-7.9
		c0.3-0.7,0.6-1.4,1-2.2c0.2,0.3,0.3,0.7,0.3,1c0,1.1-0.2,2.1-0.6,3.1c-0.3,0.9-0.7,1.7-0.9,2.6c0,0.2-0.1,0.3,0.1,0.4
		c-0.2,0.5-0.6,0.9-0.9,1.3c-0.2,0.3-0.2,0.3-0.3,0.7c0.3,0.1,0.5-0.1,0.7-0.2c1.6-1.2,3.1-2.5,4.4-4c0.3-0.3,0.6-0.6,0.9-1
		c2.1-1.8,4.2-3.6,6.5-5.3c0.2-0.1,0.4-0.3,0.6-0.2c0.2,0.2,0,0.4,0,0.6c-0.8,2-1.5,4.1-2.3,6.1c0,0.1-0.1,0.1,0,0.3
		c0.6-0.1,1.1-0.4,1.6-0.6c0.2-0.1,0.4-0.3,0.7-0.2c-0.3,0.5-0.7,0.9-1,1.4c-1.6,2.1-3.1,4.2-4.5,6.4c-0.9,1.4-1.7,2.8-2.6,4.2
		c-0.2,0.4-0.4,0.7-0.6,1.1c-0.1,0.2-0.2,0.4-0.3,0.6c-0.5,0.7-1.1,0.9-1.9,0.6c-0.5-0.2-1.1-0.3-1.6-0.5c-0.3-0.1-0.4-0.2-0.3-0.5
		c0-0.3,0.1-0.5,0.2-0.7c0.2-0.4,0.5-0.7,0.8-1c1.6-1.6,2.9-3.4,4.2-5.2c1.3-1.7,2.4-3.6,3.5-5.4c0.1-0.2,0.4-0.5,0.1-0.8
		c-0.3-0.2-0.5,0.1-0.7,0.3c-0.5,0.6-1.1,1.1-1.6,1.6c-2.5,2.4-5.1,4.8-7.5,7.4c-3.3,3.4-6.6,6.8-10,10.1c-1,1-2,1.9-3,2.9
		C143.3,346.5,143.3,346.6,143.1,346.6z"/>
	<path class="st8" d="M65.8,299.7c0.2,0.1,0.3,0.2,0,0.4c-0.9,0.5-1.8,1-2.7,1.6c-1.1,0.7-2.2,1.5-3.3,2.4c-1.6,1.3-3,2.7-4.4,4.1
		c-1.2,1.2-2.2,2.5-3.2,3.8c-2.3,2.9-4.3,5.9-6.3,9c-2.1,3.2-4.2,6.4-6.3,9.7c-0.8,1.3-1.4,2.8-1.6,4.4c-0.3,2,0,4,0.5,6
		c0.3,0.9,0.6,1.8,0.9,2.7c0.1,0.2,0.1,0.2,0.3,0.1c-0.6,1.6-1.5,3.2-2.2,4.7c-0.4,0.7-0.7,1.4-1.1,2.1c-0.2,0.4-0.5,0.7-0.9,1
		c-0.5,0.3-0.8,0.3-1.1-0.2c-0.4-0.8-0.6-1.6-0.5-2.5c0.3-1.4,0.7-2.7,1.1-4c0.4-1.5,0.7-3,0.5-4.6c0-0.2-0.1-0.4-0.1-0.7
		c-0.1-0.2-0.2-0.3-0.4-0.1c-0.1,0.1-0.2,0.2-0.2,0.3c-0.4,0.6-0.8,1.2-1.1,1.8c-0.1,0.2-0.2,0.4-0.4,0.6c-0.3-0.6-0.5-1.1-0.6-1.7
		c-0.3-1.4-0.3-1.4,0.3-2.8c0.6-1.3,1.4-2.6,2.2-3.8c2.7-3.8,5.2-7.8,7.8-11.6c2.8-4.2,5.7-8.2,8.8-12.2c2.3-2.9,4.9-5.6,7.9-7.8
		c1.3-1,2.7-1.8,4.2-2.5c0.3-0.1,0.5-0.2,0.8-0.1C65.1,299.8,65.5,299.8,65.8,299.7z"/>
	<path class="st3" d="M132.7,321.8c-0.4,0.2-0.8,0.1-1.2,0c-0.2-0.5-0.3-1-0.5-1.6c-0.1-0.2-0.1-0.3,0.1-0.4
		c0.5-0.3,0.5-0.8,0.5-1.4c0-1.6,0.2-3.2,0.5-4.8c0.2-1.3,0.6-2.5,1.1-3.6c0.6-1.2,1.4-2.2,2.4-3.1c0.2-0.2,0.4-0.3,0.7-0.1
		c2.4,1.3,4.9,2.4,7.5,3.1c1,0.3,2.1,0.6,3.2,0.8c0.1,0,0.2,0,0.3,0.1c0,0.1,0,0.1,0,0.2c-1.7,2.4-3.6,4.7-6.1,6.4
		c-1.2,0.8-2.5,1.4-3.9,1.9c-1.3,0.4-2.6,0.8-3.7,1.4c-0.2,0.1-0.5,0.2-0.7,0.4C132.5,321.2,132.5,321.3,132.7,321.8z"/>
	<path class="st7" d="M77.2,369.1C77.2,369.1,77.2,369.1,77.2,369.1C77.2,369.1,77.2,369.1,77.2,369.1c0.6,0.5,1.2,0.9,1.8,1.4
		c0-0.1,0-0.2,0-0.3c0.3-1.8,0.9-3.5,1.4-5.2c0.4-1.5,0.9-2.9,1.2-4.5c0.2-1.2,0.6-2.2,1.1-3.3c0.7-1.5,1.4-3,2-4.5
		c0.2-0.4,0.5-0.8,0.5-1.4c-0.2,0.1-0.2,0.3-0.3,0.5c-1.1,1.8-2.1,3.7-3.1,5.7c-1.7,3.5-3.3,7.1-4.8,10.7c-0.1,0.2-0.1,0.3-0.2,0.5
		C76.9,368.8,77,368.9,77.2,369.1z"/>
	<path class="st4" d="M170.5,324c-0.8,0.4-1.7,0.8-2.7,1.1c0.9-2.5,1.8-4.8,2.6-7.2c0,0-0.1-0.1-0.1-0.1c-0.6,0.5-1.3,0.9-1.9,1.4
		c-1.5,1.2-3,2.5-4.6,3.7c-0.2,0.1-0.3,0.2-0.5,0.3c0.4-0.5,0.7-1.1,1.1-1.6c1-1.5,1.8-3.1,2.1-5c0.1-0.3,0.1-0.6,0.1-1
		c0.1-0.4,0.1-0.4,0.5-0.3c1.2,0.3,2.4,0.6,3.5,0.9c2.1,0.5,4.1,1.1,6.2,1.6c0,0.1,0,0.2-0.1,0.2c-2.1,1.4-3.9,3.2-5.5,5.1
		C170.9,323.5,170.7,323.7,170.5,324z"/>
	<path class="st6" d="M146.5,326.6c-0.1-0.1-0.1-0.2-0.3,0c-0.5,0.6-1.1,1.1-1.6,1.7c-0.1,0.1-0.2,0.3-0.5,0.4
		c-0.2-0.6-0.2-1.2-0.4-1.8c-0.4-1.3-0.9-2.4-1.8-3.4c-0.5-0.6-1.2-1.2-1.9-1.6c-0.5-0.4-1.1-0.6-1.7-0.6c0.8-0.2,1.6-0.4,2.3-0.7
		c1.9-0.7,3.6-1.9,5.1-3.2c1.7-1.6,3.2-3.3,4.7-5.1c0.1-0.2,0.2-0.3,0.4-0.5c0.3-0.5,0.6-0.5,1.2-0.2c-0.2,0.2-0.3,0.4-0.4,0.7
		c-0.9,2.9-2.4,5.5-4.4,7.7c-0.1,0.2-0.3,0.3-0.4,0.4c-1.2-0.7-2.8-0.4-3.6,0.9c-0.4,0.7-0.2,1.1,0.6,1.1c0.3,0,0.6,0,0.9,0
		c0.6,0,1.1,0.3,1.3,0.9c0.3,0.5,0.3,1.1,0.4,1.6C146.4,325.5,146.4,326.1,146.5,326.6z"/>
	<path class="st6" d="M86.3,348.8c0-0.1,0-0.2,0-0.3c0.9-2.6,1.8-5.2,3-7.6c0.3-0.6,0.6-1.2,0.9-1.8c0.1-0.1,0.1-0.3,0.4-0.2
		c-0.2,2-0.1,4-0.1,5.9c0.1,2.1,0.4,4.2,1.2,6.2c0.4,1,0.9,2,1.5,3c0.1,0.1,0.2,0.2,0.2,0.4c0.1,0.1,0.2,0.2,0.1,0.3
		c-0.1,0.1-0.3,0-0.4-0.1c-0.2-0.2-0.4-0.3-0.6-0.5c-2.3-2-3.6-4.5-4.3-7.4c-0.1-0.4-0.2-0.8-0.3-1.3c-0.4,0.7-0.6,1.3-0.9,2
		c-0.2,0.4-0.4,0.8-0.5,1.2C86.4,348.7,86.4,348.8,86.3,348.8z"/>
	<path class="st8" d="M218.9,296.6c-0.6,0.5-1.1,1-1.5,1.7c-0.2,0.4-0.4,0.8-0.5,1.2c-2.3-0.7-4.1-2-5.3-4.1
		c-0.6-1.2-0.7-2.4-0.5-3.7c0.1-0.6,0.5-1.1,1.2-1.1c0.1,0.1,0.1,0.2,0.1,0.3c0.2,1.6,1.2,2.4,2.6,2.9c0.2,0.1,0.5,0.2,0.7,0.3
		c0.3,0.2,0.1,0.3-0.1,0.4c-0.2,0.4-0.2,0.5,0.2,0.7c0.5,0.3,1,0.5,1.5,0.7C217.8,296.1,218.3,296.4,218.9,296.6z"/>
	<path class="st8" d="M214.7,275.3c0,0.6,0.3,1.1,0.6,1.6c0.7,1.2,1.7,2.2,2.7,3.1c0.6,0.5,1.3,0.9,1.8,1.5
		c-0.6,0.7-1.1,1.6-1.2,2.5c-0.1,0.5-0.4,0.6-0.8,0.7c-1,0.2-2.8-0.8-3.2-1.8c-0.3-0.7-0.4-1.5-0.5-2.3c-0.1-1.8,0.1-3.5,0.4-5.2
		C214.6,275.4,214.7,275.4,214.7,275.3z"/>
	<path class="st4" d="M146.7,320.4c0.1-0.4,0.4-0.6,0.6-0.9c1.9-2.2,3.2-4.7,4.1-7.5c0-0.1,0.1-0.2,0.1-0.3c0.1-0.2,0.2-0.2,0.3-0.2
		c0.4,3.1,0,6.1-1.2,9c-0.4,1-1,2-1.6,2.8c-0.1,0.1-0.1,0.2-0.3,0.2C148.5,322.3,148,321.1,146.7,320.4z"/>
	<path class="st3" d="M215.6,294.4c0-0.1,0.3-0.2,0-0.3c-0.4-0.1-0.9-0.3-1.3-0.5c-0.6-0.3-1.1-0.8-1.5-1.3
		c-0.4-0.5-0.6-1.1-0.5-1.8c0.7-0.3,1.4-0.2,2,0c1.7,0.4,3.4,0.8,5.1,1.4c0.7,0.3,1.5,0.6,2.1,1.1c0.2,0.1,0.3,0.3,0.5,0.4
		c0.2,0.3,0.2,0.4-0.1,0.6c-0.1,0.1-0.3,0.1-0.4,0.2c-1,0.2-2,0.4-3.1,0.1c-0.8-0.2-1.6-0.3-2.4,0.1
		C215.9,294.6,215.7,294.5,215.6,294.4z"/>
	<path class="st6" d="M96.4,347.7c-1.9-2.3-2.6-5-2.7-7.9c-0.1-2.8,1.1-6.4,2-7.1c0.2,0.2,0.2,0.4,0.2,0.6c0,1.1,0,2.2-0.1,3.3
		c-0.1,1.9-0.1,3.7,0,5.6c0.1,1.6,0.4,3.2,0.7,4.8C96.6,347.2,96.7,347.4,96.4,347.7z"/>
	<path class="st6" d="M124.6,301.1c-0.1,0.7-0.2,1.3-0.3,2c-0.2,1.6-0.1,3.3-0.1,4.9c0,0.7,0.1,1.5,0.2,2.2
		c-0.2-0.1-0.3-0.2-0.4-0.3c-1-1-2.2-1.5-3.6-1.5c-0.3,0-0.5,0-0.8,0c0,0,0,0-0.1,0c0-0.1,0-0.2,0-0.2c1.1-2.5,2.7-4.6,4.5-6.6
		C124.3,301.3,124.4,301.2,124.6,301.1z"/>
	<path class="st9" d="M94.8,361.5c-0.4,0-0.9-0.1-1.3-0.1c-0.4,0-0.8,0-1.1,0.1c-0.2,0-0.4,0.1-0.5-0.1c0.2-1,0.6-1.9,1-2.8
		c0.1-0.2,0.3-0.4,0.6-0.3c0.8,0,1.6,0.1,2.3,0.4c0.9,0.4,1.8,0.6,2.7,0.8c1.1,0.2,2.1,0.5,3,1c-0.2,0.3-0.4,0.1-0.6,0.1
		c-1.2,0-2.4,0-3.6,0c-0.4,0-0.9,0-1.3,0.1C95.1,360.7,95.1,360.7,94.8,361.5z"/>
	<path class="st8" d="M220.6,282.4c0.4,0,0.7,0.3,1,0.5c0.9,0.6,1.8,1.2,2.7,1.8c0.1,0.1,0.2,0.1,0.3,0.1c-0.2,0.1-0.2,0.3-0.2,0.5
		c-0.2,0.8-0.4,1.5-0.5,2.3c-0.1,0.4-0.1,0.4-0.5,0.3c-0.6-0.2-1.1-0.4-1.6-0.8c-0.9-0.8-1.3-1.8-1.1-3
		C220.8,283.5,221,282.9,220.6,282.4z"/>
	<path class="st8" d="M226.1,285.9c1.2,0.9,2.3,1.9,3,3.2c0.4,0.8,0.4,1.6,0,2.4c-0.5-0.8-1.2-1.3-2-1.7c-0.4-0.2-0.9-0.5-1.3-0.8
		c-0.1-0.1-0.3-0.3-0.2-0.5C225.8,287.6,225.8,286.7,226.1,285.9z"/>
	<path class="st10" d="M89.4,361.8c-0.2,0-0.3,0-0.5-0.1c-0.1-0.3-0.3-0.5-0.6-0.7c-0.6-0.4-1.3-0.5-2-0.6c-0.5,0-1,0-1.5,0
		c0-0.4,0.2-0.7,0.6-0.9c1.4-0.5,2.8-0.9,4.3-1.2c0.1,0,0.3-0.1,0.5,0C89.8,359.5,89.5,360.6,89.4,361.8z"/>
	<path class="st11" d="M100.8,360.6c0.2-0.1,0.4,0.1,0.6-0.1c0.5,0.1,1.1,0,1.6,0.1C102.6,360.7,101.5,360.7,100.8,360.6z"/>
	<path class="st7" d="M85.2,351.3c0-0.1,0-0.2,0.1-0.2C85.3,351.2,85.3,351.3,85.2,351.3z"/>
	<path class="st12" d="M98.1,386.1c0,0.1-0.1,0.1-0.2,0.1C98,386.2,98,386.1,98.1,386.1z"/>
	<path class="st12" d="M97.8,386.3c0,0.1-0.1,0.1-0.2,0.1C97.7,386.3,97.8,386.3,97.8,386.3z"/>
	<path class="st12" d="M98.2,386.3c0,0,0.1-0.1,0.1-0.1C98.3,386.3,98.3,386.3,98.2,386.3z"/>
	<path class="st12" d="M98,386.5c0,0,0.1-0.1,0.1-0.1C98.1,386.4,98,386.5,98,386.5z"/>
	<path class="st13" d="M176.6,276c-0.2-1.1-0.6-2.1-1.1-3.2c-0.6-1.5-1.1-2.9-1.5-4.5c-0.6-2.6-0.5-5.2,0.6-7.7
		c0.2-0.5,0.4-1,0.6-1.6c0.2-0.5,0.2-0.5-0.3-0.8c-0.5-0.3-1.1-0.4-1.7-0.5c-1,0-2,0.2-2.9,0.4c-1.2,0.3-2.4,0.8-3.6,1.2
		c-0.8,0.3-1.4-0.1-1.6-0.9c-0.1-0.6,0.1-1.1,0.6-1.5c0.6-0.4,1.2-0.7,1.9-1c2.2-1,4.5-1.6,6.9-1.4c0.1,0,0.1,0,0.2,0
		c-0.1-0.2-0.2-0.4-0.3-0.6c-0.6-1.1-1.2-2.2-1.8-3.3c-1.5-2.8-3.4-5.4-4.9-8.2c-0.1-0.1-0.1-0.2-0.2-0.2l0.1-0.2
		c0,0-7.8-12.4-17.4-12.9c-9.6-0.5-18.9,0.4-22.3,2.9c-4,3-9.7,8.4-11.7,12c-2.4,4.4-4,6.9-3.9,13.8c0.1,6.9,0.1,6.9,0.1,6.9
		s-1.6,6.3-0.2,9.9c1.4,3.6,6.2,6.8,7.7,7.1c1.5,0.3,3.4-0.7,4.1,1c0.7,1.7,1.5,4.8,1.5,4.8l9.9-4.4c0,2.8,0.5,5.7,1.5,8.4
		c0.9,2.6,2.1,5,3.6,7.3c1.5,2.3,3,4.5,5.2,6.2c1.1,0.9,2.2,1.8,3.5,2.3c0.1,0,0.3,0.1,0.4,0.1c2.2,0.3,4.4,0.5,6.7,0.6
		c3.2,0.1,6.4-0.1,9.5-0.4c1.3-0.2,1.3-0.1,1.7-1.3c0.6-1.4,0.7-2.8,0.4-4.2c-0.2-0.7-0.5-1.4-0.8-2.1c-0.1-0.2-0.2-0.4,0-0.6
		c0.2-0.2,0.4-0.1,0.7,0c0.5,0.3,0.9,0.7,1.3,1.1c0.7,0.9,1.2,2,1.4,3.1c0.1,0.6,0.1,1.2,0.1,1.9c0.2-0.1,0.3-0.3,0.4-0.4
		c0.9-1.8,1.7-3.7,2.2-5.7c0.6-2.2,1-4.5,1.4-6.8c0.4-2.5,0.8-5,1.1-7.4c0.3-2.4,0.6-4.7,0.8-7.1C176.7,277.5,176.7,276.7,176.6,276
		z M159,258.2c-0.1,0.4-0.6,0.6-1.1,0.6c-0.1,0-0.2,0-0.3,0c-1.2-0.2-2.5-0.4-3.7-0.6c-3.7-0.6-7.4-1-11.2-0.6c-1,0.1-2,0.2-3,0.6
		c-0.5,0.7-0.9,1.4-1.2,2.2c-0.3,0.8-0.6,1.6-0.9,2.4l-3.1-9.4l5.8-0.6c-0.3,0.9-0.5,1.8-0.7,2.7c0,0.2-0.1,0.5,0.1,0.7
		c0.3,0.1,0.5-0.1,0.7-0.2c1.8-0.8,3.7-1.4,5.7-1.5c3.1-0.2,6,0.3,8.9,1.4c1.1,0.4,2.2,0.9,3.3,1.5
		C158.8,257.4,159.2,257.7,159,258.2z"/>
	<path class="st12" d="M97.7,386.6c0,0,0.1-0.1,0.1-0.1C97.8,386.6,97.8,386.6,97.7,386.6z"/>
	<path class="st14" d="M169.9,280.3c0.3-0.5,0.3-1.1,0.1-1.6c-0.3-1.2-1.2-2.2-2.7-2.4c-0.7-0.1-1.5-0.1-2.2-0.1
		c-0.5,0-0.9-0.1-1.4-0.2c-0.4-0.1-0.5-0.4-0.5-0.7c0-0.4,0.2-0.6,0.7-0.7c0.8-0.1,1.7-0.2,2.5-0.2c0-0.2,0-0.3-0.1-0.4
		c-0.9-2-1.4-4-1.6-6.1c-0.1-0.7,0-1.4,0.2-2c0.1-0.4,0.3-0.4,0.5-0.1c0.3,0.5,0.6,1,0.7,1.5c0.2,0.8,0.4,1.6,0.6,2.4
		c0.2,1.1,0.6,2.1,1.2,3c0.2,0.3,0.4,0.6,0.5,0.9c0.4,0.7,0.8,1.3,1.6,1.7c0.9,0.4,1.4,1.2,1.9,2.1c0.4,0.7,0.5,1.5,0.4,2.4
		c-0.3,1.6-1,2.9-2.1,4c-0.6,0.5-1.2,0.9-2,0.9c-0.8,0-1-0.4-0.7-1c0.3-0.7,0.8-1.2,1.3-1.8C169.1,281.3,169.5,280.8,169.9,280.3z"
		/>
	<path class="st14" d="M157.8,290.6c-2.5-0.1-5-0.2-7.4-0.9c-1.8-0.5-3.4-1.3-4.7-2.8c-0.7-0.8-1.2-1.7-1.6-2.6
		c-0.2-0.4-0.1-0.7,0.2-0.8c0.3-0.2,0.7-0.1,0.9,0.3c0.8,1.3,2,2.1,3.3,2.8c1.5,0.8,3.2,1.2,4.9,1.5c1.5,0.3,3.1,0.3,4.6,0.3
		c1.5,0,3,0,4.4,0.2c0.4,0.1,0.8,0.1,1.2,0.2c0.3,0,0.5,0.1,0.6,0.4c0,0.3-0.1,0.5-0.6,0.6c-0.8,0.3-1.6,0.5-2.4,0.6
		C160.1,290.6,159,290.7,157.8,290.6z"/>
	<path class="st15" d="M169.9,280.3c-0.1,0.5-0.5,0.9-0.8,1.3c-0.3,0.3-0.6,0.7-0.9,1c-0.2,0.3-0.4,0.5-0.6,0.8
		c-0.3,0.7-0.2,0.9,0.5,1.1c-1.1,0.3-2.3,0.5-3.5,0.4c-2.1-0.1-4-0.8-5.6-2.2c-0.5-0.4-1-0.8-1.4-1.4c0-0.1-0.1-0.1,0-0.3
		c0.4-0.1,0.8-0.1,1.3,0c1.1,0.1,2.2,0.3,3.2,0.5c1.1,0.2,2.3,0.5,3.4,0.5c1.6,0,3.1-0.4,4.2-1.8
		C169.7,280.3,169.8,280.3,169.9,280.3z"/>
	<path class="st14" d="M149.4,262.5c0.9-0.1,1.6,0.2,2,1.1c0.5,1.1,0.9,2.2,1.1,3.3c0.1,0.9-0.1,1.7-0.7,2.4
		c-1.4,1.6-3.6,0.6-4.1-0.9c-0.2-0.6-0.1-1.1-0.2-1.7c0-0.2,0.1-0.3,0.2-0.3c0.1,0,0.3,0,0.4-0.1c0.1-0.2,0.3-0.2,0.5-0.3
		c1.1-0.6,1.5-1.8,1-2.9C149.6,263,149.3,262.8,149.4,262.5z"/>
	<path class="st16" d="M149.4,262.5c0.5,0.6,0.8,1.2,0.6,2c-0.1,1-0.8,1.7-1.9,1.9c-0.1,0-0.3,0-0.4,0c-1,0-1.8-0.5-2.1-1.4
		c-0.3-0.9-0.1-1.8,0.6-2.5c0.9-0.8,1.9-0.8,2.9-0.1C149.3,262.4,149.3,262.5,149.4,262.5z"/>
	<path class="st14" d="M170.3,264.4c-0.1-0.5,0.2-0.8,0.6-0.9c0.4-0.1,0.8-0.1,1.2,0.2c0.3,0.4,0.6,0.8,0.8,1.2
		c0.4,0.9,0.6,1.8,0.7,2.8c0,0.3,0.1,0.6,0.1,0.9c0.2,1.2-0.7,2-1.9,1.9c-1.2-0.1-1.8-0.9-1.6-1.8c0-0.2,0-0.4,0-0.7
		c0.2-0.2,0.4-0.2,0.6-0.3c0.7-0.3,1.1-0.9,1.1-1.6c0-0.7-0.4-1.3-1.1-1.6C170.6,264.6,170.4,264.6,170.3,264.4z"/>
	<path class="st14" d="M154.8,294.9c-0.9,0-1.6,0-2.2-0.3c-0.6-0.2-1.1-0.6-1.5-1.1c-0.2-0.3-0.2-0.6,0-0.9c0.2-0.3,0.5-0.3,0.9-0.1
		c1.8,1,3.6,1,5.5,0.4c0.2-0.1,0.4-0.1,0.6-0.2c0.6-0.1,0.9,0,1,0.5c0.1,0.4-0.1,0.8-0.6,1c-0.6,0.2-1.2,0.3-1.9,0.5
		C155.9,294.9,155.3,294.9,154.8,294.9z"/>
	<path class="st16" d="M170.3,264.4c1.3,0.1,2.1,1.2,1.7,2.4c-0.2,0.8-0.9,1.3-1.8,1.3c-0.8-0.1-1.4-0.5-1.7-1.2
		c-0.4-0.9,0.4-2.5,1.6-2.4C170.2,264.5,170.2,264.4,170.3,264.4z"/>
	<path class="st14" d="M102.8,332.7c0-1.8,2.1-10.6,2.6-11.1c0.4-0.4,0.8-0.5,1.3-0.3c0.2,0,11.7,3.4,12.3,3.9
		c0.1,0.1,0.4,0.2,0.3,0.5c-0.1,0.2-0.3,0.1-0.5,0.2c-1.1,0.2-6.4-0.7-8-1.1c-0.3-0.1-0.4,0.1-0.6,0.3c-0.4,0.9-0.7,1.8-1,2.7
		c-0.4,1.5-0.9,3-1.1,4.5c-0.1,0.4-0.2,3.2,0.8,4.1c1,0.8,3.2-0.4,3.4-0.6c2.6-1.8,5.5-8.8,5.7-9c0.2-0.2,0.5-0.3,0.8-0.2
		c0.3,0.1,0.3,0.4,0.3,0.7c0,0.2-3.1,7.2-4.2,8.5c-1.1,1.3-2.3,2.4-4,2.9c-1.7,0.5-3.3,0.4-5-0.2c-1.8-0.7-2.7-2-3.1-3.8
		C102.8,333.9,102.8,333.2,102.8,332.7z"/>
	<path class="st14" d="M125.3,275.3c-0.4,0-0.8-0.1-1.1-0.2c-0.4-0.1-0.6-0.4-0.6-0.8c0-0.5,0.2-0.8,0.7-0.8c0.3,0,0.6,0,0.9,0
		c1.1,0,1.9-0.5,2.7-1.2c0.2-0.2,0.4-0.3,0.5-0.5c0.1-0.1,0.3-0.2,0.4-0.1c0.2,0.1,0.3,0.2,0.2,0.4c0,0.2-0.1,0.3-0.2,0.5
		c-0.7,1.2-1.7,2-3,2.4C125.7,275.2,125.5,275.3,125.3,275.3z"/>
	<path class="st15" d="M149.6,307.6c-0.7-0.4-2.1-1.2-3.8-2.7c-2.4-2.1-5.5-7.4-7-10c-1-1.7-2.3-6.4-3-11.3c0-0.8,0-1.6,0.1-2.3
		c0.1-1.1,0.3-2.2,0.7-3.2c0.2-0.5,0.4-0.6,0.9-0.5c0.7,0.1,1.3,0.3,2,0.4c1,0.2,1.7-0.3,1.8-1.1c0-0.3,0-0.7,0-1
		c-0.3-1.6-1.4-2.7-2.5-3.8c-0.3-0.2-0.5-0.5-0.8-0.7c1.7-1.5,3.7-1.6,3.7-1.6s-4.2-3.1-4.4-5.1c0-0.1,0-0.1,0-0.2
		c0.2-0.4,0.3-0.9,0.4-1.3c0.5-1.7,1.2-3.3,2-4.8c-0.3-0.2-0.5,0-0.7,0c-0.5,0.1-1,0.3-1.5,0.3c-0.3,0-0.4-0.2-0.3-0.5
		c0.1-0.2,0.2-0.3,0.4-0.5c0.5-0.5,1.1-0.9,1.8-1.3c0.2-0.1,0.4-0.1,0.4-0.4c0,0,0,0,0,0c0.1-0.3,0.1-0.5,0.1-0.8
		c0-0.1,0.1-0.3,0.1-0.4c1.1-2.9,11.1-7.9,4.3-9.7c0.1-0.1-0.9-0.3-1.1-0.2c-9.3-1.6-6.1-11.3-6.1-11.3c1.1-1.9,4.1-3.3,7.5-4.4
		c-7.5,0-13.7,1.2-16.5,3.1c-4.6,3.1-9.7,8.4-11.7,12c-2.4,4.4-4,6.9-3.9,13.8c0.1,6.9,0.1,6.9,0.1,6.9s-1.6,6.3-0.2,9.9
		c1.4,3.6,6.2,6.8,7.7,7.1c1.5,0.3,3.4-0.7,4.1,1c0.6,1.3,1.2,3.5,1.4,4.4c0.1,0.1,0.1,0.2,0.2,0.4l0.1,0c0.3,1,0.6,2,1,3
		c0.6,1.6,1.2,3.2,2.2,4.6c4.1,5.9,9.7,9.8,16.7,11.7c1.2,0.3,2.4,0.6,3.6,0.6c0,0,0,0,0,0c0,0,0,0,0,0
		C149.4,307.6,149.5,307.6,149.6,307.6z"/>
	<path class="st14" d="M139.8,258.3c-0.5,0.1-1.1,0.3-1.6,0.4c-0.3,0.1-0.6,0.1-0.9,0.1c-0.3,0-0.4-0.2-0.3-0.5
		c0.1-0.3,0.3-0.5,0.6-0.7c0.5-0.5,1.2-0.9,1.8-1.3c0.2-0.1,0.3-0.2,0.5-0.3c0.5-0.1,0.9-0.4,1.4-0.6c2.7-1.1,5.5-1.5,8.4-1.1
		c3.1,0.3,6,1.2,8.8,2.7c0.1,0,0.2,0.1,0.3,0.1c0.5,0.3,0.7,0.7,0.6,1.1c-0.2,0.5-0.7,0.9-1.2,0.8c-0.6-0.1-1.2-0.2-1.7-0.3
		c-2.2-0.4-4.5-0.8-6.7-1c-3-0.2-6-0.4-9,0.3C140.3,258.1,140,258.1,139.8,258.3z"/>
	<path class="st14" d="M111.8,263.8c0,0,0.7-3.3,2.5-3.2c1.9,0.1,6.2,1.6,6.3,3.6s-1.3-1.1-3.7-0.9c-2.4,0.2-4.6,0.7-5,3
		C111.6,268.6,111.8,263.8,111.8,263.8z"/>
	<path class="st14" d="M114.5,267.1c0,0,2.9-1,4.4-0.3c1.5,0.7,2.1,1.9,2.1,1.9l0.3,1.3c0,0-2.3,0.9-1.9,3c0.3,2.1,3.5,2.7,3.5,2.7
		s-2.8,1.3-4.1-0.5s-0.4-5.2,0.4-5.4c0.8-0.1-0.2-2.2-1.3-2.1c-1,0.1-3,1.2-3,1.2S113,268.4,114.5,267.1z"/>
	<polygon class="st0" points="42.3,343 50.4,348.5 48,355.4 54.9,361 44.7,355.8 47.4,349.4 40.5,346.2 	"/>
	<polygon class="st0" points="16,306.8 25.1,312.1 23.5,315.8 29.3,320.7 26.5,326.5 31.8,330.4 30.8,333 23.5,327.8 27.9,321.2 
		19.8,316.3 24.1,312.5 	"/>
	<path class="st0" d="M147.6,376.7c-8.2,3.4-17.2,5.3-26.6,5.3c-18.3,0-34.9-7.1-47.3-18.7c-1.5,1.2-3.1,2.4-4.7,3.4
		c-0.2,0.1-0.4,0.2-0.6,0.4c13.6,13.1,32.2,21.2,52.6,21.2c11.9,0,23.1-2.7,33.1-7.6C152,379.3,149.8,378,147.6,376.7z"/>
	<path class="st0" d="M147.6,376.7c-8.2,3.4-17.2,5.3-26.6,5.3c-18.3,0-34.9-7.1-47.3-18.7c-1.5,1.2-3.1,2.4-4.7,3.4
		c-0.2,0.1-0.4,0.2-0.6,0.4c13.6,13.1,32.2,21.2,52.6,21.2c11.9,0,23.1-2.7,33.1-7.6C152,379.3,149.8,378,147.6,376.7z"/>
	<g>
		<path class="st0" d="M281.4,338.9l-9.3-17.6h-0.4h-12v17.6h-16.6v-63.6h28.6c8.4,0,14.9,1.9,19.5,5.8c4.6,3.9,6.9,9.4,6.9,16.5
			c0,4.8-1,8.9-2.9,12.4c-1.9,3.5-4.7,6.2-8.4,8.1l13.2,20.8H281.4z M259.8,308.1h12.1c3.4,0,6-0.8,7.8-2.5c1.8-1.7,2.8-4.1,2.8-7.3
			c0-3.1-0.9-5.5-2.8-7.1c-1.8-1.7-4.5-2.5-7.8-2.5h-12.1V308.1z"/>
		<path class="st0" d="M301.6,275.4h50.2v13.2h-33.6v11.9h30.3v13.2l-30.3,0.1v12h34.5v13.2h-51.1V275.4z"/>
		<path class="st0" d="M352.9,275.4h17.9l15.9,46l16-46h17l-24.8,63.6h-17.2L352.9,275.4z"/>
		<path class="st0" d="M422,275.4h16.6v63.6H422V275.4z"/>
		<path class="st0" d="M443.7,275.4h50.2v13.2h-33.6v11.9h30.3v13.2l-30.3,0.1v12h34.5v13.2h-51.1V275.4z"/>
		<path class="st0" d="M579.1,275.4h17l-21.5,63.6h-17l-12.1-43.3l-12.2,43.3h-17l-21.4-63.6h17.9l12.5,46.4l12.5-46.4H554
			l12.7,46.4L579.1,275.4z"/>
		<path class="st0" d="M627.9,289.6c-3.8-1.3-7.1-1.9-9.7-1.9c-2.1,0-3.7,0.4-4.9,1.1c-1.2,0.8-1.8,1.9-1.8,3.3
			c0,1.4,0.5,2.6,1.5,3.5c1,0.9,2.3,1.7,3.8,2.3c1.5,0.6,3.7,1.3,6.7,2.2c4.4,1.3,8.1,2.5,10.9,3.8c2.9,1.3,5.3,3.2,7.4,5.8
			c2.1,2.6,3.1,6.1,3.1,10.3c0,4.2-1.1,7.8-3.4,10.8c-2.2,3-5.3,5.2-9.2,6.8c-3.9,1.5-8.2,2.3-13,2.3c-5.3,0-10.5-0.9-15.7-2.8
			c-5.2-1.8-9.7-4.4-13.6-7.6l6.4-13c3.2,2.8,7,5.2,11.4,7c4.4,1.8,8.3,2.7,11.7,2.7c2.5,0,4.4-0.5,5.8-1.4c1.4-0.9,2.1-2.2,2.1-4
			c0-1.5-0.5-2.7-1.6-3.6c-1.1-1-2.4-1.7-4-2.3c-1.6-0.6-3.9-1.3-6.8-2c-4.4-1.2-8-2.4-10.8-3.7c-2.8-1.2-5.3-3.1-7.3-5.6
			c-2-2.5-3-5.8-3-10c0-3.9,1-7.4,3.1-10.3c2.1-3,5-5.2,8.9-6.8c3.8-1.6,8.3-2.4,13.4-2.4c4.6,0,9.1,0.7,13.6,1.9
			c4.5,1.3,8.4,3,11.8,5.2l-6.3,13.2C635.3,292.5,631.7,290.9,627.9,289.6z"/>
		<path class="st0" d="M708.2,275.4l-1,6.4l-48.6,49.1h40.7l-1.2,8h-52.7l1-6.4l48.7-49.1h-39.3l1.3-8H708.2z"/>
		<path class="st0" d="M726.9,275.4l-12.7,63.5h-8.7l12.7-63.5H726.9z"/>
		<path class="st0" d="M777.9,279.9c3.6,3,5.4,7.2,5.4,12.7c0,5.3-1.2,10-3.6,14c-2.4,4-5.9,7.1-10.3,9.3c-4.5,2.2-9.8,3.3-15.9,3.3
			h-15.8l-4,19.8h-8.7l12.7-63.5h24.5C769.1,275.4,774.3,276.9,777.9,279.9z M769.5,306.8c3.5-3,5.3-7.1,5.3-12.5
			c0-3.6-1.2-6.3-3.7-8.1c-2.5-1.8-6-2.8-10.7-2.8h-15.6l-5.5,27.8h15.4C761.1,311.3,766,309.8,769.5,306.8z"/>
	</g>
</g>
</svg>
