<svg id="Layer_1" data-name="Layer 1" xmlns="http://www.w3.org/2000/svg" viewBox="0 0 1024 1024"><defs><style>.cls-1{fill:#f25d50;}.cls-2{fill:#fff;}</style></defs><title>merchantcircle</title><circle id="_Path_" data-name="&lt;Path&gt;" class="cls-1" cx="512" cy="512" r="512"/><path class="cls-2" d="M141,510.73c0-40.55-.15-81.1,0-121.64.14-31.31,16.84-46.37,47.78-43.34,3.08.3,7.35,1.2,8.81,3.35,11,16.12,23.72,9,37.11,4.14,43.38-15.59,84.43-8.93,123.39,14.38a39.71,39.71,0,0,1,9.15,6.93c11.17,12.31,20.22,10.27,32.83-.14,60.79-50.22,167.08-36.63,208,43.77,3.36,6.59,3.64,17.19.84,24.1C585.28,500.49,586.12,556,623,609.1c15.74,22.71-3,64.78-30,69.54-19.26,3.4-41.24-15.71-41.38-36.86-.34-51-.1-101.91-.26-152.87-.09-29.51-13.88-51.24-40.19-63.59-44-20.64-90.72,15-91.36,61.87-.68,50.4-.16,100.82-.37,151.23-.09,22.65-15.37,39.62-36,40.66-17.1.86-36.41-18.54-38.16-38.66-.52-6-.27-12-.28-18.07-.07-45.48,0-91-.22-136.43-.21-37.36-30.58-69.76-65.63-67.28a68.32,68.32,0,0,0-63.46,69.09c.28,52.59-.35,105.19-.54,157.79-.06,17.35-12.13,24.78-25.74,30-14.36,5.5-28.17,1.63-36.67-10.42-6.18-8.76-10.88-20.52-11.21-31.1C140.24,592.95,141,551.83,141,510.73Z" transform="translate(0 0)"/><path class="cls-2" d="M697.56,368.13c-97.1,41.08-137.36,174.57-45.23,263.15,60.24,57.92,147.72,62,215.58,14.17,21.46-15.14,21.55-45.64.48-61.34-18.45-13.75-34-4.91-49.62,5.5-44.5,29.73-105.63,15.44-133.4-31.8-30.53-51.94.77-112.58,57.85-129.82,26.63-8,51.73-2.41,75.35,12.1,9.29,5.71,19.8,13.37,29.69,13.27,15.59-.16,29.4-8.68,34.28-25.63,5-17.4-1.19-34.31-17-44.11C835.42,365,804,350,767,352.88,767,352.88,727.72,355.37,697.56,368.13Z" transform="translate(0 0)"/></svg>