<?xml version="1.0"?>
<svg xmlns="http://www.w3.org/2000/svg" xmlns:xlink="http://www.w3.org/1999/xlink" xmlns:svgjs="http://svgjs.com/svgjs" version="1.1" width="24" height="24" x="0" y="0" viewBox="0 0 512 512" style="enable-background:new 0 0 512 512" xml:space="preserve" class=""><g><g xmlns="http://www.w3.org/2000/svg"><g><path d="m120.618 244.971c-66.509 0-120.618-54.109-120.618-120.618 0-31.758 12.242-61.742 34.472-84.428 2.899-2.958 7.648-3.007 10.606-.108s3.007 7.648.108 10.606c-19.466 19.866-30.186 46.121-30.186 73.93 0 58.238 47.38 105.618 105.618 105.618s105.618-47.38 105.618-105.618-47.38-105.618-105.618-105.618c-18.788 0-37.234 4.996-53.344 14.448-3.572 2.095-8.168.9-10.264-2.673-2.096-3.572-.899-8.168 2.673-10.264 18.409-10.801 39.48-16.511 60.935-16.511 66.509 0 120.618 54.109 120.618 120.618s-54.109 120.618-120.618 120.618z" fill="#ffffff" data-original="#000000" style="" class=""/><g><g><ellipse cx="66.457" cy="104.184" rx="13.913" ry="23.189" fill="#ffffff" data-original="#000000" style="" class=""/></g><g><ellipse cx="174.775" cy="104.184" rx="13.913" ry="23.189" fill="#ffffff" data-original="#000000" style="" class=""/></g></g><path d="m120.616 188.336c-23.074 0-43.778-13.744-52.747-35.016-1.609-3.817.18-8.215 3.997-9.825 3.817-1.609 8.215.181 9.824 3.997 6.62 15.699 21.899 25.844 38.926 25.844s32.307-10.144 38.926-25.844c1.609-3.816 6.006-5.606 9.824-3.997 3.817 1.609 5.606 6.008 3.997 9.825-8.969 21.271-29.673 35.016-52.747 35.016z" fill="#ffffff" data-original="#000000" style="" class=""/></g><path d="m120.616 508.265c-66.508 0-120.616-54.108-120.616-120.616s54.108-120.616 120.616-120.616 120.616 54.108 120.616 120.616-54.108 120.616-120.616 120.616zm0-226.232c-58.237 0-105.616 47.379-105.616 105.616s47.379 105.616 105.616 105.616 105.616-47.379 105.616-105.616-47.379-105.616-105.616-105.616z" fill="#ffffff" data-original="#000000" style="" class=""/><g><g><ellipse cx="66.457" cy="367.481" rx="13.913" ry="23.189" fill="#ffffff" data-original="#000000" style="" class=""/></g><g><ellipse cx="174.775" cy="367.481" rx="13.913" ry="23.189" fill="#ffffff" data-original="#000000" style="" class=""/></g></g><path d="m166.456 451.635c-2.926 0-5.706-1.723-6.914-4.588-6.62-15.699-21.899-25.844-38.926-25.844s-32.307 10.144-38.926 25.844c-1.609 3.816-6.007 5.607-9.824 3.997-3.817-1.609-5.606-6.008-3.997-9.824 8.968-21.272 29.673-35.016 52.747-35.016s43.779 13.745 52.747 35.016c1.609 3.816-.18 8.215-3.997 9.824-.951.401-1.939.591-2.91.591z" fill="#ffffff" data-original="#000000" style="" class=""/><path d="m402.536 230.713c-8.492 0-16.439-3.775-21.804-10.358l-77.195-94.693c-4.748-5.825-6.945-13.15-6.184-20.626s4.388-14.209 10.213-18.958c12.023-9.802 29.781-7.994 39.583 4.03l50.159 61.528 61.58-118.482c7.154-13.765 24.172-19.144 37.938-11.99 6.668 3.466 11.588 9.321 13.852 16.487 2.265 7.166 1.603 14.785-1.863 21.453l-81.313 156.45c-4.381 8.43-12.639 14.042-22.09 15.012-.948.098-1.917.147-2.876.147zm-77.205-135.957c-2.919 0-5.854.965-8.287 2.948-2.719 2.217-4.413 5.36-4.768 8.85s.67 6.91 2.887 9.63l77.196 94.694c2.505 3.073 6.215 4.835 10.178 4.835.447 0 .898-.023 1.341-.069 4.415-.453 8.27-3.073 10.316-7.009l81.313-156.45c1.618-3.113 1.927-6.67.87-10.015s-3.354-6.079-6.467-7.697c-6.425-3.339-14.372-.829-17.712 5.598l-66.84 128.604c-1.164 2.24-3.377 3.744-5.889 4.002-2.51.258-4.984-.765-6.579-2.722l-57.366-70.369c-2.593-3.18-6.379-4.83-10.193-4.83z" fill="#ffffff" data-original="#000000" style="" class=""/><path d="m485.051 493.436c-7.201 0-13.967-2.801-19.053-7.887l-59.796-59.805-59.805 59.805c-5.086 5.086-11.853 7.887-19.053 7.887-7.207 0-13.973-2.803-19.05-7.893-10.496-10.496-10.496-27.586.006-38.089l59.797-59.805-20.097-20.097c-2.929-2.929-2.929-7.678 0-10.606 2.929-2.929 7.678-2.929 10.606 0l25.399 25.399c2.929 2.929 2.929 7.677 0 10.606l-65.099 65.109c-4.655 4.655-4.655 12.229 0 16.884 2.249 2.255 5.243 3.493 8.437 3.493s6.194-1.241 8.447-3.494l65.108-65.108c1.406-1.407 3.314-2.197 5.303-2.197 1.989 0 3.897.79 5.303 2.197l65.099 65.109c2.252 2.252 5.252 3.493 8.446 3.493s6.194-1.241 8.447-3.494c4.654-4.654 4.654-12.228 0-16.883l-65.109-65.109c-2.929-2.929-2.929-7.678 0-10.606l65.109-65.109c4.655-4.655 4.654-12.229 0-16.883-4.656-4.649-12.238-4.65-16.897.004l-65.095 65.105c-1.406 1.407-3.314 2.197-5.303 2.197s-3.897-.79-5.304-2.197l-65.109-65.109c-4.655-4.653-12.229-4.655-16.883 0-4.654 4.654-4.655 12.228 0 16.883l18.551 18.561c2.928 2.93 2.927 7.678-.003 10.606-2.93 2.927-7.678 2.927-10.606-.003l-18.55-18.56c-10.501-10.501-10.501-27.591.001-38.095 10.504-10.503 27.594-10.502 38.096 0l59.805 59.806 59.796-59.805c10.508-10.494 27.599-10.494 38.103-.004 10.506 10.507 10.506 27.597.003 38.099l-59.806 59.806 59.806 59.806c10.503 10.503 10.503 27.593 0 38.096-5.084 5.086-11.85 7.887-19.05 7.887z" fill="#ffffff" data-original="#000000" style="" class=""/></g></g></svg>
