<svg id="Layer_1" data-name="Layer 1" xmlns="http://www.w3.org/2000/svg" viewBox="0 0 1024 1024"><defs><style>.cls-1{fill:#f0f2f4;}.cls-2{fill:#231f20;}.cls-3{fill:#f3be55;}</style></defs><title>superpages</title><circle id="_Path_" data-name="&lt;Path&gt;" class="cls-1" cx="512" cy="512" r="512"/><path class="cls-2" d="M932.1,462.34h-4.38l-2.45,11.58h-1.74L926,462.34H921.6l.31-1.45h10.51Z" transform="translate(0 0)"/><path class="cls-2" d="M933.85,460.89h2.41l1.73,11.2h0l6.44-11.2h2.41l-2.76,13h-1.66l2.67-11.41h0l-6.64,11.41h-1.66l-1.7-11.41h0l-2.28,11.41h-1.66Z" transform="translate(0 0)"/><path class="cls-2" d="M178.74,448.73s13.07-1,34.55-7.63,48.55-27.68,48.55-27.68,28,20,50.42,26.72,37.36,11.45,37.36,11.45,14.93,125-88.71,162.24C161,588.07,178.74,448.73,178.74,448.73Zm82.62,149.95c88-31.59,75.29-137.7,75.29-137.7S324,456.93,305,451.26s-42.79-22.68-42.79-22.68-23,17.82-41.21,23.49-29.32,6.48-29.32,6.48S176.57,576.81,261.37,598.68Z" transform="translate(0 0)"/><path class="cls-3" d="M179.56,445.47s13.07-1,34.55-7.63,48.55-27.68,48.55-27.68,28,20,50.42,26.72,37.35,11.45,37.35,11.45,14.93,125-88.71,162.24C161.82,584.81,179.56,445.47,179.56,445.47Zm82.63,149.95c88-31.59,75.29-137.7,75.29-137.7s-12.68-4.05-31.7-9.72S263,425.32,263,425.32s-23,17.82-41.21,23.49-29.32,6.48-29.32,6.48S177.39,573.55,262.18,595.42Z" transform="translate(0 0)"/><path class="cls-2" d="M115.59,512.35a6.87,6.87,0,0,0,1.9,5.17,10.67,10.67,0,0,0,5.92,1.43,7.62,7.62,0,0,0,3.79-.8,5.83,5.83,0,0,0,2.07-1.28,5.3,5.3,0,0,0,1-2.93,3.51,3.51,0,0,0-.89-2.56,6.36,6.36,0,0,0-2.93-1.39,30.39,30.39,0,0,0-4.43-1.12l-5.81-.75a26,26,0,0,1-3.65-1,25.89,25.89,0,0,1-5.09-2.08,14.33,14.33,0,0,1-4.21-4.26,12.49,12.49,0,0,1-1.9-7.3A18.56,18.56,0,0,1,104,483.26a17.25,17.25,0,0,1,6.29-6.34,39.6,39.6,0,0,1,18.83-4.1,77.5,77.5,0,0,1,9.12.54,29.37,29.37,0,0,1,8.29,2.62,14,14,0,0,1,6,5.46,16.24,16.24,0,0,1,1.63,9.31H134.87q.32-3.33-1.54-4.58a9.31,9.31,0,0,0-5-1.42,9.11,9.11,0,0,0-4,.85,3.9,3.9,0,0,0-2.07,3.73q.11,4.16,4.9,4.27,12.08,1.38,18.1,5.12t5.91,12.42q-.11,10-7.77,15.41-7.61,5.6-20.91,5.71a45.81,45.81,0,0,1-9-.9,27.51,27.51,0,0,1-8.57-2.81,15.4,15.4,0,0,1-6.24-6.11q-2.43-3.77-2.32-10.09Z" transform="translate(0 0)"/><path class="cls-2" d="M212.16,530.82H191.89l1.71-7.17-.21,0a22.18,22.18,0,0,1-17.72,8.57,20.21,20.21,0,0,1-12.25-3.62q-5.12-3.47-5.22-11.45,0-3,1.8-11.67t6.34-31.32h20.86l-6.06,29.6a32,32,0,0,0-.87,6.24,4.07,4.07,0,0,0,1.91,3.57,6.43,6.43,0,0,0,4.12,1.44,7.68,7.68,0,0,0,5.62-2,11.16,11.16,0,0,0,3-4.37,36.25,36.25,0,0,0,1.7-5.76q.62-3.09,1.13-5.7l4.76-23h21Z" transform="translate(0 0)"/><path class="cls-2" d="M235.63,474.2H256l-1.33,6.45h.21a16.72,16.72,0,0,1,14.78-7.83,20.82,20.82,0,0,1,9.66,2,16.66,16.66,0,0,1,6.12,5.7,22.43,22.43,0,0,1,3.24,7.51,39,39,0,0,1,.87,8,47.67,47.67,0,0,1-6.34,24.28,24.69,24.69,0,0,1-8.24,8.52,22.61,22.61,0,0,1-12.1,3.41,23.53,23.53,0,0,1-8.67-1.43q-4.34-1.54-7.85-6.84l-5,25.19H219.91Zm22,42.41a7.89,7.89,0,0,0,5.44-2,13.29,13.29,0,0,0,3.26-4.38,31.77,31.77,0,0,0,2.33-11.69,15.75,15.75,0,0,0-1.45-7.21q-1.61-2.78-6.17-2.88a8.16,8.16,0,0,0-5.7,2.08,15.84,15.84,0,0,0-3.46,5.39,36.39,36.39,0,0,0-2.08,11.37,12.51,12.51,0,0,0,.32,2.19,11.8,11.8,0,0,0,1,3.15,7,7,0,0,0,2.4,2.62A6.39,6.39,0,0,0,257.62,516.61Z" transform="translate(0 0)"/><path class="cls-2" d="M352,514.33l-.52,1.6a26.83,26.83,0,0,1-1.19,2.67,20.65,20.65,0,0,1-4.44,6,24.56,24.56,0,0,1-8.57,5.28q-5.58,2.3-14.46,2.4Q308.37,532,302,524.8q-6.53-7-6.43-17.52,0-9.85,3.3-16.51a30.28,30.28,0,0,1,8.14-10.55,32.71,32.71,0,0,1,10.61-5.81,39.38,39.38,0,0,1,10.77-1.6,31.66,31.66,0,0,1,18.08,5.64q8.4,5.8,8.76,19.06a40.55,40.55,0,0,1-1.08,9.85H315.1A12.92,12.92,0,0,0,317,515q1.81,3.41,6.68,3.41,6.78-.27,8.28-4.05Zm-16.4-18.18a9.37,9.37,0,0,0,.21-1.86,8,8,0,0,0-1.92-5.54q-2-2.08-6.06-2.08-8.74.11-11.24,9.48Z" transform="translate(0 0)"/><path class="cls-2" d="M370.85,474.2h20.94L390,483h.21a24,24,0,0,1,7.62-7.51,17.38,17.38,0,0,1,8.85-2.71,26.06,26.06,0,0,1,7.62.85l-4,19.06a25.57,25.57,0,0,0-8.31-1.38q-6.77,0-10.61,3.36-3.78,3.62-5.65,12.46l-4.9,23.65H359.18Z" transform="translate(0 0)"/><path class="cls-2" d="M418.5,474.38h8.73l-2,8.07h.22q4.15-5.46,8.57-7.42a24.65,24.65,0,0,1,10.1-2,25,25,0,0,1,9.49,1.69,19.36,19.36,0,0,1,7,4.75,19.79,19.79,0,0,1,4.26,7.32,29.54,29.54,0,0,1,1.42,9.39A40.38,40.38,0,0,1,464.18,509a38.4,38.4,0,0,1-6.11,11.52,31.56,31.56,0,0,1-9.82,8.36A27,27,0,0,1,435,532.14a30.23,30.23,0,0,1-5.35-.49,21,21,0,0,1-5.19-1.64,15.23,15.23,0,0,1-4.37-3.06,10.44,10.44,0,0,1-2.68-4.76h-.22l-6,30.23H402ZM457,496.22q0-6.87-3.44-10.91t-11.08-4a16.7,16.7,0,0,0-9.39,2.73,24.45,24.45,0,0,0-6.93,6.87,34.84,34.84,0,0,0-5.73,18.43,15.24,15.24,0,0,0,3.66,10.47q3.66,4.14,10.53,4.14a18.09,18.09,0,0,0,9.71-2.56,23.68,23.68,0,0,0,7-6.6,29.88,29.88,0,0,0,4.26-8.95A34.43,34.43,0,0,0,457,496.22Z" transform="translate(0 0)"/><path class="cls-2" d="M475.71,491.42a19.73,19.73,0,0,1,2.89-8.14,20.66,20.66,0,0,1,5.51-5.73,23,23,0,0,1,7.42-3.39,33.69,33.69,0,0,1,8.62-1.09,45.26,45.26,0,0,1,7.8.66,20,20,0,0,1,6.61,2.29,12.62,12.62,0,0,1,4.54,4.42,13.36,13.36,0,0,1,1.69,7,24.65,24.65,0,0,1-.6,5.19q-.6,2.78-1.15,5.08l-3.6,15.4q-.33,1.75-.93,3.93a15.69,15.69,0,0,0-.6,4.15,3.82,3.82,0,0,0,.76,2.73,2.66,2.66,0,0,0,2,.76,4.69,4.69,0,0,0,1.47-.28l1.47-.5-1.42,6.9a12.35,12.35,0,0,1-2.79.93,13.44,13.44,0,0,1-2.89.38,7.49,7.49,0,0,1-5.79-2.13,7,7,0,0,1-1.53-5.85l-.22-.21a19.94,19.94,0,0,1-7.32,6.06q-4.37,2.13-11.58,2.13a25,25,0,0,1-6.66-.87,14.91,14.91,0,0,1-5.52-2.78,13.34,13.34,0,0,1-3.71-4.91,17.76,17.76,0,0,1-1.37-7.37q0-6.11,2.68-9.66a16.68,16.68,0,0,1,6.88-5.35,34.75,34.75,0,0,1,9.23-2.46q5-.65,9.72-1.09,3.71-.33,6.39-.71a14.5,14.5,0,0,0,4.42-1.26,5.53,5.53,0,0,0,2.57-2.51,10.12,10.12,0,0,0,.82-4.48,5.93,5.93,0,0,0-1.09-3.71,7.83,7.83,0,0,0-2.73-2.24,12.8,12.8,0,0,0-3.66-1.15,24.1,24.1,0,0,0-3.87-.33,24.87,24.87,0,0,0-5.19.55,14.83,14.83,0,0,0-4.64,1.8,12.1,12.1,0,0,0-3.49,3.16,10.32,10.32,0,0,0-1.86,4.63Zm2.4,24.65a6.51,6.51,0,0,0,3.11,5.89,12.92,12.92,0,0,0,7,2q11,0,15.84-7.41a18.31,18.31,0,0,0,3.11-6.86Q508,506,509,502l-.22,0a16.54,16.54,0,0,1-3.6,1.47q-2.07.6-4.42,1t-5,.71q-2.62.27-5.13.6a33.46,33.46,0,0,0-4.8,1,13.89,13.89,0,0,0-4,1.8,8.4,8.4,0,0,0-3.77,7.47Z" transform="translate(0 0)"/><path class="cls-2" d="M574.43,522.63q-1,4.36-2.07,8.4a60.73,60.73,0,0,1-2.29,7q-3.6,8.51-10.1,12.11a31.61,31.61,0,0,1-15.55,3.6,34.89,34.89,0,0,1-8.3-1,22.17,22.17,0,0,1-7.15-3.07,16,16,0,0,1-5-5.42,16.76,16.76,0,0,1-2-8h9.3a8.68,8.68,0,0,0,4.64,7.48,13.46,13.46,0,0,0,4.42,1.42,34.11,34.11,0,0,0,5.13.38,17.57,17.57,0,0,0,8.79-2,16.71,16.71,0,0,0,5.62-5.18,27.25,27.25,0,0,0,3.44-7.25q1.26-4,2.35-8.29l-.22-.22a17.7,17.7,0,0,1-7.64,6.6,24.37,24.37,0,0,1-9.93,2,22.76,22.76,0,0,1-9.23-1.75,17.88,17.88,0,0,1-6.61-4.86,21.46,21.46,0,0,1-4-7.42,30.57,30.57,0,0,1-1.37-9.33,40.13,40.13,0,0,1,2-12.45,37.54,37.54,0,0,1,5.79-11.19,30.21,30.21,0,0,1,9.22-8.08A24.48,24.48,0,0,1,556,473.06a22.37,22.37,0,0,1,6,.82,21.77,21.77,0,0,1,5.4,2.29,15.29,15.29,0,0,1,4.15,3.6,12.39,12.39,0,0,1,2.35,4.75v.22h.22l1.75-10.36h8.73Zm-38.52-14.75a18.79,18.79,0,0,0,.87,5.78,14.46,14.46,0,0,0,2.57,4.8,12.36,12.36,0,0,0,4.31,3.32,14,14,0,0,0,6.11,1.25,15.89,15.89,0,0,0,9.11-2.62,21.87,21.87,0,0,0,6.39-6.65A32,32,0,0,0,569,505a35.1,35.1,0,0,0,1.26-9q0-6.65-3.55-10.68t-10.86-4a14.18,14.18,0,0,0-8.62,2.73,24.37,24.37,0,0,0-6.22,6.7,32.74,32.74,0,0,0-3.82,8.61A31.64,31.64,0,0,0,535.92,507.87Z" transform="translate(0 0)"/><path class="cls-2" d="M595.48,505.39a41.2,41.2,0,0,0-.3,4.91,13.61,13.61,0,0,0,1.2,5.83,12,12,0,0,0,3.28,4.25,15.65,15.65,0,0,0,4.69,2.62,16.22,16.22,0,0,0,5.46.93A17.75,17.75,0,0,0,620,521.14a16.27,16.27,0,0,0,6.06-8h9.28a24.44,24.44,0,0,1-3.49,8.25,23.11,23.11,0,0,1-5.78,6,24.85,24.85,0,0,1-7.53,3.61,31.27,31.27,0,0,1-8.73,1.2A27.3,27.3,0,0,1,598.18,530a20.77,20.77,0,0,1-7.37-5.52,19.58,19.58,0,0,1-3.83-7.31,29,29,0,0,1-1.09-7.7,44.67,44.67,0,0,1,2.35-14.8,37,37,0,0,1,6.33-11.52,28.28,28.28,0,0,1,9.28-7.43,24.69,24.69,0,0,1,11.08-2.62q12.45,0,18.18,6.55t5.73,18.46a25.18,25.18,0,0,1-.33,4.15q-.33,2-.55,3.17Zm34.07-8.22a20.8,20.8,0,0,0-.38-5.82,14,14,0,0,0-2.13-5.12,11,11,0,0,0-4.2-3.59,14.19,14.19,0,0,0-6.49-1.36,19.82,19.82,0,0,0-7.32,1.25,17.47,17.47,0,0,0-5.51,3.43,22,22,0,0,0-4,5.06,28,28,0,0,0-2.67,6.15Z" transform="translate(0 0)"/><path class="cls-2" d="M680,490.93a8.12,8.12,0,0,0-3.27-7.22,11.07,11.07,0,0,0-3.82-1.84,17.36,17.36,0,0,0-4.59-.6,28.16,28.16,0,0,0-4.31.33,13.54,13.54,0,0,0-3.82,1.15,7.68,7.68,0,0,0-2.78,2.24,5.56,5.56,0,0,0-1.09,3.49,4.92,4.92,0,0,0,1.26,3.38,13,13,0,0,0,3.38,2.62,38.84,38.84,0,0,0,4.75,2.24q2.62,1,5.46,2.13t5.46,2.56a21.65,21.65,0,0,1,4.81,3.22,15.56,15.56,0,0,1,3.39,4.31,12,12,0,0,1,1.31,5.73,14.86,14.86,0,0,1-2.07,8,16.86,16.86,0,0,1-5.35,5.4,24.2,24.2,0,0,1-7.43,3.06,35.56,35.56,0,0,1-8.19,1,39.52,39.52,0,0,1-9-1,20.31,20.31,0,0,1-7.26-3.17,14.91,14.91,0,0,1-4.8-5.85,21.12,21.12,0,0,1-1.75-9.13h9.3a9.37,9.37,0,0,0,.93,5.24,8.94,8.94,0,0,0,3.17,3.33,14.21,14.21,0,0,0,4.69,1.8,28.07,28.07,0,0,0,5.62.55,24.44,24.44,0,0,0,4.58-.44,13.7,13.7,0,0,0,4.15-1.47,8.91,8.91,0,0,0,3-2.68,6.89,6.89,0,0,0,1.14-4,5.29,5.29,0,0,0-1.25-3.55,12.44,12.44,0,0,0-3.39-2.68,37.27,37.27,0,0,0-4.8-2.24q-2.68-1-5.41-2.24t-5.52-2.4a23.19,23.19,0,0,1-4.8-3.11,13.91,13.91,0,0,1-3.38-4.2,11.82,11.82,0,0,1-1.26-5.57,13.5,13.5,0,0,1,1.8-7,15.83,15.83,0,0,1,4.75-5.08,23.23,23.23,0,0,1,6.72-3.11,27.56,27.56,0,0,1,7.7-1.09,32.9,32.9,0,0,1,7.76.93,19.77,19.77,0,0,1,6.83,3.05,16.06,16.06,0,0,1,4.86,5.56,17.32,17.32,0,0,1,1.86,8.34Z" transform="translate(0 0)"/><path class="cls-2" d="M695.79,518.7H707.9l-2.62,12.12H693.17Z" transform="translate(0 0)"/><path class="cls-2" d="M765,492.25q0-5.22-3.21-8.1t-8.66-2.88a18.24,18.24,0,0,0-9.42,2.4,22.5,22.5,0,0,0-6.86,6.22,28,28,0,0,0-4.2,8.56,32.47,32.47,0,0,0-1.42,9.33A26.45,26.45,0,0,0,732,514a13.81,13.81,0,0,0,2.34,5.13,11.71,11.71,0,0,0,4.31,3.49,14.89,14.89,0,0,0,6.59,1.31,16.72,16.72,0,0,0,10.24-3.15,18.07,18.07,0,0,0,6.21-8.36h9.26q-2.51,9.49-9.21,14.61t-16.52,5.12q-11.56,0-17.39-6.44T722,507.79a42,42,0,0,1,2-12.94,33.6,33.6,0,0,1,6-11.14,29.39,29.39,0,0,1,9.82-7.75,29.7,29.7,0,0,1,13.36-2.89q9.6,0,15.22,4.64t5.94,14.56Z" transform="translate(0 0)"/><path class="cls-2" d="M778,508.55a42.13,42.13,0,0,1,2.13-13.32,34.44,34.44,0,0,1,6.23-11.36,31,31,0,0,1,9.94-7.86,29.07,29.07,0,0,1,13.27-2.95q11.36,0,17.42,6T833,496.43A43.21,43.21,0,0,1,831,509.75a34.76,34.76,0,0,1-6.12,11.41,30.83,30.83,0,0,1-9.83,8,28.28,28.28,0,0,1-13.22,3,27,27,0,0,1-10-1.75,21,21,0,0,1-7.48-4.91,21.71,21.71,0,0,1-4.7-7.48A26.44,26.44,0,0,1,778,508.55Zm9.3-.12q0,7,3.93,11.23t11.58,4.26a15.79,15.79,0,0,0,9-2.62,23.79,23.79,0,0,0,6.6-6.6,30.92,30.92,0,0,0,4-8.67,31.77,31.77,0,0,0,1.37-8.83,21.76,21.76,0,0,0-.87-6.22,12.94,12.94,0,0,0-7.37-8.45,16,16,0,0,0-6.6-1.26,16.9,16.9,0,0,0-9.39,2.62,24,24,0,0,0-6.77,6.6,29.93,29.93,0,0,0-4.09,8.78A33.45,33.45,0,0,0,787.27,508.43Z" transform="translate(0 0)"/><path class="cls-2" d="M848.05,474.38h8.62l-2.07,8.4.22.22a28.16,28.16,0,0,1,8.67-7.21,22.84,22.84,0,0,1,11-2.73,17.49,17.49,0,0,1,9.17,2.29q3.83,2.29,5,7.86a24.35,24.35,0,0,1,8.46-7.37A22.65,22.65,0,0,1,908,473.06a23.74,23.74,0,0,1,5.79.71,16.4,16.4,0,0,1,5.08,2.18,10.6,10.6,0,0,1,3.56,3.93,12.26,12.26,0,0,1,1.31,5.84,33.78,33.78,0,0,1-.55,5.68q-.55,3.17-1.09,5.57L915,530.82h-9.28L913.55,495q.33-1.31.6-3.11a20.36,20.36,0,0,0,.27-3,7,7,0,0,0-2.46-5.46,9,9,0,0,0-6.17-2.18,12.8,12.8,0,0,0-4,.66,21.34,21.34,0,0,0-3.88,1.69,21,21,0,0,0-3.49,2.46,21.22,21.22,0,0,0-2.84,2.95,15.91,15.91,0,0,0-3.39,5.78,63.2,63.2,0,0,0-1.85,6.87l-6.22,29.14h-9.28l6.77-32.19q.77-3.27,1.25-6.11a27.64,27.64,0,0,0,.49-3.82,7.27,7.27,0,0,0-2-5.46,8,8,0,0,0-5.84-2,12.92,12.92,0,0,0-3.88.6,20.79,20.79,0,0,0-3.71,1.58,23.64,23.64,0,0,0-3.44,2.29,20.08,20.08,0,0,0-2.84,2.73,16,16,0,0,0-4,5.73,48.68,48.68,0,0,0-2,7l-6.33,29.57H836Z" transform="translate(0 0)"/></svg>