<?xml version="1.0" encoding="utf-8"?>
<!-- Generator: Adobe Illustrator 23.1.0, SVG Export Plug-In . SVG Version: 6.00 Build 0)  -->
<svg version="1.1" id="Layer_1" xmlns="http://www.w3.org/2000/svg" xmlns:xlink="http://www.w3.org/1999/xlink" x="0px" y="0px"
	 viewBox="0 0 512 512" style="enable-background:new 0 0 512 512;" xml:space="preserve">
<style type="text/css">
	.st0{fill-rule:evenodd;clip-rule:evenodd;fill:#009ED9;}
	.st1{fill-rule:evenodd;clip-rule:evenodd;}
	.st2{fill-rule:evenodd;clip-rule:evenodd;fill:#FFFFFF;}
</style>
<g>
	<path class="st0" d="M256.1,93.2c66.5,0,120.5,53.9,120.5,120.5s-53.9,120.5-120.5,120.5s-120.5-53.9-120.5-120.5
		S189.5,93.2,256.1,93.2L256.1,93.2z"/>
	<polygon points="414.1,363.6 424.7,363.6 424.7,393.3 438.1,379.3 450.8,379.3 436.8,393.7 453,417.8 440.1,417.8 429.3,400.5 
		424.7,405.1 424.7,417.8 414.1,417.8 414.1,363.6 	"/>
	<path class="st1" d="M108.2,363.6h10.6v19.3c1.7-2.1,5.3-4.7,10.6-4.7c8.8,0,15.5,5.7,15.5,15l0,24.6h-10.6v-20.5
		c0-4.9-1.5-9.2-7.2-9.2c-5.3,0-8,3.4-8.2,7.3v22.5h-10.6V363.6L108.2,363.6z"/>
	<path class="st1" d="M176.7,379.3h10.6v38.6h-10.6V414c-1.7,2.1-5.3,4.7-10.6,4.7c-8.8,0-15.5-5.7-15.5-15l0,0l0,0v-24.4h10.6v20.3
		c0,4.9,1.5,9.2,7.2,9.2c5.3,0,8.2-3.7,8.2-8.1V379.3L176.7,379.3z"/>
	<path class="st1" d="M352.6,377.9c11.1,0,18.2,5.9,18.2,15.8v24h-10.2v-4.3c-2.1,3-6.2,5.3-11.7,5.3c-7.4,0-13.8-4.8-13.8-12.3
		c0-6.1,4-10.2,9.6-11.7c4-1.1,11-1.5,15.2-2.2c-0.5-4.5-4.7-5.6-8-5.6c-4.4,0-8.2,1.8-11.1,3.5l-3.9-7.2
		C340,380.8,346.2,377.9,352.6,377.9L352.6,377.9z M360.3,400.9v-1.3c-2.7,0.4-7.7,1-10.2,1.6c-2.5,0.5-4.2,2.3-4.2,4.6
		c0,2.6,1.6,4.8,5.2,4.8C355.8,410.5,360.3,408,360.3,400.9L360.3,400.9z"/>
	<path class="st1" d="M204.3,417.8h-10.6v-38.6h10.6v3.6c1.8-2.1,5.4-4.8,10.6-4.8c5.6,0,10.4,2.3,13.1,6.4
		c2.5-3.7,6.8-6.4,12.9-6.4c8.8,0,15.5,5.7,15.5,15l0,24.6h-10.6v-21c-0.1-4.9-1.7-8.7-7.2-8.7c-5.3,0-8.2,3.4-8.2,8v21.7h-10.6v-21
		c-0.1-4.7-1.7-8.7-7.2-8.7c-5.3,0-8,3.4-8.2,7.3L204.3,417.8L204.3,417.8z"/>
	<path class="st1" d="M304.2,379.3h5.6v-11.4h10.6v11.4H332v9.3h-11.5v13.9c0,5.5,1.6,8,8.9,5.1l3.4,8.3c-3,1.8-6.8,2.9-10.7,2.9
		c-7.7,0-12.2-4.9-12.2-12.6v-17.6h-5.6V379.3L304.2,379.3z"/>
	<path class="st1" d="M262.5,363.6h10.4v19.5c2.8-3.1,6.6-5,11.5-5c10.5,0,18.6,8.7,18.6,20.3c0,11.6-7.9,20.3-18.8,20.3
		c-4.8,0-8.5-1.8-11.4-5v4h-10.3V363.6L262.5,363.6z M282.5,388c5.9,0,9.9,4.5,9.9,10.5c0,6-3.7,10.4-9.9,10.4
		c-6.2,0-9.8-4.7-9.8-10.4C272.7,392.7,276.7,388,282.5,388L282.5,388z"/>
	<path class="st1" d="M76.3,383.4c2.8-3.5,6.1-5,11.3-5.3V402c0,6.8-1.8,11.3-5.5,16.7c-3.5-5.2-5.8-9.4-5.8-16.7V383.4L76.3,383.4z
		"/>
	<path class="st2" d="M241.2,206.6c6.9-9.1,15.1-12.8,27.9-13.6v61.5c0,17.6-4.7,29.3-13.8,43.3c-8.8-13.4-14.1-24.5-14.1-43.3
		V206.6L241.2,206.6z"/>
	<polygon class="st1" points="59,363.6 104.9,363.6 104.9,373.9 59,373.9 59,363.6 	"/>
	<polygon class="st2" points="196.5,156 316.3,156 316.3,181.1 196.5,181.1 196.5,156 	"/>
	<path class="st1" d="M394.8,378.1c-11.7,0-20.3,8.6-20.3,20.4c0,11.8,9,20.2,19.8,20.2c7.3,0,12.1-2,16.5-7.3l-7.5-6.5
		c-1.9,2.3-4.9,3.9-8.3,3.9c-6-0.1-9.5-4.4-9.5-10.3c0-6,3.7-10.6,9.5-10.6c3.3,0,6.3,1.5,8.1,3.9l7.6-6.4
		C406.8,380.1,401,378.1,394.8,378.1L394.8,378.1z"/>
</g>
</svg>
