<?xml version="1.0" encoding="utf-8"?>
<!-- Generator: Adobe Illustrator 23.1.0, SVG Export Plug-In . SVG Version: 6.00 Build 0)  -->
<svg version="1.1" id="layer" xmlns="http://www.w3.org/2000/svg" xmlns:xlink="http://www.w3.org/1999/xlink" x="0px" y="0px"
	 viewBox="0 0 652 652" style="enable-background:new 0 0 652 652;" xml:space="preserve">
<style type="text/css">
	.st0{fill:#00B67A;}
	.st1{fill:#005128;}
</style>
<path d="M84.1,414.8h66.4v12.4h-26.1v69.7H110v-69.7H84L84.1,414.8L84.1,414.8z M147.7,437.5h12.3V449h0.2c0.4-1.6,1.2-3.2,2.3-4.7
	c1.1-1.5,2.4-3,4-4.2c1.5-1.3,3.3-2.3,5.3-3.1c1.9-0.8,3.8-1.2,5.8-1.2c1.5,0,2.6,0.1,3.2,0.1c0.5,0.1,1.2,0.2,1.8,0.2v12.6
	c-0.9-0.2-1.9-0.3-2.8-0.4c-1-0.1-1.9-0.2-2.8-0.2c-2.2,0-4.3,0.4-6.2,1.3c-2,0.9-3.6,2.2-5.1,3.8c-1.4,1.8-2.6,3.8-3.5,6.3
	c-0.9,2.5-1.3,5.5-1.3,8.8v28.2h-13.1L147.7,437.5L147.7,437.5z M242.6,496.9h-12.9v-8.3h-0.2c-1.6,3.1-4,5.4-7.2,7.2
	s-6.5,2.7-9.7,2.7c-7.8,0-13.5-1.9-17-5.8c-3.5-3.8-5.3-9.7-5.3-17.5v-37.7h13.1v36.4c0,5.3,1,9,3.1,11c2,2.2,4.8,3.3,8.4,3.3
	c2.7,0,5-0.4,6.9-1.3s3.4-2,4.5-3.4c1.2-1.4,2-3.2,2.5-5.1c0.5-2,0.8-4.2,0.8-6.5v-34.5h13.1v59.4H242.6z M265,477.9
	c0.4,3.8,1.9,6.5,4.4,8.1c2.5,1.5,5.6,2.3,9.1,2.3c1.2,0,2.6-0.1,4.2-0.3c1.5-0.2,3.1-0.5,4.4-1.1c1.4-0.5,2.5-1.3,3.4-2.4
	c0.9-1.1,1.3-2.4,1.2-4s-0.7-3.1-1.9-4.2c-1.2-1.1-2.6-1.9-4.4-2.6c-1.8-0.7-3.8-1.2-6.1-1.6c-2.3-0.4-4.6-1-7-1.5
	c-2.4-0.5-4.8-1.2-7.1-2c-2.3-0.8-4.3-1.8-6.1-3.2c-1.8-1.3-3.3-3-4.3-5c-1.1-2.1-1.6-4.5-1.6-7.5c0-3.3,0.8-5.9,2.4-8.1
	c1.5-2.2,3.6-3.9,6-5.3c2.4-1.3,5.1-2.3,8.1-2.8c3-0.5,5.8-0.8,8.4-0.8c3.1,0,6,0.3,8.8,1c2.7,0.7,5.4,1.6,7.5,3.2
	c2.3,1.4,4.2,3.4,5.6,5.7c1.5,2.3,2.4,5.1,2.8,8.4H289c-0.7-3.2-2.1-5.3-4.3-6.3c-2.3-1.1-4.8-1.6-7.8-1.6c-0.9,0-2.1,0.1-3.3,0.2
	c-1.3,0.2-2.4,0.4-3.6,0.9c-1.1,0.4-2.1,1.1-2.8,1.9s-1.2,1.9-1.2,3.2c0,1.6,0.5,2.8,1.6,3.8c1.1,1,2.5,1.8,4.4,2.5
	c1.8,0.7,3.8,1.2,6.1,1.6c2.3,0.4,4.7,1,7.1,1.5c2.4,0.5,4.7,1.2,7,2c2.3,0.8,4.4,1.8,6.1,3.2c1.8,1.3,3.3,3,4.4,4.9
	c1.1,2,1.6,4.5,1.6,7.3c0,3.5-0.8,6.5-2.4,9c-1.6,2.4-3.7,4.5-6.2,6c-2.5,1.5-5.5,2.6-8.5,3.4c-3.2,0.7-6.2,1.1-9.3,1.1
	c-3.7,0-7.2-0.4-10.4-1.3c-3.2-0.9-6-2.2-8.3-3.8c-2.3-1.8-4.2-3.8-5.5-6.5c-1.3-2.5-2.1-5.6-2.2-9.2h13.2v0.1H265z M308.2,437.5h10
	v-17.9h13.1v17.8h11.8v9.7h-11.8v31.7c0,1.4,0.1,2.5,0.2,3.6c0.1,1,0.4,1.9,0.8,2.5c0.4,0.7,1.1,1.2,1.9,1.5c0.9,0.3,2,0.5,3.5,0.5
	c0.9,0,1.9,0,2.7-0.1c0.9-0.1,1.9-0.2,2.7-0.4v10.2c-1.4,0.2-2.8,0.3-4.3,0.4c-1.4,0.2-2.7,0.2-4.3,0.2c-3.5,0-6.2-0.3-8.3-1
	c-2.1-0.7-3.7-1.6-4.9-2.8c-1.2-1.3-2-2.8-2.4-4.7c-0.4-1.9-0.7-4.2-0.8-6.6v-35h-10v-10h0V437.5z M352.3,437.5h12.4v8.1h0.2
	c1.9-3.5,4.4-5.9,7.7-7.4c3.3-1.5,6.8-2.3,10.7-2.3c4.7,0,8.8,0.8,12.3,2.5c3.5,1.6,6.3,3.8,8.6,6.8c2.3,2.8,4,6.2,5.1,10.1
	c1.1,3.8,1.8,8,1.8,12.3c0,4-0.5,7.9-1.5,11.6c-1.1,3.7-2.6,7.1-4.7,10c-2.1,2.8-4.7,5.1-8,6.9c-3.3,1.8-7,2.6-11.4,2.6
	c-1.9,0-3.8-0.2-5.7-0.5c-1.9-0.3-3.7-0.9-5.5-1.6c-1.8-0.8-3.4-1.8-4.8-3c-1.5-1.2-2.7-2.6-3.7-4.2h-0.2v29.6h-13.1v-81.4H352.3z
	 M398.1,467.2c0-2.6-0.3-5.3-1.1-7.8c-0.7-2.5-1.8-4.7-3.2-6.7c-1.4-2-3.2-3.5-5.1-4.7c-2.1-1.2-4.5-1.8-7.1-1.8
	c-5.5,0-9.6,1.9-12.5,5.7c-2.7,3.8-4.2,9-4.2,15.3c0,3.1,0.3,5.8,1.1,8.3c0.8,2.5,1.8,4.7,3.3,6.6c1.4,1.9,3.2,3.3,5.3,4.4
	c2.1,1.1,4.4,1.6,7.1,1.6c3.1,0,5.5-0.7,7.5-1.9c2.1-1.2,3.7-2.8,5.1-4.7c1.3-2,2.3-4.2,2.8-6.7
	C397.8,472.4,398.1,469.9,398.1,467.2L398.1,467.2z M421.2,414.8h13.1v12.4h-13.1V414.8z M421.2,437.5h13.1v59.4h-13.1V437.5
	L421.2,437.5z M446,414.8h13.1v82.1H446V414.8L446,414.8z M499.2,498.5c-4.7,0-9-0.8-12.7-2.4s-6.8-3.7-9.4-6.5
	c-2.5-2.7-4.5-6.1-5.8-10c-1.3-3.8-2.1-8.1-2.1-12.6s0.7-8.6,2.1-12.5c1.3-3.8,3.3-7.1,5.8-10c2.5-2.7,5.7-4.9,9.4-6.5
	c3.7-1.5,8-2.4,12.7-2.4c4.7,0,9,0.8,12.7,2.4c3.7,1.5,6.8,3.7,9.4,6.5c2.5,2.7,4.5,6.1,5.8,10c1.3,3.8,2.1,8,2.1,12.5
	c0,4.6-0.7,8.8-2.1,12.6c-1.4,3.8-3.3,7.1-5.8,10c-2.5,2.7-5.7,4.9-9.4,6.5C508.2,497.7,504,498.5,499.2,498.5L499.2,498.5z
	 M499.2,488.1c2.8,0,5.5-0.7,7.5-1.9c2.2-1.2,3.8-2.8,5.3-4.8c1.4-2,2.4-4.3,3.1-6.7c0.7-2.5,1-5,1-7.7c0-2.5-0.3-5-1-7.5
	s-1.6-4.7-3.1-6.7c-1.4-2-3.2-3.5-5.3-4.7c-2.2-1.2-4.7-1.9-7.5-1.9c-2.8,0-5.5,0.7-7.5,1.9c-2.2,1.2-3.8,2.8-5.3,4.7
	c-1.4,2-2.4,4.2-3.1,6.7c-0.7,2.5-1,5-1,7.5c0,2.6,0.3,5.1,1,7.7c0.7,2.5,1.6,4.7,3.1,6.7s3.2,3.6,5.3,4.8
	C493.8,487.6,496.3,488.1,499.2,488.1L499.2,488.1z M533.1,437.5h10v-17.9h13.1v17.8H568v9.7h-11.8v31.7c0,1.4,0.1,2.5,0.2,3.6
	c0.1,1,0.4,1.9,0.8,2.5c0.4,0.7,1.1,1.2,1.9,1.5c0.9,0.3,2,0.5,3.5,0.5c0.9,0,1.9,0,2.7-0.1c0.9-0.1,1.9-0.2,2.7-0.4v10.2
	c-1.4,0.2-2.8,0.3-4.3,0.4c-1.4,0.2-2.7,0.2-4.3,0.2c-3.5,0-6.2-0.3-8.3-1c-2.1-0.7-3.7-1.6-4.9-2.8c-1.2-1.3-2-2.8-2.4-4.7
	c-0.4-1.9-0.7-4.2-0.8-6.6v-35h-10v-10l0,0V437.5z"/>
<g>
	<path class="st0" d="M481.9,222.7H362.8l-36.7-113.2l-36.9,113.2l-119.1-0.2l96.3,70.1l-36.9,113.2l96.3-70.1l96.3,70.1
		l-36.7-113.2L481.9,222.7z"/>
	<path class="st1" d="M393.8,318.2l-8.2-25.6l-59.4,43.2L393.8,318.2z"/>
</g>
</svg>
