<?xml version="1.0" encoding="utf-8"?>
<!-- Generator: Adobe Illustrator 25.3.1, SVG Export Plug-In . SVG Version: 6.00 Build 0)  -->
<svg version="1.1" id="Layer_1" xmlns="http://www.w3.org/2000/svg" xmlns:xlink="http://www.w3.org/1999/xlink" x="0px" y="0px"
	 viewBox="0 0 284 93" style="enable-background:new 0 0 284 93;" xml:space="preserve">
<style type="text/css">
	.st0{fill:#D1D3D4;}
	.st1{fill:#FFFFFF;}
	.st2{fill:#231F20;}
	.st3{fill:#58595B;}
</style>
<polygon class="st0" points="284,0 0,0 0,93 284,93 284,0 "/>
<polyline class="st1" points="283,1 283,92 1,92 1,1 283,1 "/>
<g>
	<path class="st2" d="M54,14.8h1.1V20h3.2v1H54V14.8z"/>
	<path class="st2" d="M62,14.8h4.5v1h-3.4v1.6h3.1v1h-3.1V20h3.5v1H62V14.8z"/>
	<path class="st2" d="M72.6,14.8h1l2.7,6.1h-1.1l-0.6-1.5h-2.9l-0.6,1.5H70L72.6,14.8z M74.2,18.5l-1.1-2.4l-1,2.4H74.2z"/>
	<path class="st2" d="M78.6,14.8h1.2l1.8,4.7l1.8-4.7h1.2L82,21h-0.9L78.6,14.8z"/>
	<path class="st2" d="M88.2,14.8h4.5v1h-3.4v1.6h3.1v1h-3.1V20h3.5v1h-4.6V14.8z"/>
	<path class="st2" d="M103.7,18.5l-2.4-3.7h1.3l1.7,2.7l1.7-2.7h1.2l-2.4,3.7v2.4h-1.1V18.5z"/>
	<path class="st2" d="M109.9,17.9c0-1.7,1.3-3.1,3.2-3.1s3.2,1.4,3.2,3.1c0,1.7-1.3,3.1-3.2,3.1C111.2,21,109.9,19.6,109.9,17.9z
		 M115.2,17.9c0-1.2-0.9-2.2-2.1-2.2c-1.2,0-2.1,1-2.1,2.2c0,1.2,0.9,2.2,2.1,2.2S115.2,19.1,115.2,17.9z"/>
	<path class="st2" d="M120.1,18.4v-3.5h1.1v3.5c0,1.1,0.6,1.7,1.5,1.7c0.9,0,1.5-0.6,1.5-1.7v-3.5h1.1v3.5c0,1.8-1,2.7-2.6,2.7
		C121.1,21,120.1,20.1,120.1,18.4z"/>
	<path class="st2" d="M129.4,14.8h2.7c1.4,0,2.3,0.8,2.3,1.9c0,1-0.6,1.6-1.5,1.8l1.6,2.3h-1.3l-1.5-2.1h-1.3v2.1h-1.1V14.8z
		 M132,17.9c0.8,0,1.3-0.4,1.3-1c0-0.7-0.5-1-1.3-1h-1.6v2H132z"/>
	<path class="st2" d="M143.5,14.8h2.7c1.4,0,2.3,0.8,2.3,1.9c0,1-0.6,1.6-1.5,1.8l1.6,2.3h-1.3l-1.5-2.1h-1.3v2.1h-1.1V14.8z
		 M146.2,17.9c0.8,0,1.3-0.4,1.3-1c0-0.7-0.5-1-1.3-1h-1.6v2H146.2z"/>
	<path class="st2" d="M152.4,14.8h4.5v1h-3.4v1.6h3.1v1h-3.1V20h3.5v1h-4.6V14.8z"/>
	<path class="st2" d="M160.3,14.8h1.2l1.8,4.7l1.8-4.7h1.2l-2.5,6.1h-0.9L160.3,14.8z"/>
	<path class="st2" d="M170.1,14.8h1.1v6.1h-1.1V14.8z"/>
	<path class="st2" d="M175.4,14.8h4.5v1h-3.4v1.6h3.1v1h-3.1V20h3.5v1h-4.6V14.8z"/>
	<path class="st2" d="M183.3,14.8h1.2l1.5,4.5l1.5-4.5h0.9l1.5,4.5l1.5-4.5h1.1l-2.1,6.1h-0.9l-1.5-4.4l-1.5,4.4h-0.9L183.3,14.8z"
		/>
	<path class="st2" d="M203.5,14.8h1l2.7,6.1H206l-0.6-1.5h-2.9l-0.6,1.5h-1.1L203.5,14.8z M205,18.5l-1.1-2.4l-1,2.4H205z"/>
	<path class="st2" d="M210.3,20l0.6-0.8c0.6,0.5,1.2,0.8,1.9,0.8c0.7,0,1.1-0.3,1.1-0.8c0-0.4-0.2-0.7-1.4-0.9c-1.3-0.3-2-0.7-2-1.8
		c0-1,0.9-1.8,2.1-1.8c0.9,0,1.6,0.3,2.2,0.8l-0.6,0.8c-0.5-0.4-1.1-0.6-1.7-0.6c-0.6,0-1,0.3-1,0.7c0,0.5,0.3,0.7,1.4,1
		c1.3,0.3,2,0.8,2,1.8c0,1.1-0.9,1.8-2.2,1.8C211.9,21,211.1,20.7,210.3,20z"/>
	<path class="st2" d="M226.3,14.8h1l2.7,6.1h-1.1l-0.6-1.5h-2.9l-0.6,1.5h-1.1L226.3,14.8z M227.8,18.5l-1.1-2.4l-1,2.4H227.8z"/>
</g>
<g>
	<g>
		<path d="M64.9,76.1c-0.2-0.6-0.5-1.1-0.7-1.7c-0.6-1.3-1.2-2.6-1.7-3.9c-0.4-0.8-0.8-1.7-1.2-2.5c-0.5-1.1-1-2.2-1.5-3.3
			c-0.4-0.8-0.8-1.7-1.2-2.5c-0.6-1.3-1.2-2.5-1.7-3.8c-0.2-0.4-0.4-0.9-0.5-1.4c-0.4-1.3,0.4-2.5,1.9-2.9c1.2-0.3,2.6,0.4,3.1,1.5
			c0.7,1.5,1.4,3,2,4.5c0.6,1.3,1.1,2.5,1.7,3.8c0.3,0.7,0.7,1.5,1.1,2.3c0.5-1,1.2-1.6,2.3-1.7c1.1-0.1,1.9,0.4,2.6,1.3
			c0.2-1.1,0.8-1.8,1.9-2c1-0.2,1.9,0.1,2.6,0.7c0.4-0.4,0.7-0.8,1.1-1.1c1.4-0.9,3.1-0.3,3.8,1.1c0.7,1.4,1.4,2.7,2,4.1
			c0.6,1.3,1.2,2.6,1.6,3.9c0.6,1.8,0.8,3.7,0.6,5.5c-0.3,2.1-1.2,4-2.8,5.4c-1.2,1.1-2.6,1.9-4.2,2.5c-1.7,0.7-3.5,0.8-5.3,0.8
			c-1.5,0-2.9-0.3-4.3-0.8c-1-0.4-2-1-2.8-1.7c-2.2-2-4.5-4-6.7-6c-0.6-0.5-1.2-1.1-1.8-1.6c-0.7-0.5-0.5-1.2-0.1-1.7
			c0.5-0.5,1.1-0.8,1.8-0.9c1.2-0.2,2.3-0.1,3.5,0.3c0.9,0.3,1.8,0.8,2.5,1.4C64.6,76,64.7,76.1,64.9,76.1
			C64.9,76.1,64.9,76.1,64.9,76.1z"/>
		<path d="M59.6,70.7c-1.5,1.6-3.1,2.8-5,3.7c-0.9,0.5-1.9,0.9-2.9,1.2c-1.7,0.6-3.5,0.6-5.4,0.4c-1.4-0.2-2.8-0.6-4-1.4
			c-1.1-0.6-2.1-1.4-3-2.4c-1-1.1-1.6-2.4-2-3.8c-0.4-1.2-0.6-2.5-0.7-3.8c-0.1-1.2-0.1-2.5-0.1-3.7c0-0.6,0.1-1.1,0.3-1.7
			c0.3-1.2,0.7-2.3,1-3.5c0.3-1,0.5-2.1,0.9-3c0.4-1.1,0.9-2.2,1.5-3.2c0.6-1.1,1.3-2.1,1.8-3.2c0.3-0.6,0.5-1.3,0.7-2
			c0.2-0.8,0.8-1.2,1.7-1c0.9,0.2,1.4,0.8,1.8,1.6c0.6,1.4,0.4,2.9,0.1,4.4c-0.3,1.4-0.6,2.8-0.9,4.2c-0.1,0.6-0.3,1.3-0.4,1.9
			c-0.1,0.7-0.3,1.4-0.3,2.1c0,2.4,0,4.8,0,7.3c0,2.3,0.9,4,2.9,5.2c0.9,0.5,1.9,0.6,2.8,0.6c2.9,0,5.8,0,8.7,0
			C59.1,70.7,59.3,70.7,59.6,70.7z"/>
		<path d="M67.2,46.8c0-0.2,0-0.4,0-0.5c0-5.2,0-10.5,0-15.7c0-1,0-1.1-1-1.1c-6,0-11.9,0-17.9,0c-0.8,0-1,0.2-1,1
			c0,4.9,0,9.7,0,14.6c0,0.2,0,0.4,0,0.8c-0.2-0.5-0.3-1-0.5-1.4c-0.2-0.6-0.7-1.1-1.1-1.6c-0.1-0.1-0.2-0.3-0.2-0.4
			c0-4.2-0.1-8.5,0-12.7c0-1.2,0.8-2.2,1.8-3c0.9-0.7,1.9-0.8,3-0.8c4.7,0,9.4,0,14.1,0c1.6,0,3,0.6,4,1.9c0.6,0.8,0.8,1.6,0.9,2.6
			c0,4.9,0,9.7,0,14.6c0,0.4-0.1,0.6-0.4,0.8C68.3,46.1,67.8,46.4,67.2,46.8z M57.3,28.1c1.1,0,2.1,0,3.2,0c0.3,0,0.6-0.1,0.5-0.4
			c0-0.2-0.3-0.4-0.5-0.4c-2.1,0-4.3,0-6.4,0c-0.3,0-0.4,0.2-0.4,0.5c0,0.3,0.2,0.3,0.5,0.3C55.2,28.1,56.2,28.1,57.3,28.1z"/>
		<path d="M60.9,69.7c-1.3,0-2.5,0-3.7,0c-2.5,0-5,0-7.5,0c-1.4,0-2.5-0.7-3.3-1.8c-0.6-0.8-0.9-1.7-0.9-2.7c0-2.9,0-5.8,0-8.7
			c0-0.5,0.2-1,0.3-1.5c0.2-1,0.5-2.1,0.7-3.1c0.3-1.2,0.5-2.4,0.8-3.7c0,0.2,0,0.3,0,0.5c0,5.4,0,10.8,0,16.2
			c0,0.6,0.2,0.8,0.9,0.8c3.4,0,6.8,0,10.1,0c0.6,0,0.9,0.2,1.1,0.7c0.4,1,0.9,1.9,1.3,2.8C60.8,69.3,60.8,69.5,60.9,69.7z
			 M58.7,67.6c0.1-0.7-0.8-1.5-1.4-1.4c-0.7,0-1.4,0.7-1.4,1.4c0,0.9,0.7,1.4,1.3,1.4C58,69,58.8,68.3,58.7,67.6z"/>
		<path d="M66.5,61.2c-1.7,0.1-2.9-1.7-2.1-3.3c0.2-0.5,0.7-0.8,1.1-1.2c0.9-0.8,1.9-1.5,2.9-2.3c0.8-0.6,1.9-0.8,2.7-0.3
			c0.9,0.5,1.3,1.5,1.2,2.4c-0.1,0.7-0.6,1.3-1.1,1.7c-1,0.8-2,1.6-3,2.4C67.5,61,67.2,61.2,66.5,61.2z"/>
		<path d="M67.5,53c-1.4,0.1-2.3-0.9-2.4-2.1C65,50,65.4,49.3,66,48.8c1-0.8,1.9-1.5,2.9-2.3c0.8-0.6,2.1-0.6,2.8,0
			c0.9,0.7,1.3,1.9,0.7,2.9c-0.3,0.6-0.9,1-1.4,1.4c-0.7,0.6-1.4,1.1-2.1,1.7C68.5,52.8,68,53,67.5,53z"/>
		<path d="M70,43.7c0-0.3,0-0.6,0-0.9c0-1.4,0-2.9,0-4.3c0-0.3,0.1-0.5,0.5-0.6c1.1-0.2,2.1,0.4,2.5,1.1c0.6,1.2,0.2,2.3-0.6,3
			c-0.7,0.6-1.5,1.2-2.2,1.7C70.2,43.7,70.1,43.7,70,43.7z"/>
		<path d="M69.2,60.7c0,0.5,0,1,0,1.5c0,0.4,0,0.9,0,1.3c0,0.1-0.2,0.3-0.3,0.3c-0.5,0-0.9,0-1.4,0c-0.1,0-0.3-0.2-0.3-0.3
			c0-0.5,0-1,0-1.5c0-0.1,0.1-0.3,0.2-0.4C68,61.4,68.6,61.1,69.2,60.7z"/>
	</g>
	<g>
		<g>
			<path class="st3" d="M125.8,34.3h4l6.3,16l6.3-16h4l-8.7,21h-3.2L125.8,34.3z"/>
			<path class="st3" d="M148.4,33.6h3.9V37h-3.9V33.6z M148.5,39.4h3.6v15.7h-3.6V39.4z"/>
			<path class="st3" d="M155.4,47.3c0-5.2,3.5-8.2,7.3-8.2c2.6,0,4.2,1.3,5.4,2.8v-8.5h3.6v21.7h-3.6v-2.6c-1.2,1.6-2.8,2.9-5.4,2.9
				C159,55.5,155.4,52.5,155.4,47.3z M168.1,47.3c0-3-2.1-5-4.6-5c-2.5,0-4.5,1.9-4.5,5.1c0,3,2.1,5,4.5,5
				C166,52.4,168.1,50.3,168.1,47.3z"/>
			<path class="st3" d="M174.7,47.3c0-4.5,3.2-8.2,7.7-8.2c5,0,7.5,3.9,7.5,8.5c0,0.2,0,0.8-0.1,1h-11.5c0.4,2.6,2.2,4,4.5,4
				c1.8,0,3-0.7,4.3-1.9l2.1,1.9c-1.5,1.8-3.5,2.9-6.4,2.9C178.2,55.5,174.7,52.2,174.7,47.3z M186.3,46.2c-0.2-2.3-1.6-4.1-4-4.1
				c-2.2,0-3.8,1.7-4.1,4.1H186.3z"/>
			<path class="st3" d="M192.1,47.3c0-4.5,3.6-8.2,8.4-8.2s8.4,3.7,8.4,8.2c0,4.5-3.6,8.2-8.4,8.2C195.6,55.5,192.1,51.8,192.1,47.3
				z M205.2,47.3c0-2.8-2-5.1-4.8-5.1c-2.9,0-4.7,2.3-4.7,5.1c0,2.7,2,5.1,4.8,5.1C203.4,52.4,205.2,50.1,205.2,47.3z"/>
		</g>
		<g>
			<path class="st3" d="M93.7,60.7h-6.6v-3.4H104v3.4h-6.6v17.4h-3.7V60.7z"/>
			<path class="st3" d="M102.6,70.3c0-4.5,3.2-8.2,7.7-8.2c5,0,7.5,3.9,7.5,8.5c0,0.2,0,0.8-0.1,1h-11.5c0.4,2.6,2.2,4,4.5,4
				c1.8,0,3-0.7,4.3-1.9l2.1,1.9c-1.5,1.8-3.5,2.9-6.4,2.9C106.1,78.5,102.6,75.2,102.6,70.3z M114.3,69.2c-0.2-2.3-1.6-4.1-4-4.1
				c-2.2,0-3.8,1.7-4.1,4.1H114.3z"/>
			<path class="st3" d="M119.6,76.1l1.6-2.4c1.7,1.3,3.5,1.9,5.1,1.9c1.5,0,2.4-0.7,2.4-1.8c0-1.2-1.5-1.6-3.2-2.1
				c-0.1,0-0.2-0.1-0.3-0.1c-2.3-0.7-4.9-1.6-4.9-4.7c0-3,2.5-4.8,5.6-4.8c2,0,4.1,0.7,5.8,1.8l-1.4,2.6c-1.5-0.9-3.1-1.5-4.4-1.5
				c-1.4,0-2.2,0.7-2.2,1.6c0,1.1,1.5,1.5,3.2,2.1c0.1,0,0.2,0.1,0.3,0.1c2.3,0.7,4.9,1.8,4.9,4.6c0,3.3-2.6,4.9-5.8,4.9
				C124,78.4,121.6,77.6,119.6,76.1z"/>
			<path class="st3" d="M135.6,73.8v-8.3h-2v-3.1h2v-4.3h3.6v4.3h4.2v3.1h-4.2v7.7c0,1.4,0.7,2,1.9,2c0.8,0,1.5-0.2,2.2-0.5v2.9
				c-0.9,0.5-1.9,0.8-3.2,0.8C137.5,78.4,135.6,77.3,135.6,73.8z"/>
			<path class="st3" d="M146.5,56.6h3.9V60h-3.9V56.6z M146.7,62.4h3.6v15.7h-3.6V62.4z"/>
			<path class="st3" d="M154.4,62.4h3.6v2.4c1-1.4,2.4-2.7,4.8-2.7c2.3,0,3.8,1.1,4.7,2.8c1.3-1.7,2.9-2.8,5.3-2.8
				c3.4,0,5.5,2.2,5.5,6v10h-3.6v-8.9c0-2.5-1.2-3.8-3.2-3.8c-2,0-3.4,1.4-3.4,3.9v8.9h-3.6v-9c0-2.4-1.2-3.8-3.2-3.8
				c-2,0-3.4,1.5-3.4,3.9v8.8h-3.6V62.4z"/>
			<path class="st3" d="M181.2,70.3c0-4.5,3.6-8.2,8.4-8.2s8.4,3.7,8.4,8.2c0,4.5-3.6,8.2-8.4,8.2C184.8,78.5,181.2,74.8,181.2,70.3
				z M194.4,70.3c0-2.8-2-5.1-4.8-5.1c-2.9,0-4.7,2.3-4.7,5.1c0,2.7,2,5.1,4.8,5.1C192.5,75.4,194.4,73.1,194.4,70.3z"/>
			<path class="st3" d="M201,62.4h3.6v2.4c1-1.5,2.5-2.8,4.9-2.8c3.5,0,5.6,2.4,5.6,6v10h-3.6v-8.9c0-2.4-1.2-3.8-3.4-3.8
				c-2.1,0-3.5,1.5-3.5,3.9v8.9H201V62.4z"/>
			<path class="st3" d="M219,56.6h3.9V60H219V56.6z M219.1,62.4h3.6v15.7h-3.6V62.4z"/>
			<path class="st3" d="M236.4,78.1v-1.9c-1.1,1.3-2.7,2.3-5.1,2.3c-3,0-5.6-1.7-5.6-4.9c0-3.5,2.7-5.1,6.4-5.1
				c1.9,0,3.1,0.3,4.3,0.7v-0.3c0-2.2-1.4-3.4-3.9-3.4c-1.8,0-3.1,0.4-4.5,1l-1-2.9c1.7-0.8,3.4-1.3,6-1.3c4.6,0,6.9,2.4,6.9,6.6
				v9.3H236.4z M236.5,71.6c-0.9-0.4-2.2-0.6-3.6-0.6c-2.3,0-3.6,0.9-3.6,2.5c0,1.5,1.3,2.3,3,2.3c2.4,0,4.2-1.3,4.2-3.3V71.6z"/>
			<path class="st3" d="M243.9,56.4h3.6v21.7h-3.6V56.4z"/>
		</g>
	</g>
</g>
</svg>
