<?xml version="1.0" encoding="utf-8"?>
<!-- Generator: Adobe Illustrator 25.3.1, SVG Export Plug-In . SVG Version: 6.00 Build 0)  -->
<svg version="1.1" id="Layer_1" xmlns="http://www.w3.org/2000/svg" xmlns:xlink="http://www.w3.org/1999/xlink" x="0px" y="0px"
	 viewBox="0 0 300 300" style="enable-background:new 0 0 300 300;" xml:space="preserve">
<g>
	<path d="M169.8,240.5c-1.1-2.6-2.3-5.1-3.4-7.7c-2.7-5.9-5.3-11.8-8-17.8c-1.8-3.9-3.6-7.7-5.3-11.5c-2.3-5.1-4.5-10.2-6.8-15.2
		c-1.7-3.9-3.6-7.7-5.3-11.5c-2.7-5.8-5.4-11.7-8-17.5c-0.9-2-1.8-4.1-2.4-6.3c-1.8-6.1,1.9-11.7,8.7-13.4c5.7-1.4,12,1.6,14.4,7
		c3.1,7,6.3,13.9,9.4,20.9c2.6,5.8,5,11.7,7.6,17.5c1.5,3.4,3.2,6.8,4.9,10.6c2.1-4.8,5.4-7.4,10.4-7.7c4.8-0.3,8.7,1.7,12,5.8
		c1-5,3.8-8.1,8.6-9.2c4.8-1.1,8.7,0.6,12.1,3.3c1.7-1.8,3-3.8,4.9-5c6.2-3.9,14.1-1.4,17.4,4.9c3.2,6.2,6.4,12.5,9.3,18.9
		c2.7,5.9,5.4,11.8,7.5,17.9c2.8,8.2,3.6,16.9,2.6,25.4c-1.2,9.7-5.5,18.1-12.9,24.8c-5.7,5.1-12.1,8.8-19.2,11.6
		c-7.9,3-15.9,3.8-24.2,3.6c-6.8-0.2-13.3-1.5-19.6-3.9c-4.7-1.8-9-4.4-12.8-7.8c-10.3-9.2-20.6-18.3-30.8-27.5
		c-2.7-2.5-5.3-5.1-8.2-7.4c-3.1-2.4-2.4-5.7-0.4-7.8c2.2-2.4,5.1-3.6,8.3-4.1c5.4-0.8,10.7-0.4,15.9,1.3c4.3,1.4,8,3.8,11.5,6.6
		c0.6,0.5,1.2,0.9,1.8,1.4C169.6,240.7,169.7,240.6,169.8,240.5z"/>
	<path d="M145.4,215.6c-6.9,7.4-14.3,13-22.8,17.2c-4.4,2.1-8.7,4.3-13.3,5.7c-8,2.5-16.3,2.9-24.7,1.6c-6.6-1-12.7-3-18.4-6.2
		c-5.2-2.9-9.7-6.6-13.6-11.1c-4.4-5.1-7.5-11-9.3-17.3c-1.7-5.7-2.7-11.6-3.4-17.5c-0.6-5.6-0.5-11.3-0.4-16.9
		c0-2.6,0.6-5.2,1.3-7.7c1.4-5.3,3-10.6,4.5-16c1.3-4.7,2.3-9.5,3.9-14c1.9-5,4.2-9.9,6.7-14.7c2.6-5,5.8-9.8,8.3-14.9
		c1.4-2.9,2.3-6.1,3.1-9.2c1-3.6,3.6-5.3,7.6-4.6c4.3,0.8,6.6,3.9,8.1,7.4c2.8,6.6,2,13.4,0.5,20.1c-1.5,6.4-2.7,12.9-4.1,19.4
		c-0.6,2.9-1.5,5.8-2,8.8c-0.6,3.2-1.3,6.5-1.3,9.7c-0.2,11.1,0,22.3-0.1,33.4c0,10.5,4.2,18.6,13.5,23.6c4,2.2,8.5,2.9,13,2.9
		c13.4,0.1,26.7,0.1,40.1,0.1C143.3,215.6,144.1,215.6,145.4,215.6z"/>
	<path d="M180.5,106.2c0-1,0-1.7,0-2.3c0-24,0-48,0-72c0-4.7-0.2-4.9-4.8-4.9c-27.3,0-54.6,0-82,0c-3.7,0-4.5,0.8-4.5,4.5
		c0,22.3,0,44.7-0.1,67c0,1,0,2,0,3.5c-0.8-2.4-1.5-4.5-2.2-6.5c-1-2.9-3.1-5.1-5.2-7.2c-0.5-0.5-1.1-1.3-1.1-2
		c0-19.5-0.2-39,0.1-58.5c0.1-5.7,3.7-10.2,8.3-13.7c4-3,8.6-3.9,13.6-3.9c21.5,0,43-0.1,64.5-0.1c7.6,0,13.8,2.7,18.4,8.8
		c2.6,3.5,3.9,7.5,3.9,11.8c0.1,22.3,0,44.7,0.1,67c0,1.7-0.6,2.7-2,3.6C185.3,102.7,183.2,104.3,180.5,106.2z M134.8,20.1
		c4.9,0,9.7,0,14.6,0c1.3,0,2.6-0.3,2.4-1.6c-0.1-0.8-1.4-1.9-2.2-1.9c-9.8-0.1-19.5-0.1-29.3-0.1c-1.5,0-2,0.8-2,2.2
		c0,1.4,0.9,1.5,2.1,1.5C125.1,20.1,129.9,20.1,134.8,20.1z"/>
	<path d="M151.3,210.9c-5.9,0-11.5,0-17.2,0c-11.5,0-23.1,0.1-34.6-0.1c-6.4-0.1-11.3-3.3-15-8.4c-2.6-3.6-4-7.7-3.9-12.3
		c0.2-13.3,0-26.6,0.1-39.9c0-2.4,0.9-4.7,1.5-7c1.1-4.7,2.3-9.5,3.3-14.2c1.2-5.6,2.3-11.2,3.7-16.8c0,0.8,0,1.6,0,2.4
		c0,24.8,0,49.5,0,74.3c0,2.9,1,3.9,3.9,3.9c15.5,0,31,0.1,46.5-0.1c2.9,0,4.2,1,5.2,3.4c1.8,4.4,3.9,8.7,5.9,13
		C150.9,209.5,151,210.1,151.3,210.9z M141.4,201.6c0.3-3.2-3.5-6.7-6.3-6.6c-3.3,0-6.5,3.2-6.4,6.4c0.1,3.9,3.2,6.4,6.1,6.5
		C138.2,208,141.7,204.7,141.4,201.6z"/>
	<path d="M176.9,172c-7.6,0.5-13.3-7.7-9.8-15.1c1-2.2,3.2-3.9,5.1-5.5c4.3-3.6,8.8-7.1,13.1-10.6c3.5-2.8,8.7-3.5,12.3-1.3
		c4,2.4,6.2,6.8,5.5,11c-0.5,3.3-2.6,5.8-5.2,7.9c-4.6,3.7-9.2,7.3-13.8,11C181.8,171.4,180.1,172,176.9,172z"/>
	<path d="M181.8,134.4c-6.3,0.3-10.6-4.3-11.2-9.7c-0.4-3.8,1.3-7.1,4.3-9.5c4.4-3.6,8.9-7.1,13.4-10.6c3.8-2.9,9.5-2.7,12.8-0.1
		c4.4,3.4,5.8,8.7,3.3,13.4c-1.4,2.6-4,4.6-6.3,6.5c-3.2,2.7-6.6,5.1-9.9,7.8C186.1,133.7,184,134.6,181.8,134.4z"/>
	<path d="M193.2,91.8c0-1.5,0-2.9,0-4.3c0-6.6,0-13.2,0-19.8c0-1.6,0.3-2.4,2.2-2.8c4.8-1,9.7,1.6,11.5,5.2c2.9,5.7,1,10.4-2.6,13.6
		c-3.2,2.8-6.7,5.3-10.1,8C194,91.7,193.7,91.7,193.2,91.8z"/>
	<path d="M189.5,169.9c0,2.3,0,4.7,0,7.1c0,2,0.1,4-0.1,6c0,0.5-0.8,1.3-1.4,1.4c-2.1,0.2-4.2,0.2-6.2,0c-0.5,0-1.3-0.8-1.3-1.3
		c-0.1-2.3-0.1-4.6,0.1-6.8c0-0.6,0.5-1.4,1.1-1.7C184.2,172.9,186.7,171.5,189.5,169.9z"/>
</g>
</svg>
