<?xml version="1.0" ?><!DOCTYPE svg  PUBLIC '-//W3C//DTD SVG 1.1//EN'  'http://www.w3.org/Graphics/SVG/1.1/DTD/svg11.dtd'><svg height="512px" id="形状_1_1_" style="enable-background:new 0 0 512 512;" version="1.1" viewBox="0 0 512 512" width="512px" xml:space="preserve" xmlns="http://www.w3.org/2000/svg" xmlns:xlink="http://www.w3.org/1999/xlink"><g id="形状_1"><g><path d="M136.375,213.826l-0.01,0.004l0.012-0.007    c-3.497,1.222-6.347,1.152-9.78,0.003l-0.011-0.007c-11.307,28.373-24.333,60.396-36.05,84.277l0.105-0.035l-0.058,0.024    c5.357-1.33,10.471-0.92,13.851-0.005c-0.006-0.004-0.013-0.008-0.02-0.011l0.016,0.005c2.986-7.547,6.388-16.099,9.79-24.699    l0.018,0.012c11.513-0.329,23.024-0.373,34.537,0l0.004-0.003c3.271,8.232,6.553,16.473,9.754,24.718l0,0.001c0,0,0,0,0.001,0    s0,0,0.001,0c5.123-1.337,10.223-0.974,13.992-0.025h0.001l0.012,0.003l-0.013-0.006    C164.083,282.31,147.142,241.071,136.375,213.826z M146.416,267.503c-9.957,0.347-19.914,0.353-29.87,0l-0.008,0.003    c6.094-15.457,11.882-30.371,14.936-39.159c4.656,12.979,9.78,26.058,14.98,39.173L146.416,267.503z M90.536,298.106l0.047-0.021    c-0.016,0.004-0.031,0.007-0.047,0.011V298.106z M110.866,202.624c-0.003,0.002-0.006,0.004-0.009,0.005l0.005-0.005    c-5.058,1.147-9.619,1.186-14.148,0c-3.991,7.434-18.712,31.49-28.08,46.894c-9.503-15.738-20.752-33.905-28.08-46.894    c-5.811,1.239-8.242,1.318-14.041,0c11.509,17.341,29.95,50.371,36.223,61.214l-0.842,45.209c0,0,4.047-0.679,6.751-0.679    c2.998,0,6.728,0.679,6.728,0.679l-0.843-45.209C86.236,243.3,105.561,209.792,110.866,202.624z M300.031,212.719    c-29.785,0-45.411,18.886-45.411,43.366c0,26.795,17.059,43.138,45.367,43.138c30.604,0,45.552-18.418,45.552-42.856    C345.539,229.116,327.688,212.719,300.031,212.719z M300.117,294.449c-19.853,0-31.518-14.227-31.518-38.225    c0-27.14,14.374-38.064,30.702-38.398c0.259-0.006,0.521,0,0.781,0c18.214,0,31.591,12.405,31.591,38.329    C331.674,282.046,318.314,294.449,300.117,294.449z M464.486,295.923c-4.416,0-6.62,3.37-6.62,6.991    c0,4.273,3.411,6.462,7.63,6.462c3.052,0,6.38-1.854,6.38-6.887C471.876,298.451,468.713,295.923,464.486,295.923z     M480.602,203.852l-0.003,0.005v-0.003c0,0-0.873-0.123-1.463-0.123c-3.37,0-6.711,1.976-6.711,7.03    c-1.999,25.354-4.081,50.78-7.504,74.976l-0.015,0.014c0.004-0.001,0.008-0.001,0.013-0.002c0,0,0,0.001,0,0.002l0.014-0.004    c2.071-0.355,3.676,0.185,5.236,0.814l-0.009-0.016c3.889-24.574,13.117-61.38,15.481-71.798c0.339-1.465,0.845-3.197,0.845-4.428    C486.486,206.602,484.129,204.442,480.602,203.852z M402.856,207.646c-29.661,0-52.335,16.843-52.335,48.158    c0,25.798,15.082,48.508,52.581,48.508c31.746,0,52.474-17.454,52.474-48.053C455.576,227.405,436.239,207.646,402.856,207.646z     M402.926,299.223c-20.085,0-38.382-11.787-38.382-43.603c0-32.978,20.28-42.734,38.346-42.734    c22.274,0,38.683,13.53,38.683,43.374C441.572,288.702,421.725,299.223,402.926,299.223z M236.528,213.855    c0.681,13.095,1.019,26.2,1.067,39.315c-15.696,0.365-31.378,0.396-47.04,0c0.049-13.115,0.387-26.221,1.067-39.315    c-4.599,1.11-9.276,1.142-14.039,0c1.222,28.13,1.116,56.206,0,84.241c4.56-1.099,9.228-1.147,14.022,0l-0.026-0.016l0.043,0.016    c-0.691-13.071-1.021-26.131-1.064-39.181c15.678-0.219,31.355-0.229,47.034-0.018c-0.043,13.056-0.373,26.12-1.065,39.198    l0.046-0.017l-0.028,0.017c4.793-1.147,9.463-1.099,14.021,0c-1.116-28.035-1.223-56.111,0-84.241    C245.805,214.997,241.127,214.966,236.528,213.855z" style="fill-rule:evenodd;clip-rule:evenodd;fill:#430295;"/></g></g></svg>