<?xml version="1.0" encoding="utf-8"?>
<!-- Generator: Adobe Illustrator 23.1.0, SVG Export Plug-In . SVG Version: 6.00 Build 0)  -->
<svg version="1.1" id="Layer_1" xmlns="http://www.w3.org/2000/svg" xmlns:xlink="http://www.w3.org/1999/xlink" x="0px" y="0px"
	 viewBox="0 0 512 512" style="enable-background:new 0 0 512 512;" xml:space="preserve">
<style type="text/css">
	.st0{fill:#F9E500;}
	.st1{fill:#231F20;}
</style>
<g id="Edges">
</g>
<path id="logo-bar" class="st0" d="M445.9,408.9H64.7v-40.1h381.2V408.9z"/>
<path id="logo-yp" class="st1" d="M189.1,304.2c-11.7,33-27.2,43.7-58.5,43.7c-10.6,0-21-2-30.9-5.9v-38.7
	c8.7,3.6,17.9,5.4,27.4,5.5c13.9,0,19.7-7,19.7-16c-0.5-5-1.8-9.9-4.1-14.4c-2.8-7.3-66.5-169.7-66.5-169.7h47.2l46.1,136.5h0.5
	l40.8-136.5h45.3L189.1,304.2z M270.2,108.7h43.3v15.2h0.7c14.8-12.9,33.8-19.9,53.3-19.5c45.4,0,79.6,42.2,79.6,94.1
	c0,47.6-28.1,94.1-84.6,94.1c-18.1,1.2-35.9-5.3-49.1-17.8v71H270v-237H270.2z M401.7,198.4c-0.4-25.9-12.3-54.4-44.9-54.4
	s-44.5,28.4-44.9,54.4c0.4,25.9,12.3,54.2,44.9,54.2S401.3,224.3,401.7,198.4z"/>
</svg>
