<?xml version="1.0" encoding="utf-8"?>
<!-- Generator: Adobe Illustrator 23.1.0, SVG Export Plug-In . SVG Version: 6.00 Build 0)  -->
<svg version="1.1" id="Layer_1" xmlns="http://www.w3.org/2000/svg" xmlns:xlink="http://www.w3.org/1999/xlink" x="0px" y="0px"
	 viewBox="0 0 512 512" style="enable-background:new 0 0 512 512;" xml:space="preserve">
<style type="text/css">
	.st0{fill-rule:evenodd;clip-rule:evenodd;}
</style>
<g>
	<path class="st0" d="M106.8,100.2c5.2-1.2,10.5,0.5,15.8,1.2c35.5,5,73.1,10.3,107.2,17.1c14.9,2.9,29.5,6.1,42,11.6
		c4.2,1.9,8.6,3.4,12.2,5.5c0.9,0.5,1.6,1.9,2.4,2.4c1.1,0.7,2.2,0.6,3,1.2c1.7,1.2,3.2,3,4.9,4.3c0.5,0.4,1.3,0.2,1.8,0.6
		c0.8,0.6,1.1,1.6,2.4,2.4c1.4,0.9,3.9,3.2,5.5,4.9c5.7,6,10.9,12.9,14.6,20.7c-1.7,0.5-1.7-1.7-2.4-2.4c-1.8-2-4.9-3.9-6.7-6.7
		c-1.8-0.2-2.7-2-4.3-3c-1.4-0.9-3.9-3.1-5.5-4.9c-3.5-1.7-6.4-4-9.7-6.1c-9.3-5.7-20-10.7-31.7-14.6c-5.9-2-11.8-3.7-18.3-5.5
		c-7.3-2-16.4-4.1-25-6.1C181.4,114.9,143.3,106.3,106.8,100.2z"/>
	<path class="st0" d="M126.3,109.3c-0.1-0.5,0.2-0.6,0.6-0.6c33.8,5,66.8,11.3,96.9,19.5c15.3,4.2,29.8,8.9,43.3,14.6
		c13.4,5.7,25,12.8,35.9,21.9c19.7,16.5,35.5,37.5,50.6,59.1c16.2,23.1,33.2,48.1,50.6,71.9c2,3.1,4.6,5.5,6.1,9.1
		c2.4,2.6,5,5.1,6.1,9.1c-10.3-0.3-17.8-3.3-25-6.7c-1.7-1.7-3.7-3.2-6.1-4.3c-9.5-9.4-16.4-21.3-25.6-31.1
		c-1.5-3.2-3.7-5.6-6.1-7.9c-5.8-8.2-12.3-15.7-18.9-23.2c-25.5-30.8-55.9-56.5-92-76.8C206.3,143.8,166.8,126.1,126.3,109.3z"/>
	<path class="st0" d="M178.7,137.3c2.3-0.9,6,2.1,8.5,3c3.6,0.7,5.2,3.3,9.1,3.7c27.6,14,55.1,28.2,78,46.9c4.6,3.7,9.7,7,13.4,11.6
		c3,1.1,4.6,4,6.7,6.1c2,2,5,3.4,5.5,6.7c-12.4,21.4-25,42.4-53.6,47.5c-25.5,0.7-43.8-5.8-63.4-11c0.8-2.8,4.5-4.1,7.3-4.9
		c10.1-3,24.4-0.3,37.8-1.2c7.8-0.5,14.3-2.6,19.5-5.5c1.6-0.9,2.8-2.2,4.3-3.7c2.3-2.3,3.9-4.1,5.5-7.9c1.6-3.7,2.9-9.3,1.8-15.2
		c-3.4-19.1-21.6-35.2-33.5-45.1C211,157.1,195.2,146.9,178.7,137.3z"/>
</g>
<g>
	<path class="st0" d="M154.1,315.2c-4.1,19.6-8.2,39.1-12.4,58.5c-3.3,0-6.6,0-9.9,0c3.8-19.5,8-38.5,12.2-57.7c0-0.4,0-0.8,0.3-0.8
		C147.5,315.2,150.8,315.2,154.1,315.2z"/>
	<path class="st0" d="M173.6,315.2c-3.8,19.8-8.4,38.7-12.2,58.5c-3.4,0-6.8,0-10.2,0c3.9-19.4,8.1-38.4,12.2-57.7
		c0-0.5,0.2-0.7,0.6-0.8C167.2,315.2,170.4,315.2,173.6,315.2z"/>
	<path class="st0" d="M300,315.2c-1.6,7.4-3.1,15-4.8,22.3c0.5,0.6,0.9-1.4,1.7-1.4c3.9-4.9,18.9-5.7,23.2-0.3
		c0.2,0.3,0,0.9,0.6,0.8c2.4,5.7,0.3,13.8-1.4,20.4c-0.7,2.6-1.3,4.9-2.3,7.1c-1,2.2-2.1,4.1-3.4,5.7c-1.1,0.6-1.7,1.4-3.1,2.3
		c-3.5,2.2-12,3-17.3,1.4c-2.1-1.3-4.2-2.6-4.5-5.7c-0.8,1.6-0.7,4-1.1,5.9c-3.4,0-6.8,0-10.2,0c4.2-19.5,8.3-39,12.4-58.5
		C293.2,315.2,296.6,315.2,300,315.2z M304.3,365.5c1.3-1.2,2.8-2.3,3.7-4.2c0.8-1.7,1.2-4.1,1.7-6.2c1-4.1,2.6-9.2,0.8-13.3
		c-2.1-2.3-8-2.1-11-1.1c-1.3,0.4-2.2,1.1-3.1,1.4c-2.4,2.6-3.4,6.4-4.2,10.2c-0.9,3.8-2.2,8.4-0.6,12.2
		C293.7,366.9,300.7,366.9,304.3,365.5z"/>
	<path class="st0" d="M436.9,315.2c-2.4,11.1-4.8,22.2-7.1,33.4c1.4,0.4,2.1-0.4,3.1-1.1c0.6-0.5,1.5-1.5,2-2
		c0.2-0.2,0.4-0.4,0.6-0.6c0.2-0.2,0.1-0.6,0.3-0.8c0.9-1,2.7-2.1,3.7-3.4c0.2-0.2,0.1-0.6,0.3-0.8c0.8-0.9,2.1-1.8,3.1-2.8
		c1.3-1.4,2.3-3.2,4-4.2c3.7,0,7.4,0,11,0c-0.3,1.2-1.5,1.8-2.3,2.5c-2.2,2.2-4.4,5-6.8,7.4c-3.1,3.1-6.1,6.3-9.3,9.3
		c0.9,1.4,1.6,2.7,2.5,4.2c0.1,0.2,0.1,0.6,0.3,0.8c0.1,0.1,0.5,0.2,0.6,0.3c0.5,0.9,0.9,1.9,1.4,2.8c1,1.7,2.3,3.5,3.4,5.4
		c0.6,0.9,0.9,1.9,1.4,2.8c1.1,1.8,2.4,3.4,3.1,5.4c-4.1,0-8.1,0-12.2,0c-2.5-4.9-5-9.7-7.6-14.4c-0.6-0.5-0.6-1.9-1.1-2.5
		c-0.6-0.8-0.8-1.5-2.5-1.1c-0.9,0-0.6,1.3-0.8,2c-1.1,5.4-2.4,10.6-3.4,16.1c-3.4,0-6.8,0-10.2,0c4.1-19.5,8.3-39,12.4-58.5
		C430.1,315.2,433.5,315.2,436.9,315.2z"/>
	<path class="st0" d="M466,325.4c0.1,1.1-1.8,0.3-2.5,0.6c-0.2,2.5,0.4,5.7-0.3,7.6c-1.7,0.2-0.5-2.3-0.8-3.4c0-1.3,0-2.6,0-4
		c-0.2-0.8-2.3,0.3-2.5-0.6c0-0.3,0.1-0.5,0.3-0.6C462,325.3,464.6,324.7,466,325.4z"/>
	<path class="st0" d="M466.6,325.1c0.6,0,1.1,0,1.7,0c0.5,2.5,1.7,4.3,2.3,6.8c0.7-1.7,1.4-3.6,2.3-5.4c0.3-0.5,0-1.9,1.1-1.4
		c1.1-0.2,0.4,1.3,0.6,2c-0.2,2.1,0.4,4.9-0.3,6.5c-1,0-0.5-2-0.6-3.1c0-1.2,0-2.4,0-3.4c-1.3,1.8-1.5,4.8-2.8,6.5
		c-1.4-0.1-1-2-1.7-2.8c-0.4-1.1-0.8-2.2-1.1-3.4c-0.6,0.6-0.2,2.1-0.3,3.4c0,1,0.5,2.7-0.6,2.8c-1,0.3-0.4-1.1-0.6-1.7
		c0-0.7,0-1.3,0-2c0-1.3,0-2.6,0-4C466.6,325.6,466.6,325.4,466.6,325.1z"/>
	<path class="st0" d="M127.8,355.1c-9.2,0-18.5,0-27.7,0c-0.8,1-0.9,2.8-1.1,4.5c-0.2,1.7-0.6,3.5,0.3,4.8c0.8,1.8,3.7,1.9,6.2,2
		c2.5,0.1,5.5,0.2,7.4-0.6c2.6-1.1,2.9-3.4,4-5.4c3.3,0,6.6,0,9.9,0c-0.8,4.2-2.4,7.6-4.8,10.2c-0.7,0.4-1.6,0.7-2,1.4
		c-7.3,3-22.7,3.6-28.8-0.8c-0.9-1.3-1.7-2.8-2.3-4.5c-0.3-6.9,0.9-12.3,2.3-17.8c1.1-4.2,2.9-8.9,5.7-11.9c0.4-0.4,1-0.5,1.4-0.8
		c0.3-0.2,0.7-0.9,1.1-1.1c2.7-1.6,6.4-2.2,10.5-2.5c7-0.6,14.9-0.3,18.4,3.7C130.8,341.1,128.9,349.7,127.8,355.1z M104.3,341.2
		c-1.8,1.7-2.7,4.3-3.1,7.4c5.9,0,11.9,0,17.8,0c0.5-2.2,1.2-5,0.3-7.1C116.5,339.1,107.1,339.8,104.3,341.2z"/>
	<path class="st0" d="M204.1,371.2c-3.4,1.7-7.1,2.8-12.4,3.1c-2.6,0.2-5.2-0.1-7.6-0.3c-4.9-0.4-9.3-1.3-11-4.8
		c-1.8-3.6-0.8-9.7,0-13.9c0.3-1.4,0.8-2.7,1.1-4c0.4-1.7,0.5-3.2,0.8-4.5c0.6-1.9,1.4-3.6,2.3-5.4c0.2-0.5,0.1-0.8,0.3-1.1
		c0.6-1,1.8-2.4,2.5-3.7c0.7,0.2,0.8-0.6,1.1-0.8c3.1-2.3,7.4-3.3,13-3.7c3.6-0.2,8.3-0.1,11.6,0.6c2.6,0.5,5.5,1.9,6.8,4
		c0.9,1.4,1.3,5.1,1.1,8.2c-0.3,4.1-1.6,9.2-2.8,13.9c-0.5,1.7-0.7,3.4-1.4,5.1c-0.1,0.1-0.5,0.5-0.6,0.6c-0.4,1.2-0.9,2.3-1.7,3.4
		C206.1,369.4,205.4,369.9,204.1,371.2z M192.3,340.1c-1.9,0.5-3.5,1.2-4.8,2.3c-1.7,2.6-2.9,6.4-3.7,10.2c-0.8,3.8-1.9,8-0.8,11.9
		c2.4,3,11.4,2.4,14.7,0.6c2.5-2.4,3.3-6.5,4.2-10.5c0.9-4,2.3-8.4,1.1-12.4C201.2,339.6,196.5,340.1,192.3,340.1z"/>
	<path class="st0" d="M365.6,336.1c2.6,5.2,1.1,11.8,0,17.3c-1.1,5.6-2.9,10.9-5.1,14.7c-0.7,0.5-1.3,1.1-2,1.7
		c-1.4,1.3-2.5,2.3-5.1,3.1c-3.3,1.1-8.5,1.6-13,1.4c-5.7-0.2-12.1-0.9-14.1-4.8c-1.7-3.2-0.9-8.7-0.3-12.2
		c1.3-7.6,3.4-16.8,7.9-21.2c0.6,0.1,0.6-0.4,0.8-0.6c2.8-2,7.6-3.1,12.4-3.4C354.3,331.7,362.2,332.5,365.6,336.1z M347.2,366.4
		c1.2-0.5,2.4-1,3.7-1.4c2.6-2.3,3.3-6.8,4.2-11c0.9-4.2,2.7-8.9,0.6-12.4c-3.1-2.3-11.6-1.9-14.4,0.3c-1.7,1.9-2.7,4.8-3.4,7.4
		c-0.3,1.1-0.3,2.1-0.6,3.1c-0.9,3.9-2.5,8.2-1.1,12.2C338,367,343,366.3,347.2,366.4z"/>
	<path class="st0" d="M378.9,336.4c1-0.6,2-1.2,2.8-2c5.1-2.2,13.9-2.8,21.2-1.7c3.4,0.5,6.2,1.4,7.6,3.1c0.2,0.2,0.1,0.4,0.3,0.6
		c1.8,1.8,1.5,7.7,1.1,11c-0.2,1.8-0.7,4.1-1.1,5.9c-1.1,5.4-2.8,11.2-4.8,14.1c-0.4,0.6-1.3,1.3-2,2c-1.7,1.7-2.6,2.5-5.4,3.4
		c-5.5,1.9-15.4,2-21.5,0.3c-2.3-0.7-4.5-1.5-5.7-3.7c-1.8-3.4-0.8-10.3,0-14.4c0.3-1.5,0.9-2.8,1.1-4c0.4-1.6,0.4-3.1,0.8-4.5
		c0.4-1.2,1-2.6,1.4-3.7C376,340.4,377.2,338.3,378.9,336.4z M390.8,340.1c-5.9,0.8-7.2,6.3-8.5,12.2c-0.9,4.3-2.2,9.5-0.6,12.7
		c2.4,1.7,8.3,2,11.6,1.1c1.4-0.3,2.1-1.1,3.1-1.4c2.3-2.5,3.1-6.5,4-10.5c0.9-3.9,2.3-8.3,0.8-12.4
		C399.4,339.6,394.8,340.1,390.8,340.1z"/>
	<path class="st0" d="M63.3,332.7c1.3,11.1,1.8,22.9,3.1,33.9c2.7-5.5,5.1-11.3,7.6-17c2.5-5.6,5-11.2,7.4-17c3.5,0,7,0,10.5,0
		c-4.8,10.6-10,21.6-15,32.5c-0.5,1.2-1.2,2.2-1.7,3.4c-1.1,2.4-2,5-3.1,7.4c-0.3,0.6-0.9,1.1-1.1,1.7c-0.3,0.7-0.3,1.4-0.6,2
		c-0.5,1.1-1.4,2.1-2,3.1c-0.2,0.3-0.1,0.3-0.3,0.6c-0.2,0.2-0.3,0.6-0.6,0.8c-0.2,0.2-0.3,0.6-0.6,0.8c0,0-0.3,0.3-0.3,0.3
		c-0.7,1-1.8,2.3-2.8,3.4c-1.3,0.5-2.3,1.4-3.7,2c-1.3,0.5-2.8,0.7-4.2,1.1c-2.6,0.1-5.1,0-7.4-0.3c0.7-2.4,1.1-5.1,1.7-7.6
		c7.7,1.3,10.1-4.9,12.2-10.2c-1.6,0-3.2,0-4.8,0c-1.2-13.7-3.1-26.7-4.5-40.2c0-0.3,0-0.6,0-0.8C56.5,332.7,59.9,332.7,63.3,332.7z
		"/>
	<path class="st0" d="M229.9,332.7c0,11.3-0.5,21.9-0.3,33.4c2.8-5.3,5-11.2,7.6-16.7c2.4-5.6,5-11,7.4-16.7c4.1,0,8.3,0,12.4,0
		c0.4,11.1,0.6,22.4,0.6,33.9c1.6-2.6,2.5-5.6,3.7-8.5c3.4-8.2,7.3-16.9,10.7-25.5c3.2,0,6.4,0,9.6,0c0,1.5-1.2,2.8-1.7,4
		c-0.2,0.4-0.1,1-0.3,1.4c-0.1,0.1-0.5,0.5-0.6,0.6c-0.2,0.6-0.3,1.3-0.6,2c-0.1,0.1-0.5,0.5-0.6,0.6c-0.2,0.6-0.3,1.3-0.6,2
		c-0.1,0.1-0.5,0.5-0.6,0.6c-0.2,0.6-0.3,1.3-0.6,2c-0.1,0.1-0.5,0.5-0.6,0.6c-0.7,2.3-1.9,4.6-2.8,7.1c-3.1,6.7-6,13.6-9.1,20.4
		c-4.8,0-9.6,0-14.4,0c0.1-10.9,0-21.7-0.3-32.2c-4.9,10.6-9.3,21.6-14.1,32.2c-4.8,0-9.6,0-14.4,0c-0.2-13.6-0.5-27.2-0.6-41
		C223.3,332.7,226.6,332.7,229.9,332.7z"/>
</g>
</svg>
