<?xml version="1.0" encoding="utf-8"?>
<!-- Generator: Adobe Illustrator 23.1.0, SVG Export Plug-In . SVG Version: 6.00 Build 0)  -->
<svg version="1.1" id="Layer_1" xmlns:sketch="http://www.bohemiancoding.com/sketch/ns"
	 xmlns="http://www.w3.org/2000/svg" xmlns:xlink="http://www.w3.org/1999/xlink" x="0px" y="0px" viewBox="0 0 288 288"
	 style="enable-background:new 0 0 288 288;" xml:space="preserve">
<style type="text/css">
	.st0{fill-rule:evenodd;clip-rule:evenodd;fill:#CA4638;}
	.st1{fill-rule:evenodd;clip-rule:evenodd;fill:#FFFFFF;}
</style>
<title></title>
<g id="flat">
	<g id="yelp">
		<path class="st0" d="M144,286c78.4,0,142-63.6,142-142S222.4,2,144,2S2,65.6,2,144S65.6,286,144,286z"/>
		<path class="st1" d="M160.5,162.7c-2.9,3-0.5,8.4-0.5,8.4l22.2,37.1c0,0,3.6,4.9,6.8,4.9c3.2,0,6.3-2.6,6.3-2.6l17.6-25.1
			c0,0,1.8-3.2,1.8-5.9c0.1-3.9-5.9-5-5.9-5L167.3,161C167.3,161,163.2,160,160.5,162.7L160.5,162.7z M158.4,144
			c2.1,3.6,8,2.6,8,2.6l41.5-12.1c0,0,5.7-2.3,6.5-5.4c0.8-3.1-0.9-6.8-0.9-6.8L193.6,99c0,0-1.7-3-5.3-3.2
			c-3.9-0.3-6.3,4.4-6.3,4.4L158.5,137C158.5,137,156.5,140.7,158.4,144L158.4,144z M138.8,129.6c4.9-1.2,5.7-8.3,5.7-8.3l-0.3-59
			c0,0-0.7-7.3-4-9.3c-5.1-3.1-6.7-1.5-8.1-1.3L97.6,64.6c0,0-3.4,1.1-5.1,3.9c-2.5,4,2.5,9.8,2.5,9.8l35.8,48.8
			C130.8,127.1,134.3,130.7,138.8,129.6L138.8,129.6z M130.3,153.5c0.1-4.5-5.5-7.3-5.5-7.3l-37-18.7c0,0-5.5-2.3-8.1-0.7
			c-2,1.2-3.8,3.4-4,5.3l-2.4,29.7c0,0-0.4,5.1,1,7.5c1.9,3.3,8.1,1,8.1,1l43.2-9.5C127.2,159.6,130.2,159.5,130.3,153.5
			L130.3,153.5z M141.1,169.5c-3.7-1.9-8.1,2-8.1,2L104,203.4c0,0-3.6,4.9-2.7,7.9c0.9,2.8,2.3,4.2,4.3,5.2l29,9.2
			c0,0,3.5,0.7,6.2,0c3.8-1.1,3.1-7,3.1-7l0.7-43.1C144.6,175.4,144.5,171.3,141.1,169.5L141.1,169.5z"/>
	</g>
</g>
</svg>
