<?xml version="1.0" encoding="utf-8"?>
<!-- Generator: Adobe Illustrator 25.3.1, SVG Export Plug-In . SVG Version: 6.00 Build 0)  -->
<svg version="1.1" id="Layer_1" xmlns="http://www.w3.org/2000/svg" xmlns:xlink="http://www.w3.org/1999/xlink" x="0px" y="0px"
	 viewBox="0 0 284 93" style="enable-background:new 0 0 284 93;" xml:space="preserve">
<style type="text/css">
	.st0{fill:#D1D3D4;}
	.st1{fill:#FFFFFF;}
	.st2{fill:#231F20;}
	.st3{fill-rule:evenodd;clip-rule:evenodd;}
	.st4{fill-rule:evenodd;clip-rule:evenodd;fill:#D9272D;}
</style>
<polygon class="st0" points="284,0 0,0 0,93 284,93 284,0 "/>
<polyline class="st1" points="283,1 283,92 1,92 1,1 283,1 "/>
<g>
	<path class="st2" d="M61.7,14.9h1.1V20h3.2v1h-4.2V14.9z"/>
	<path class="st2" d="M69.6,14.9h4.5v0.9h-3.4v1.6h3v0.9h-3V20h3.4V21h-4.5V14.9z"/>
	<path class="st2" d="M80.1,14.9h1l2.6,6.1h-1.1L82,19.5h-2.8L78.5,21h-1.1L80.1,14.9z M81.6,18.6l-1-2.4l-1,2.4H81.6z"/>
	<path class="st2" d="M85.9,14.9h1.2l1.8,4.6l1.8-4.6h1.1L89.4,21h-0.9L85.9,14.9z"/>
	<path class="st2" d="M95.5,14.9h4.5v0.9h-3.4v1.6h3v0.9h-3V20h3.4V21h-4.5V14.9z"/>
	<path class="st2" d="M110.7,18.6l-2.4-3.6h1.2l1.7,2.7l1.7-2.7h1.2l-2.4,3.6V21h-1.1V18.6z"/>
	<path class="st2" d="M116.9,17.9c0-1.7,1.3-3.1,3.2-3.1s3.1,1.4,3.1,3.1c0,1.7-1.3,3.1-3.2,3.1C118.2,21.1,116.9,19.7,116.9,17.9z
		 M122.1,17.9c0-1.2-0.9-2.1-2-2.1c-1.2,0-2,1-2,2.1c0,1.2,0.9,2.1,2,2.1C121.2,20.1,122.1,19.1,122.1,17.9z"/>
	<path class="st2" d="M127,18.4v-3.5h1.1v3.4c0,1.1,0.6,1.7,1.5,1.7c0.9,0,1.5-0.6,1.5-1.7v-3.5h1.1v3.4c0,1.8-1,2.7-2.6,2.7
		C127.9,21,127,20.1,127,18.4z"/>
	<path class="st2" d="M136.1,14.9h2.7c1.4,0,2.2,0.8,2.2,1.9c0,1-0.6,1.6-1.4,1.8l1.6,2.3H140l-1.5-2.1h-1.3V21h-1.1V14.9z
		 M138.7,17.9c0.8,0,1.2-0.4,1.2-1c0-0.6-0.5-1-1.2-1h-1.5v2H138.7z"/>
	<path class="st2" d="M150.1,14.9h2.7c1.4,0,2.2,0.8,2.2,1.9c0,1-0.6,1.6-1.4,1.8l1.6,2.3h-1.2l-1.5-2.1h-1.3V21h-1.1V14.9z
		 M152.7,17.9c0.8,0,1.2-0.4,1.2-1c0-0.6-0.5-1-1.2-1h-1.5v2H152.7z"/>
	<path class="st2" d="M158.9,14.9h4.5v0.9h-3.4v1.6h3v0.9h-3V20h3.4V21h-4.5V14.9z"/>
	<path class="st2" d="M166.7,14.9h1.2l1.8,4.6l1.8-4.6h1.1l-2.5,6.1h-0.9L166.7,14.9z"/>
	<path class="st2" d="M176.3,14.9h1.1v6h-1.1V14.9z"/>
	<path class="st2" d="M181.5,14.9h4.5v0.9h-3.4v1.6h3v0.9h-3V20h3.4V21h-4.5V14.9z"/>
	<path class="st2" d="M189.4,14.9h1.1l1.4,4.5l1.5-4.5h0.9l1.5,4.5l1.4-4.5h1.1l-2.1,6.1h-0.9l-1.5-4.3l-1.5,4.3h-0.9L189.4,14.9z"
		/>
	<path class="st2" d="M206.9,17.9c0-1.7,1.3-3.1,3.2-3.1c1.8,0,3.1,1.4,3.1,3.1c0,1.7-1.3,3.1-3.2,3.1S206.9,19.7,206.9,17.9z
		 M212.1,17.9c0-1.2-0.9-2.1-2-2.1s-2,1-2,2.1c0,1.2,0.9,2.1,2,2.1C211.3,20.1,212.1,19.1,212.1,17.9z"/>
	<path class="st2" d="M217.1,14.9h1l3.2,4.2v-4.2h1v6h-0.9l-3.3-4.3V21h-1V14.9z"/>
</g>
<g>
	<path class="st3" d="M134.9,75.8c0,1.6-1.3,2.9-2.9,2.9c-1.6,0-2.9-1.3-2.9-2.9V46.7c0-1.6,1.3-2.9,2.9-2.9c1.6,0,2.9,1.3,2.9,2.9
		V75.8z"/>
	<path d="M109.6,67.7l10.5,0c0.1,0,0.1,0,0.2,0c1.5-0.1,2.8-1.3,2.8-3.3c0,0,0,0,0,0c0-0.1,0-0.1,0-0.1
		c-0.5-10.7-7.4-12.2-10.5-12.2c-3.2,0-10.5,1.9-10.5,13.8c0.1,4.5,1,13,10.4,13c8.1,0,9.9-4.7,9.9-5.9c0-1.8-1.5-3.3-3.1-2.7
		c-1.3,0.5-3.2,3.1-6.2,3.1c-4.3,0-4.8-3.9-4.8-4.7C108.4,68,108.7,67.7,109.6,67.7z M108.4,62.4c0.2-4,3.3-4.7,4.6-4.7
		c1.4,0,4.5,0.7,4.6,4.8c0,0.2-0.1,0.3-0.2,0.3h-8.7C108.5,62.9,108.4,62.7,108.4,62.4z"/>
	<path d="M85.7,75.1l-9.1-18.7c-0.7-1.5-0.1-3.3,1.4-4c1.5-0.7,3.3-0.1,4,1.4L89,68.2l4.3-14.1c0.5-1.6,2.2-2.5,3.8-2
		c1.6,0.5,2.5,2.2,2,3.8c0,0-4.9,16-7.8,25.2c-1,3-3.5,4.5-7.3,4.5c-3.8-0.1-4.4-2.3-3.9-3.8c0.5-1.6,1.8-2.1,3.1-2.1
		C86.5,79.7,86.9,77.6,85.7,75.1z"/>
	<path class="st2" d="M170,69.6c0.9,0,1.6,0.7,1.6,1.6c0,0.9-0.7,1.6-1.6,1.6c-0.9,0-1.6-0.7-1.6-1.6
		C168.3,70.3,169.1,69.6,170,69.6z M170,72.6c0.8,0,1.4-0.6,1.4-1.4c0-0.8-0.6-1.4-1.4-1.4c-0.8,0-1.4,0.6-1.4,1.4
		C168.6,72,169.2,72.6,170,72.6z M169.3,70.3h0.7c0.5,0,0.7,0.2,0.7,0.5c0,0.3-0.2,0.5-0.5,0.5l0.5,0.8h-0.3l-0.5-0.8h-0.3v0.8h-0.3
		V70.3z M169.6,71.1h0.3c0.3,0,0.5,0,0.5-0.3c0-0.3-0.2-0.3-0.4-0.3h-0.4V71.1z"/>
	<path d="M163.8,64.2c0-3.8-0.5-9.1-5.3-11.4c-2.7-1.3-6.1-1.3-8.7,0.2c-0.5,0.3-1,0.6-1.5,1c-0.3-1.3-1.5-2.2-2.8-2.2
		c-1.6,0-2.9,1.3-2.9,2.9v29.1c0,1.6,1.3,2.9,2.9,2.9c1.6,0,2.9-1.3,2.9-2.9v-7.6c0,0,2,2.4,5.1,2.5
		C164.6,78.9,163.9,66.8,163.8,64.2z M158,66.4c0,2.3,0,6.5-4.2,6.5c-4.2,0-4.2-4.1-4.2-6.5v-2.1c0-2.3,0-6.5,4.2-6.5
		c4.2,0,4.2,4.1,4.2,6.5V66.4z"/>
	<path class="st4" d="M173,50.1l10.2,5c2,1,1.7,3.8-0.5,4.4l-11,2.7c-1.4,0.3-2.7-0.6-2.9-2c-0.3-3,0-6,0.9-8.7
		C170.2,50.2,171.7,49.5,173,50.1z"/>
	<path class="st4" d="M177.1,71.2l7.6-8.4c1.5-1.6,4.2-0.5,4.1,1.6l-0.4,11.3c0,1.4-1.3,2.5-2.7,2.2c-2.9-0.5-5.7-1.6-8.1-3.3
		C176.3,73.8,176.1,72.2,177.1,71.2z"/>
	<path class="st4" d="M195.1,59.9l10.8,3.5c1.3,0.4,2,2,1.4,3.2c-1.3,2.7-3.1,5-5.4,6.9c-1.1,0.9-2.7,0.6-3.5-0.6l-6-9.6
		C191.2,61.5,193,59.3,195.1,59.9z"/>
	<path class="st4" d="M206.1,53l-10.9,3.1c-2.1,0.6-3.8-1.7-2.6-3.6l6.3-9.4c0.8-1.2,2.4-1.4,3.5-0.5c2.2,1.9,4,4.3,5.2,7.1
		C208.1,51.2,207.4,52.7,206.1,53z"/>
	<path class="st4" d="M180.6,26.6c-2,0.5-3.8,1.2-5.6,2.1c-1.2,0.6-1.7,2.1-1,3.3l10.7,18.5c1.2,2.1,4.4,1.2,4.4-1.2V27.9
		c0-1.4-1.2-2.4-2.5-2.3C184.5,25.7,182.5,26,180.6,26.6z"/>
</g>
</svg>
